<?xml version="1.0" encoding="UTF-8" standalone="no"?>
<!DOCTYPE svg PUBLIC "-//W3C//DTD SVG 1.1//EN"
 "http://www.w3.org/Graphics/SVG/1.1/DTD/svg11.dtd">
<!-- Generated by graphviz version 2.49.0 (0)
 -->
<!-- Title: graph Pages: 1 -->
<svg width="329pt" height="352pt"
 viewBox="0.00 0.00 328.68 351.80" xmlns="http://www.w3.org/2000/svg" xmlns:xlink="http://www.w3.org/1999/xlink">
<g id="graph0" class="graph" transform="scale(1 1) rotate(0) translate(4 347.8)">
<title>graph</title>
<polygon fill="white" stroke="transparent" points="-4,4 -4,-347.8 324.68,-347.8 324.68,4 -4,4"/>
<!-- initialize -->
<g id="node1" class="node">
<title>initialize</title>
<path fill="none" stroke="black" d="M92.74,-343.8C92.74,-343.8 51.77,-343.8 51.77,-343.8 45.77,-343.8 39.77,-337.8 39.77,-331.8 39.77,-331.8 39.77,-319.8 39.77,-319.8 39.77,-313.8 45.77,-307.8 51.77,-307.8 51.77,-307.8 92.74,-307.8 92.74,-307.8 98.74,-307.8 104.74,-313.8 104.74,-319.8 104.74,-319.8 104.74,-331.8 104.74,-331.8 104.74,-337.8 98.74,-343.8 92.74,-343.8"/>
<text text-anchor="middle" x="72.26" y="-321.6" font-family="Times,serif" font-size="14.00">initialize</text>
</g>
<!-- 0x711ac0 -->
<g id="node2" class="node">
<title>0x711ac0</title>
<ellipse fill="#77c3ec" stroke="black" cx="51.26" cy="-252.8" rx="51.01" ry="18"/>
<text text-anchor="middle" x="51.26" y="-248.6" font-family="Times,serif" font-size="14.00">initialize()</text>
</g>
<!-- initialize&#45;&gt;0x711ac0 -->
<g id="edge1" class="edge">
<title>initialize:c&#45;&gt;0x711ac0:c</title>
<path fill="none" stroke="black" stroke-width="1.5" d="M67.17,-307.61C64.57,-298.8 61.35,-287.93 58.49,-278.26"/>
<polygon fill="black" stroke="black" stroke-width="1.5" points="60.94,-277.28 56.29,-270.83 55.9,-278.77 60.94,-277.28"/>
</g>
<!-- advance -->
<g id="node3" class="node">
<title>advance</title>
<path fill="none" stroke="black" d="M188.12,-270.8C188.12,-270.8 150.4,-270.8 150.4,-270.8 144.4,-270.8 138.4,-264.8 138.4,-258.8 138.4,-258.8 138.4,-246.8 138.4,-246.8 138.4,-240.8 144.4,-234.8 150.4,-234.8 150.4,-234.8 188.12,-234.8 188.12,-234.8 194.12,-234.8 200.12,-240.8 200.12,-246.8 200.12,-246.8 200.12,-258.8 200.12,-258.8 200.12,-264.8 194.12,-270.8 188.12,-270.8"/>
<text text-anchor="middle" x="169.26" y="-248.6" font-family="Times,serif" font-size="14.00">advance</text>
</g>
<!-- initialize&#45;&gt;advance -->
<g id="edge2" class="edge">
<title>initialize:c&#45;&gt;advance:c</title>
<path fill="none" stroke="#1d76db" stroke-width="2" d="M95.74,-307.61C108.96,-297.93 125.61,-285.75 139.71,-275.43"/>
<polygon fill="#1d76db" stroke="#1d76db" stroke-width="2" points="141.49,-277.38 145.99,-270.83 138.39,-273.14 141.49,-277.38"/>
</g>
<!-- 0x711b20 -->
<g id="node4" class="node">
<title>0x711b20</title>
<ellipse fill="#b8e2f2" stroke="black" cx="86.26" cy="-164" rx="49.2" ry="18"/>
<text text-anchor="middle" x="86.26" y="-159.8" font-family="Times,serif" font-size="14.00">advance()</text>
</g>
<!-- advance&#45;&gt;0x711b20 -->
<g id="edge3" class="edge">
<title>advance:c&#45;&gt;0x711b20:c</title>
<path fill="none" stroke="black" stroke-width="1.5" d="M152.86,-234.65C139.76,-220.96 121.32,-201.67 107.17,-186.87"/>
<polygon fill="black" stroke="black" stroke-width="1.5" points="108.86,-184.84 101.78,-181.23 105.06,-188.47 108.86,-184.84"/>
</g>
<!-- analyze -->
<g id="node5" class="node">
<title>analyze</title>
<path fill="none" stroke="black" d="M217.51,-182C217.51,-182 183.01,-182 183.01,-182 177.01,-182 171.01,-176 171.01,-170 171.01,-170 171.01,-158 171.01,-158 171.01,-152 177.01,-146 183.01,-146 183.01,-146 217.51,-146 217.51,-146 223.51,-146 229.51,-152 229.51,-158 229.51,-158 229.51,-170 229.51,-170 229.51,-176 223.51,-182 217.51,-182"/>
<text text-anchor="middle" x="200.26" y="-159.8" font-family="Times,serif" font-size="14.00">analyze</text>
</g>
<!-- advance&#45;&gt;analyze -->
<g id="edge4" class="edge">
<title>advance:c&#45;&gt;analyze:c</title>
<path fill="none" stroke="#1d76db" stroke-width="2" d="M175.38,-234.65C180.01,-221.69 186.42,-203.73 191.58,-189.3"/>
<polygon fill="#1d76db" stroke="#1d76db" stroke-width="2" points="194.09,-190.06 194.14,-182.11 189.15,-188.29 194.09,-190.06"/>
</g>
<!-- analyze&#45;&gt;advance -->
<g id="edge5" class="edge">
<title>analyze:e&#45;&gt;advance:e</title>
<path fill="none" stroke="#1d76db" stroke-width="2" stroke-dasharray="5,2" d="M230.26,-164C269.18,-164 246.12,-242.05 208.88,-251.8"/>
<polygon fill="#1d76db" stroke="#1d76db" stroke-width="2" points="208.35,-249.22 201.26,-252.8 209.03,-254.43 208.35,-249.22"/>
<text text-anchor="middle" x="264.77" y="-204.2" font-family="Times,serif" font-size="14.00"> cycle</text>
</g>
<!-- 0x711b80 -->
<g id="node6" class="node">
<title>0x711b80</title>
<ellipse fill="#4eb2e0" stroke="black" cx="162.26" cy="-91" rx="46.91" ry="18"/>
<text text-anchor="middle" x="162.26" y="-86.8" font-family="Times,serif" font-size="14.00">analyze()</text>
</g>
<!-- analyze&#45;&gt;0x711b80 -->
<g id="edge6" class="edge">
<title>analyze:c&#45;&gt;0x711b80:c</title>
<path fill="none" stroke="black" stroke-width="1.5" d="M191.06,-145.81C186.25,-136.83 180.29,-125.69 175.04,-115.89"/>
<polygon fill="black" stroke="black" stroke-width="1.5" points="177.22,-114.4 171.37,-109.03 172.6,-116.88 177.22,-114.4"/>
</g>
<!-- finalize -->
<g id="node7" class="node">
<title>finalize</title>
<path fill="none" stroke="black" d="M291.23,-109C291.23,-109 257.28,-109 257.28,-109 251.28,-109 245.28,-103 245.28,-97 245.28,-97 245.28,-85 245.28,-85 245.28,-79 251.28,-73 257.28,-73 257.28,-73 291.23,-73 291.23,-73 297.23,-73 303.23,-79 303.23,-85 303.23,-85 303.23,-97 303.23,-97 303.23,-103 297.23,-109 291.23,-109"/>
<text text-anchor="middle" x="274.26" y="-86.8" font-family="Times,serif" font-size="14.00">finalize</text>
</g>
<!-- analyze&#45;&gt;finalize -->
<g id="edge7" class="edge">
<title>analyze:c&#45;&gt;finalize:c</title>
<path fill="none" stroke="#1d76db" stroke-width="2" d="M218.17,-145.81C227.99,-136.39 240.27,-124.61 250.84,-114.47"/>
<polygon fill="#1d76db" stroke="#1d76db" stroke-width="2" points="252.91,-116.12 256.51,-109.03 249.28,-112.33 252.91,-116.12"/>
</g>
<!-- 0x711be0 -->
<g id="node8" class="node">
<title>0x711be0</title>
<ellipse fill="#9dd9f3" stroke="black" cx="274.26" cy="-18" rx="46.34" ry="18"/>
<text text-anchor="middle" x="274.26" y="-13.8" font-family="Times,serif" font-size="14.00">finalize()</text>
</g>
<!-- finalize&#45;&gt;0x711be0 -->
<g id="edge8" class="edge">
<title>finalize:c&#45;&gt;0x711be0:c</title>
<path fill="none" stroke="black" stroke-width="1.5" d="M274.26,-72.81C274.26,-64.09 274.26,-53.34 274.26,-43.75"/>
<polygon fill="black" stroke="black" stroke-width="1.5" points="276.88,-43.53 274.26,-36.03 271.63,-43.53 276.88,-43.53"/>
</g>
</g>
</svg>
