<?xml version="1.0" encoding="UTF-8" standalone="no"?>
<!DOCTYPE svg PUBLIC "-//W3C//DTD SVG 1.1//EN"
 "http://www.w3.org/Graphics/SVG/1.1/DTD/svg11.dtd">
<!-- Generated by graphviz version 8.0.5 (0)
 -->
<!-- Title: graph Pages: 1 -->
<svg width="329pt" height="352pt"
 viewBox="0.00 0.00 328.67 351.80" xmlns="http://www.w3.org/2000/svg" xmlns:xlink="http://www.w3.org/1999/xlink">
<g id="graph0" class="graph" transform="scale(1 1) rotate(0) translate(4 347.8)">
<title>graph</title>
<polygon fill="white" stroke="none" points="-4,4 -4,-347.8 324.67,-347.8 324.67,4 -4,4"/>
<!-- initialize -->
<g id="node1" class="node">
<title>initialize</title>
<path fill="none" stroke="black" d="M92.74,-343.8C92.74,-343.8 51.76,-343.8 51.76,-343.8 45.76,-343.8 39.76,-337.8 39.76,-331.8 39.76,-331.8 39.76,-319.8 39.76,-319.8 39.76,-313.8 45.76,-307.8 51.76,-307.8 51.76,-307.8 92.74,-307.8 92.74,-307.8 98.74,-307.8 104.74,-313.8 104.74,-319.8 104.74,-319.8 104.74,-331.8 104.74,-331.8 104.74,-337.8 98.74,-343.8 92.74,-343.8"/>
<text text-anchor="middle" x="72.25" y="-321.6" font-family="Times,serif" font-size="14.00">initialize</text>
</g>
<!-- 0x711ac0 -->
<g id="node2" class="node">
<title>0x711ac0</title>
<ellipse fill="#77c3ec" stroke="black" cx="51.25" cy="-252.8" rx="51.25" ry="18"/>
<text text-anchor="middle" x="51.25" y="-248.6" font-family="Times,serif" font-size="14.00">initialize()</text>
</g>
<!-- initialize&#45;&gt;0x711ac0 -->
<g id="edge1" class="edge">
<title>initialize:c&#45;&gt;0x711ac0:c</title>
<path fill="none" stroke="black" stroke-width="1.5" d="M67.17,-307.61C64.69,-299.24 61.66,-289 58.91,-279.7"/>
<polygon fill="black" stroke="black" stroke-width="1.5" points="60.93,-279.28 56.29,-272.83 55.9,-280.77 60.93,-279.28"/>
</g>
<!-- advance -->
<g id="node3" class="node">
<title>advance</title>
<path fill="none" stroke="black" d="M188.18,-270.8C188.18,-270.8 150.33,-270.8 150.33,-270.8 144.33,-270.8 138.33,-264.8 138.33,-258.8 138.33,-258.8 138.33,-246.8 138.33,-246.8 138.33,-240.8 144.33,-234.8 150.33,-234.8 150.33,-234.8 188.18,-234.8 188.18,-234.8 194.18,-234.8 200.18,-240.8 200.18,-246.8 200.18,-246.8 200.18,-258.8 200.18,-258.8 200.18,-264.8 194.18,-270.8 188.18,-270.8"/>
<text text-anchor="middle" x="169.25" y="-248.6" font-family="Times,serif" font-size="14.00">advance</text>
</g>
<!-- initialize&#45;&gt;advance -->
<g id="edge2" class="edge">
<title>initialize:c&#45;&gt;advance:c</title>
<path fill="none" stroke="#1d76db" stroke-width="2" d="M95.73,-307.61C108.74,-298.09 125.06,-286.15 139.02,-275.93"/>
<polygon fill="#1d76db" stroke="#1d76db" stroke-width="2" points="139.15,-278.62 143.65,-272.07 136.05,-274.39 139.15,-278.62"/>
</g>
<!-- 0x711b20 -->
<g id="node4" class="node">
<title>0x711b20</title>
<ellipse fill="#b8e2f2" stroke="black" cx="86.25" cy="-164" rx="49.1" ry="18"/>
<text text-anchor="middle" x="86.25" y="-159.8" font-family="Times,serif" font-size="14.00">advance()</text>
</g>
<!-- advance&#45;&gt;0x711b20 -->
<g id="edge3" class="edge">
<title>advance:c&#45;&gt;0x711b20:c</title>
<path fill="none" stroke="black" stroke-width="1.5" d="M152.86,-234.65C140.19,-221.4 122.52,-202.93 108.57,-188.34"/>
<polygon fill="black" stroke="black" stroke-width="1.5" points="110.13,-186.13 103.05,-182.52 106.34,-189.76 110.13,-186.13"/>
</g>
<!-- analyze -->
<g id="node5" class="node">
<title>analyze</title>
<path fill="none" stroke="black" d="M217.63,-182C217.63,-182 182.88,-182 182.88,-182 176.88,-182 170.88,-176 170.88,-170 170.88,-170 170.88,-158 170.88,-158 170.88,-152 176.88,-146 182.88,-146 182.88,-146 217.63,-146 217.63,-146 223.63,-146 229.63,-152 229.63,-158 229.63,-158 229.63,-170 229.63,-170 229.63,-176 223.63,-182 217.63,-182"/>
<text text-anchor="middle" x="200.25" y="-159.8" font-family="Times,serif" font-size="14.00">analyze</text>
</g>
<!-- advance&#45;&gt;analyze -->
<g id="edge4" class="edge">
<title>advance:c&#45;&gt;analyze:c</title>
<path fill="none" stroke="#1d76db" stroke-width="2" d="M175.38,-234.65C179.89,-222.01 186.1,-204.62 191.19,-190.37"/>
<polygon fill="#1d76db" stroke="#1d76db" stroke-width="2" points="192.98,-192.36 193.04,-184.41 188.04,-190.59 192.98,-192.36"/>
</g>
<!-- analyze&#45;&gt;advance -->
<g id="edge5" class="edge">
<title>analyze:e&#45;&gt;advance:e</title>
<path fill="none" stroke="#1d76db" stroke-width="2" stroke-dasharray="5,2" d="M230.25,-164C269.01,-164 246.31,-241.4 209.34,-251.68"/>
<polygon fill="#1d76db" stroke="#1d76db" stroke-width="2" points="210.32,-249.17 203.25,-252.8 211.04,-254.37 210.32,-249.17"/>
<text text-anchor="middle" x="264.77" y="-204.2" font-family="Times,serif" font-size="14.00"> cycle</text>
</g>
<!-- 0x711b80 -->
<g id="node6" class="node">
<title>0x711b80</title>
<ellipse fill="#4eb2e0" stroke="black" cx="162.25" cy="-91" rx="46.95" ry="18"/>
<text text-anchor="middle" x="162.25" y="-86.8" font-family="Times,serif" font-size="14.00">analyze()</text>
</g>
<!-- analyze&#45;&gt;0x711b80 -->
<g id="edge6" class="edge">
<title>analyze:c&#45;&gt;0x711b80:c</title>
<path fill="none" stroke="black" stroke-width="1.5" d="M191.05,-145.81C186.48,-137.27 180.86,-126.77 175.81,-117.32"/>
<polygon fill="black" stroke="black" stroke-width="1.5" points="178.22,-116.4 172.37,-111.03 173.59,-118.88 178.22,-116.4"/>
</g>
<!-- finalize -->
<g id="node7" class="node">
<title>finalize</title>
<path fill="none" stroke="black" d="M291.24,-109C291.24,-109 257.27,-109 257.27,-109 251.27,-109 245.27,-103 245.27,-97 245.27,-97 245.27,-85 245.27,-85 245.27,-79 251.27,-73 257.27,-73 257.27,-73 291.24,-73 291.24,-73 297.24,-73 303.24,-79 303.24,-85 303.24,-85 303.24,-97 303.24,-97 303.24,-103 297.24,-109 291.24,-109"/>
<text text-anchor="middle" x="274.25" y="-86.8" font-family="Times,serif" font-size="14.00">finalize</text>
</g>
<!-- analyze&#45;&gt;finalize -->
<g id="edge7" class="edge">
<title>analyze:c&#45;&gt;finalize:c</title>
<path fill="none" stroke="#1d76db" stroke-width="2" d="M218.17,-145.81C227.82,-136.55 239.86,-125 250.31,-114.97"/>
<polygon fill="#1d76db" stroke="#1d76db" stroke-width="2" points="250.65,-118.36 254.25,-111.27 247.02,-114.57 250.65,-118.36"/>
</g>
<!-- 0x711be0 -->
<g id="node8" class="node">
<title>0x711be0</title>
<ellipse fill="#9dd9f3" stroke="black" cx="274.25" cy="-18" rx="46.42" ry="18"/>
<text text-anchor="middle" x="274.25" y="-13.8" font-family="Times,serif" font-size="14.00">finalize()</text>
</g>
<!-- finalize&#45;&gt;0x711be0 -->
<g id="edge8" class="edge">
<title>finalize:c&#45;&gt;0x711be0:c</title>
<path fill="none" stroke="black" stroke-width="1.5" d="M274.25,-72.81C274.25,-64.62 274.25,-54.62 274.25,-45.48"/>
<polygon fill="black" stroke="black" stroke-width="1.5" points="276.88,-45.53 274.25,-38.03 271.63,-45.53 276.88,-45.53"/>
</g>
</g>
</svg>
