<?xml version="1.0" encoding="UTF-8" standalone="no"?>
<!DOCTYPE svg PUBLIC "-//W3C//DTD SVG 1.1//EN"
 "http://www.w3.org/Graphics/SVG/1.1/DTD/svg11.dtd">
<!-- Generated by graphviz version 2.49.0 (0)
 -->
<!-- Title: graph Pages: 1 -->
<svg width="524pt" height="332pt"
 viewBox="0.00 0.00 523.51 332.00" xmlns="http://www.w3.org/2000/svg" xmlns:xlink="http://www.w3.org/1999/xlink">
<g id="graph0" class="graph" transform="scale(1 1) rotate(0) translate(4 328)">
<title>graph</title>
<polygon fill="white" stroke="transparent" points="-4,4 -4,-328 519.51,-328 519.51,4 -4,4"/>
<!-- Control Point 1 -->
<g id="node1" class="node">
<title>Control Point 1</title>
<path fill="none" stroke="black" d="M363.1,-324C363.1,-324 284.41,-324 284.41,-324 278.41,-324 272.41,-318 272.41,-312 272.41,-312 272.41,-300 272.41,-300 272.41,-294 278.41,-288 284.41,-288 284.41,-288 363.1,-288 363.1,-288 369.1,-288 375.1,-294 375.1,-300 375.1,-300 375.1,-312 375.1,-312 375.1,-318 369.1,-324 363.1,-324"/>
<text text-anchor="middle" x="323.76" y="-301.8" font-family="Times,serif" font-size="14.00">Control Point 1</text>
</g>
<!-- 0x714ac0 -->
<g id="node2" class="node">
<title>0x714ac0</title>
<ellipse fill="#77c3ec" stroke="black" cx="251.76" cy="-234" rx="58.43" ry="18"/>
<text text-anchor="middle" x="251.76" y="-229.8" font-family="Times,serif" font-size="14.00">package_a()</text>
</g>
<!-- Control Point 1&#45;&gt;0x714ac0 -->
<g id="edge1" class="edge">
<title>Control Point 1:c&#45;&gt;0x714ac0:c</title>
<path fill="none" stroke="black" stroke-width="1.5" d="M305.96,-287.7C296.4,-278.41 284.52,-266.86 274.32,-256.94"/>
<polygon fill="black" stroke="black" stroke-width="1.5" points="276.06,-254.97 268.85,-251.62 272.4,-258.73 276.06,-254.97"/>
</g>
<!-- Control Point 2 -->
<g id="node3" class="node">
<title>Control Point 2</title>
<path fill="none" stroke="black" d="M456.1,-252C456.1,-252 377.41,-252 377.41,-252 371.41,-252 365.41,-246 365.41,-240 365.41,-240 365.41,-228 365.41,-228 365.41,-222 371.41,-216 377.41,-216 377.41,-216 456.1,-216 456.1,-216 462.1,-216 468.1,-222 468.1,-228 468.1,-228 468.1,-240 468.1,-240 468.1,-246 462.1,-252 456.1,-252"/>
<text text-anchor="middle" x="416.76" y="-229.8" font-family="Times,serif" font-size="14.00">Control Point 2</text>
</g>
<!-- Control Point 1&#45;&gt;Control Point 2 -->
<g id="edge2" class="edge">
<title>Control Point 1:c&#45;&gt;Control Point 2:c</title>
<path fill="none" stroke="#1d76db" stroke-width="2" d="M346.74,-287.7C359.13,-278.37 374.54,-266.77 387.75,-256.83"/>
<polygon fill="#1d76db" stroke="#1d76db" stroke-width="2" points="389.62,-258.71 394.03,-252.1 386.46,-254.52 389.62,-258.71"/>
</g>
<!-- 0x714b20 -->
<g id="node4" class="node">
<title>0x714b20</title>
<ellipse fill="#77c3ec" stroke="black" cx="58.76" cy="-162" rx="58.51" ry="18"/>
<text text-anchor="middle" x="58.76" y="-157.8" font-family="Times,serif" font-size="14.00">package_b()</text>
</g>
<!-- 0x714ac0&#45;&gt;0x714b20 -->
<g id="edge3" class="edge">
<title>0x714ac0:c&#45;&gt;0x714b20:c</title>
<path fill="none" stroke="black" stroke-width="1.5" d="M215.45,-219.83C183.34,-208.19 136.42,-191.17 102.3,-178.79"/>
<polygon fill="black" stroke="black" stroke-width="1.5" points="103.17,-176.32 95.22,-176.23 101.38,-181.25 103.17,-176.32"/>
</g>
<!-- 0x714b80 -->
<g id="node5" class="node">
<title>0x714b80</title>
<ellipse fill="#77c3ec" stroke="black" cx="211.76" cy="-162" rx="58.43" ry="18"/>
<text text-anchor="middle" x="211.76" y="-157.8" font-family="Times,serif" font-size="14.00">package_c()</text>
</g>
<!-- 0x714ac0&#45;&gt;0x714b80 -->
<g id="edge4" class="edge">
<title>0x714ac0:c&#45;&gt;0x714b80:c</title>
<path fill="none" stroke="black" stroke-width="1.5" d="M242.07,-216.05C237.01,-207.2 230.74,-196.22 225.21,-186.55"/>
<polygon fill="black" stroke="black" stroke-width="1.5" points="227.35,-185 221.35,-179.79 222.79,-187.6 227.35,-185"/>
</g>
<!-- 0x714be0 -->
<g id="node6" class="node">
<title>0x714be0</title>
<ellipse fill="#77c3ec" stroke="black" cx="211.76" cy="-90" rx="58.51" ry="18"/>
<text text-anchor="middle" x="211.76" y="-85.8" font-family="Times,serif" font-size="14.00">package_d()</text>
</g>
<!-- 0x714ac0&#45;&gt;0x714be0 -->
<g id="edge5" class="edge">
<title>0x714ac0:c&#45;&gt;0x714be0:c</title>
<path fill="none" stroke="black" stroke-width="1.5" d="M266.99,-216.5C281.84,-198.31 300.48,-168.38 287.76,-144 279.95,-129.05 265.79,-117.45 251.79,-108.97"/>
<polygon fill="black" stroke="black" stroke-width="1.5" points="252.78,-106.51 244.96,-105.06 250.17,-111.07 252.78,-106.51"/>
</g>
<!-- 0x714c40 -->
<g id="node7" class="node">
<title>0x714c40</title>
<ellipse fill="#b8e2f2" stroke="black" cx="437.76" cy="-162" rx="58.43" ry="18"/>
<text text-anchor="middle" x="437.76" y="-157.8" font-family="Times,serif" font-size="14.00">package_e()</text>
</g>
<!-- Control Point 2&#45;&gt;0x714c40 -->
<g id="edge8" class="edge">
<title>Control Point 2:c&#45;&gt;0x714c40:c</title>
<path fill="none" stroke="black" stroke-width="1.5" d="M421.95,-215.7C424.51,-207.14 427.66,-196.66 430.46,-187.3"/>
<polygon fill="black" stroke="black" stroke-width="1.5" points="432.98,-188.04 432.62,-180.1 427.95,-186.53 432.98,-188.04"/>
</g>
<!-- 0x714b20&#45;&gt;0x714be0 -->
<g id="edge6" class="edge">
<title>0x714b20:c&#45;&gt;0x714be0:c</title>
<path fill="none" stroke="black" stroke-width="1.5" d="M90.09,-146.67C114.22,-135.62 147.7,-120.31 173.43,-108.54"/>
<polygon fill="black" stroke="black" stroke-width="1.5" points="174.74,-110.82 180.47,-105.32 172.55,-106.05 174.74,-110.82"/>
</g>
<!-- 0x714b80&#45;&gt;0x714be0 -->
<g id="edge7" class="edge">
<title>0x714b80:c&#45;&gt;0x714be0:c</title>
<path fill="none" stroke="black" stroke-width="1.5" d="M211.76,-143.7C211.76,-135.3 211.76,-125.07 211.76,-115.86"/>
<polygon fill="black" stroke="black" stroke-width="1.5" points="214.38,-115.6 211.76,-108.1 209.13,-115.6 214.38,-115.6"/>
</g>
<!-- 0x714ca0 -->
<g id="node8" class="node">
<title>0x714ca0</title>
<ellipse fill="#b8e2f2" stroke="black" cx="400.76" cy="-90" rx="57.28" ry="18"/>
<text text-anchor="middle" x="400.76" y="-85.8" font-family="Times,serif" font-size="14.00">package_f()</text>
</g>
<!-- 0x714c40&#45;&gt;0x714ca0 -->
<g id="edge9" class="edge">
<title>0x714c40:c&#45;&gt;0x714ca0:c</title>
<path fill="none" stroke="black" stroke-width="1.5" d="M428.8,-144.05C424.12,-135.2 418.31,-124.22 413.2,-114.55"/>
<polygon fill="black" stroke="black" stroke-width="1.5" points="415.46,-113.19 409.63,-107.79 410.81,-115.65 415.46,-113.19"/>
</g>
<!-- 0x714d00 -->
<g id="node9" class="node">
<title>0x714d00</title>
<ellipse fill="#b8e2f2" stroke="black" cx="456.76" cy="-18" rx="58.51" ry="18"/>
<text text-anchor="middle" x="456.76" y="-13.8" font-family="Times,serif" font-size="14.00">package_g()</text>
</g>
<!-- 0x714c40&#45;&gt;0x714d00 -->
<g id="edge10" class="edge">
<title>0x714c40:c&#45;&gt;0x714d00:c</title>
<path fill="none" stroke="black" stroke-width="1.5" d="M453.82,-144.39C462.12,-134.63 471.39,-121.58 475.76,-108 482.65,-86.55 475.97,-61.37 468.69,-43.28"/>
<polygon fill="black" stroke="black" stroke-width="1.5" points="470.94,-41.86 465.58,-36 466.11,-43.92 470.94,-41.86"/>
</g>
<!-- 0x714ca0&#45;&gt;0x714d00 -->
<g id="edge11" class="edge">
<title>0x714ca0:c&#45;&gt;0x714d00:c</title>
<path fill="none" stroke="black" stroke-width="1.5" d="M414.03,-72.41C421.31,-63.3 430.46,-51.87 438.42,-41.92"/>
<polygon fill="black" stroke="black" stroke-width="1.5" points="440.55,-43.45 443.19,-35.96 436.46,-40.17 440.55,-43.45"/>
</g>
</g>
</svg>
