<?xml version="1.0" encoding="UTF-8" standalone="no"?>
<!DOCTYPE svg PUBLIC "-//W3C//DTD SVG 1.1//EN"
 "http://www.w3.org/Graphics/SVG/1.1/DTD/svg11.dtd">
<!-- Generated by graphviz version 8.0.5 (0)
 -->
<!-- Title: graph Pages: 1 -->
<svg width="524pt" height="332pt"
 viewBox="0.00 0.00 523.51 332.00" xmlns="http://www.w3.org/2000/svg" xmlns:xlink="http://www.w3.org/1999/xlink">
<g id="graph0" class="graph" transform="scale(1 1) rotate(0) translate(4 328)">
<title>graph</title>
<polygon fill="white" stroke="none" points="-4,4 -4,-328 519.51,-328 519.51,4 -4,4"/>
<!-- Control Point 1 -->
<g id="node1" class="node">
<title>Control Point 1</title>
<path fill="none" stroke="black" d="M362.93,-324C362.93,-324 284.58,-324 284.58,-324 278.58,-324 272.58,-318 272.58,-312 272.58,-312 272.58,-300 272.58,-300 272.58,-294 278.58,-288 284.58,-288 284.58,-288 362.93,-288 362.93,-288 368.93,-288 374.93,-294 374.93,-300 374.93,-300 374.93,-312 374.93,-312 374.93,-318 368.93,-324 362.93,-324"/>
<text text-anchor="middle" x="323.76" y="-301.8" font-family="Times,serif" font-size="14.00">Control Point 1</text>
</g>
<!-- 0x714ac0 -->
<g id="node2" class="node">
<title>0x714ac0</title>
<ellipse fill="#77c3ec" stroke="black" cx="251.76" cy="-234" rx="58.21" ry="18"/>
<text text-anchor="middle" x="251.76" y="-229.8" font-family="Times,serif" font-size="14.00">package_a()</text>
</g>
<!-- Control Point 1&#45;&gt;0x714ac0 -->
<g id="edge1" class="edge">
<title>Control Point 1:c&#45;&gt;0x714ac0:c</title>
<path fill="none" stroke="black" stroke-width="1.5" d="M305.96,-287.7C296.75,-278.75 285.4,-267.71 275.46,-258.05"/>
<polygon fill="black" stroke="black" stroke-width="1.5" points="277.06,-255.97 269.85,-252.62 273.4,-259.73 277.06,-255.97"/>
</g>
<!-- Control Point 2 -->
<g id="node3" class="node">
<title>Control Point 2</title>
<path fill="none" stroke="black" d="M455.93,-252C455.93,-252 377.58,-252 377.58,-252 371.58,-252 365.58,-246 365.58,-240 365.58,-240 365.58,-228 365.58,-228 365.58,-222 371.58,-216 377.58,-216 377.58,-216 455.93,-216 455.93,-216 461.93,-216 467.93,-222 467.93,-228 467.93,-228 467.93,-240 467.93,-240 467.93,-246 461.93,-252 455.93,-252"/>
<text text-anchor="middle" x="416.76" y="-229.8" font-family="Times,serif" font-size="14.00">Control Point 2</text>
</g>
<!-- Control Point 1&#45;&gt;Control Point 2 -->
<g id="edge2" class="edge">
<title>Control Point 1:c&#45;&gt;Control Point 2:c</title>
<path fill="none" stroke="#1d76db" stroke-width="2" d="M346.74,-287.7C358.93,-278.53 374.03,-267.16 387.09,-257.33"/>
<polygon fill="#1d76db" stroke="#1d76db" stroke-width="2" points="387.3,-259.95 391.71,-253.35 384.14,-255.76 387.3,-259.95"/>
</g>
<!-- 0x714b20 -->
<g id="node4" class="node">
<title>0x714b20</title>
<ellipse fill="#77c3ec" stroke="black" cx="58.76" cy="-162" rx="58.76" ry="18"/>
<text text-anchor="middle" x="58.76" y="-157.8" font-family="Times,serif" font-size="14.00">package_b()</text>
</g>
<!-- 0x714ac0&#45;&gt;0x714b20 -->
<g id="edge3" class="edge">
<title>0x714ac0:c&#45;&gt;0x714b20:c</title>
<path fill="none" stroke="black" stroke-width="1.5" d="M215,-219.67C183.57,-208.27 138.22,-191.82 104.46,-179.58"/>
<polygon fill="black" stroke="black" stroke-width="1.5" points="105.65,-176.49 97.7,-176.4 103.86,-181.43 105.65,-176.49"/>
</g>
<!-- 0x714b80 -->
<g id="node5" class="node">
<title>0x714b80</title>
<ellipse fill="#77c3ec" stroke="black" cx="211.76" cy="-162" rx="58.21" ry="18"/>
<text text-anchor="middle" x="211.76" y="-157.8" font-family="Times,serif" font-size="14.00">package_c()</text>
</g>
<!-- 0x714ac0&#45;&gt;0x714b80 -->
<g id="edge4" class="edge">
<title>0x714ac0:c&#45;&gt;0x714b80:c</title>
<path fill="none" stroke="black" stroke-width="1.5" d="M242.07,-216.05C237.26,-207.63 231.34,-197.28 226.02,-187.97"/>
<polygon fill="black" stroke="black" stroke-width="1.5" points="228.35,-186 222.35,-180.79 223.79,-188.6 228.35,-186"/>
</g>
<!-- 0x714be0 -->
<g id="node6" class="node">
<title>0x714be0</title>
<ellipse fill="#77c3ec" stroke="black" cx="211.76" cy="-90" rx="58.76" ry="18"/>
<text text-anchor="middle" x="211.76" y="-85.8" font-family="Times,serif" font-size="14.00">package_d()</text>
</g>
<!-- 0x714ac0&#45;&gt;0x714be0 -->
<g id="edge5" class="edge">
<title>0x714ac0:c&#45;&gt;0x714be0:c</title>
<path fill="none" stroke="black" stroke-width="1.5" d="M267.26,-216.17C282.07,-197.94 300.4,-168.23 287.76,-144 280.17,-129.46 266.56,-118.09 252.94,-109.67"/>
<polygon fill="black" stroke="black" stroke-width="1.5" points="253.77,-107.54 245.96,-106.06 251.14,-112.09 253.77,-107.54"/>
</g>
<!-- 0x714c40 -->
<g id="node7" class="node">
<title>0x714c40</title>
<ellipse fill="#b8e2f2" stroke="black" cx="437.76" cy="-162" rx="58.21" ry="18"/>
<text text-anchor="middle" x="437.76" y="-157.8" font-family="Times,serif" font-size="14.00">package_e()</text>
</g>
<!-- Control Point 2&#45;&gt;0x714c40 -->
<g id="edge8" class="edge">
<title>Control Point 2:c&#45;&gt;0x714c40:c</title>
<path fill="none" stroke="black" stroke-width="1.5" d="M421.95,-215.7C424.36,-207.64 427.29,-197.89 429.96,-188.98"/>
<polygon fill="black" stroke="black" stroke-width="1.5" points="432.98,-190.04 432.62,-182.1 427.95,-188.53 432.98,-190.04"/>
</g>
<!-- 0x714b20&#45;&gt;0x714be0 -->
<g id="edge6" class="edge">
<title>0x714b20:c&#45;&gt;0x714be0:c</title>
<path fill="none" stroke="black" stroke-width="1.5" d="M90.46,-146.5C114.05,-135.7 146.42,-120.89 171.78,-109.29"/>
<polygon fill="black" stroke="black" stroke-width="1.5" points="172.37,-110.99 178.09,-105.49 170.18,-106.22 172.37,-110.99"/>
</g>
<!-- 0x714b80&#45;&gt;0x714be0 -->
<g id="edge7" class="edge">
<title>0x714b80:c&#45;&gt;0x714be0:c</title>
<path fill="none" stroke="black" stroke-width="1.5" d="M211.76,-143.7C211.76,-135.81 211.76,-126.3 211.76,-117.55"/>
<polygon fill="black" stroke="black" stroke-width="1.5" points="214.38,-117.6 211.76,-110.1 209.13,-117.6 214.38,-117.6"/>
</g>
<!-- 0x714ca0 -->
<g id="node8" class="node">
<title>0x714ca0</title>
<ellipse fill="#b8e2f2" stroke="black" cx="400.76" cy="-90" rx="57.14" ry="18"/>
<text text-anchor="middle" x="400.76" y="-85.8" font-family="Times,serif" font-size="14.00">package_f()</text>
</g>
<!-- 0x714c40&#45;&gt;0x714ca0 -->
<g id="edge9" class="edge">
<title>0x714c40:c&#45;&gt;0x714ca0:c</title>
<path fill="none" stroke="black" stroke-width="1.5" d="M428.8,-144.05C424.34,-135.63 418.87,-125.28 413.95,-115.97"/>
<polygon fill="black" stroke="black" stroke-width="1.5" points="416.46,-115.19 410.63,-109.79 411.81,-117.65 416.46,-115.19"/>
</g>
<!-- 0x714d00 -->
<g id="node9" class="node">
<title>0x714d00</title>
<ellipse fill="#b8e2f2" stroke="black" cx="456.76" cy="-18" rx="58.76" ry="18"/>
<text text-anchor="middle" x="456.76" y="-13.8" font-family="Times,serif" font-size="14.00">package_g()</text>
</g>
<!-- 0x714c40&#45;&gt;0x714d00 -->
<g id="edge10" class="edge">
<title>0x714c40:c&#45;&gt;0x714d00:c</title>
<path fill="none" stroke="black" stroke-width="1.5" d="M453.82,-144.39C462.12,-134.63 471.39,-121.58 475.76,-108 482.53,-86.93 476.2,-62.27 469.08,-44.26"/>
<polygon fill="black" stroke="black" stroke-width="1.5" points="470.92,-43.88 465.58,-38 466.09,-45.93 470.92,-43.88"/>
</g>
<!-- 0x714ca0&#45;&gt;0x714d00 -->
<g id="edge11" class="edge">
<title>0x714ca0:c&#45;&gt;0x714d00:c</title>
<path fill="none" stroke="black" stroke-width="1.5" d="M414.31,-72.05C421.26,-63.37 429.84,-52.64 437.46,-43.11"/>
<polygon fill="black" stroke="black" stroke-width="1.5" points="439.69,-44.29 442.32,-36.79 435.59,-41.01 439.69,-44.29"/>
</g>
</g>
</svg>
