<?xml version="1.0" encoding="UTF-8" standalone="no"?>
<!DOCTYPE svg PUBLIC "-//W3C//DTD SVG 1.1//EN"
 "http://www.w3.org/Graphics/SVG/1.1/DTD/svg11.dtd">
<!-- Generated by graphviz version 2.49.0 (0)
 -->
<!-- Title: graph Pages: 1 -->
<svg width="652pt" height="533pt"
 viewBox="0.00 0.00 652.07 532.80" xmlns="http://www.w3.org/2000/svg" xmlns:xlink="http://www.w3.org/1999/xlink">
<g id="graph0" class="graph" transform="scale(1 1) rotate(0) translate(4 528.8)">
<title>graph</title>
<polygon fill="white" stroke="transparent" points="-4,4 -4,-528.8 648.07,-528.8 648.07,4 -4,4"/>
<!-- Control Point 1 -->
<g id="node1" class="node">
<title>Control Point 1</title>
<path fill="none" stroke="black" d="M247.38,-524.8C247.38,-524.8 168.69,-524.8 168.69,-524.8 162.69,-524.8 156.69,-518.8 156.69,-512.8 156.69,-512.8 156.69,-500.8 156.69,-500.8 156.69,-494.8 162.69,-488.8 168.69,-488.8 168.69,-488.8 247.38,-488.8 247.38,-488.8 253.38,-488.8 259.38,-494.8 259.38,-500.8 259.38,-500.8 259.38,-512.8 259.38,-512.8 259.38,-518.8 253.38,-524.8 247.38,-524.8"/>
<text text-anchor="middle" x="208.04" y="-502.6" font-family="Times,serif" font-size="14.00">Control Point 1</text>
</g>
<!-- 0x717ac0 -->
<g id="node2" class="node">
<title>0x717ac0</title>
<ellipse fill="#77c3ec" stroke="black" cx="187.04" cy="-433.8" rx="48.07" ry="18"/>
<text text-anchor="middle" x="187.04" y="-429.6" font-family="Times,serif" font-size="14.00">actionX()</text>
</g>
<!-- Control Point 1&#45;&gt;0x717ac0 -->
<g id="edge1" class="edge">
<title>Control Point 1:c&#45;&gt;0x717ac0:c</title>
<path fill="none" stroke="black" stroke-width="1.5" d="M202.95,-488.61C200.35,-479.8 197.13,-468.93 194.27,-459.26"/>
<polygon fill="black" stroke="black" stroke-width="1.5" points="196.72,-458.28 192.07,-451.83 191.68,-459.77 196.72,-458.28"/>
</g>
<!-- Control Point 2 -->
<g id="node3" class="node">
<title>Control Point 2</title>
<path fill="none" stroke="black" d="M361.38,-451.8C361.38,-451.8 282.69,-451.8 282.69,-451.8 276.69,-451.8 270.69,-445.8 270.69,-439.8 270.69,-439.8 270.69,-427.8 270.69,-427.8 270.69,-421.8 276.69,-415.8 282.69,-415.8 282.69,-415.8 361.38,-415.8 361.38,-415.8 367.38,-415.8 373.38,-421.8 373.38,-427.8 373.38,-427.8 373.38,-439.8 373.38,-439.8 373.38,-445.8 367.38,-451.8 361.38,-451.8"/>
<text text-anchor="middle" x="322.04" y="-429.6" font-family="Times,serif" font-size="14.00">Control Point 2</text>
</g>
<!-- Control Point 1&#45;&gt;Control Point 2 -->
<g id="edge2" class="edge">
<title>Control Point 1:c&#45;&gt;Control Point 2:c</title>
<path fill="none" stroke="#1d76db" stroke-width="2" d="M235.34,-488.79C251.16,-478.94 271.21,-466.46 288.04,-455.97"/>
<polygon fill="#1d76db" stroke="#1d76db" stroke-width="2" points="289.58,-458.11 294.56,-451.91 286.8,-453.65 289.58,-458.11"/>
</g>
<!-- 0x717b20 -->
<g id="node4" class="node">
<title>0x717b20</title>
<ellipse fill="#b8e2f2" stroke="black" cx="174.04" cy="-345" rx="48.07" ry="18"/>
<text text-anchor="middle" x="174.04" y="-340.8" font-family="Times,serif" font-size="14.00">actionA()</text>
</g>
<!-- Control Point 2&#45;&gt;0x717b20 -->
<g id="edge3" class="edge">
<title>Control Point 2:c&#45;&gt;0x717b20:c</title>
<path fill="none" stroke="black" stroke-width="1.5" d="M292.8,-415.65C267.59,-400.87 231.27,-379.57 205.45,-364.42"/>
<polygon fill="black" stroke="black" stroke-width="1.5" points="206.59,-362.05 198.79,-360.52 203.94,-366.58 206.59,-362.05"/>
</g>
<!-- Control Point 3 -->
<g id="node5" class="node">
<title>Control Point 3</title>
<path fill="none" stroke="black" d="M370.38,-363C370.38,-363 291.69,-363 291.69,-363 285.69,-363 279.69,-357 279.69,-351 279.69,-351 279.69,-339 279.69,-339 279.69,-333 285.69,-327 291.69,-327 291.69,-327 370.38,-327 370.38,-327 376.38,-327 382.38,-333 382.38,-339 382.38,-339 382.38,-351 382.38,-351 382.38,-357 376.38,-363 370.38,-363"/>
<text text-anchor="middle" x="331.04" y="-340.8" font-family="Times,serif" font-size="14.00">Control Point 3</text>
</g>
<!-- Control Point 2&#45;&gt;Control Point 3 -->
<g id="edge4" class="edge">
<title>Control Point 2:c&#45;&gt;Control Point 3:c</title>
<path fill="none" stroke="#1d76db" stroke-width="2" d="M323.81,-415.65C325.14,-402.81 326.98,-385.06 328.47,-370.69"/>
<polygon fill="#1d76db" stroke="#1d76db" stroke-width="2" points="331.1,-370.84 329.26,-363.11 325.88,-370.3 331.1,-370.84"/>
</g>
<!-- 0x717b80 -->
<g id="node6" class="node">
<title>0x717b80</title>
<ellipse fill="#b8e2f2" stroke="black" cx="122.04" cy="-164" rx="47.51" ry="18"/>
<text text-anchor="middle" x="122.04" y="-159.8" font-family="Times,serif" font-size="14.00">actionB()</text>
</g>
<!-- 0x717b20&#45;&gt;0x717b80 -->
<g id="edge5" class="edge">
<title>0x717b20:c&#45;&gt;0x717b80:c</title>
<path fill="none" stroke="black" stroke-width="1.5" d="M169.05,-326.84C159.77,-294.89 139.82,-226.24 129.14,-189.45"/>
<polygon fill="black" stroke="black" stroke-width="1.5" points="131.62,-188.58 127.01,-182.11 126.58,-190.05 131.62,-188.58"/>
</g>
<!-- 0x717be0 -->
<g id="node7" class="node">
<title>0x717be0</title>
<ellipse fill="#b8e2f2" stroke="black" cx="225.04" cy="-218" rx="47.51" ry="18"/>
<text text-anchor="middle" x="225.04" y="-213.8" font-family="Times,serif" font-size="14.00">actionC()</text>
</g>
<!-- 0x717b20&#45;&gt;0x717be0 -->
<g id="edge6" class="edge">
<title>0x717b20:c&#45;&gt;0x717be0:c</title>
<path fill="none" stroke="black" stroke-width="1.5" d="M180.91,-327.14C189.73,-305.52 205.09,-267.88 215.16,-243.2"/>
<polygon fill="black" stroke="black" stroke-width="1.5" points="217.7,-243.93 218.1,-235.99 212.84,-241.94 217.7,-243.93"/>
</g>
<!-- 0x717ee0 -->
<g id="node8" class="node">
<title>0x717ee0</title>
<ellipse fill="#b8e2f2" stroke="black" cx="48.04" cy="-272" rx="48.07" ry="18"/>
<text text-anchor="middle" x="48.04" y="-267.8" font-family="Times,serif" font-size="14.00">actionN()</text>
</g>
<!-- 0x717b20&#45;&gt;0x717ee0 -->
<g id="edge7" class="edge">
<title>0x717b20:c&#45;&gt;0x717ee0:c</title>
<path fill="none" stroke="black" stroke-width="1.5" d="M148.54,-329.63C128.81,-318.52 101.37,-303.06 80.15,-291.1"/>
<polygon fill="black" stroke="black" stroke-width="1.5" points="81.32,-288.74 73.5,-287.35 78.74,-293.32 81.32,-288.74"/>
</g>
<!-- Control Point 3&#45;&gt;Control Point 2 -->
<g id="edge12" class="edge">
<title>Control Point 3:e&#45;&gt;Control Point 2:e</title>
<path fill="none" stroke="#1d76db" stroke-width="2" stroke-dasharray="5,2" d="M383.04,-345C420.07,-345 414.68,-422.4 381.53,-432.68"/>
<polygon fill="#1d76db" stroke="#1d76db" stroke-width="2" points="381.06,-430.09 374.04,-433.8 381.84,-435.28 381.06,-430.09"/>
<text text-anchor="middle" x="425.55" y="-385.2" font-family="Times,serif" font-size="14.00"> cycle</text>
</g>
<!-- 0x717d00 -->
<g id="node11" class="node">
<title>0x717d00</title>
<ellipse fill="#4eb2e0" stroke="black" cx="465.04" cy="-272" rx="46.36" ry="18"/>
<text text-anchor="middle" x="465.04" y="-267.8" font-family="Times,serif" font-size="14.00">actionF()</text>
</g>
<!-- Control Point 3&#45;&gt;0x717d00 -->
<g id="edge13" class="edge">
<title>Control Point 3:c&#45;&gt;0x717d00:c</title>
<path fill="none" stroke="black" stroke-width="1.5" d="M363.13,-326.99C383.86,-316.01 410.78,-301.75 431.74,-290.64"/>
<polygon fill="black" stroke="black" stroke-width="1.5" points="433.2,-292.84 438.6,-287.01 430.75,-288.2 433.2,-292.84"/>
</g>
<!-- Control Point 4 -->
<g id="node12" class="node">
<title>Control Point 4</title>
<path fill="none" stroke="black" d="M370.38,-290C370.38,-290 291.69,-290 291.69,-290 285.69,-290 279.69,-284 279.69,-278 279.69,-278 279.69,-266 279.69,-266 279.69,-260 285.69,-254 291.69,-254 291.69,-254 370.38,-254 370.38,-254 376.38,-254 382.38,-260 382.38,-266 382.38,-266 382.38,-278 382.38,-278 382.38,-284 376.38,-290 370.38,-290"/>
<text text-anchor="middle" x="331.04" y="-267.8" font-family="Times,serif" font-size="14.00">Control Point 4</text>
</g>
<!-- Control Point 3&#45;&gt;Control Point 4 -->
<g id="edge14" class="edge">
<title>Control Point 3:c&#45;&gt;Control Point 4:c</title>
<path fill="none" stroke="#1d76db" stroke-width="2" d="M331.04,-326.81C331.04,-318.09 331.04,-307.34 331.04,-297.75"/>
<polygon fill="#1d76db" stroke="#1d76db" stroke-width="2" points="333.66,-297.53 331.04,-290.03 328.41,-297.53 333.66,-297.53"/>
</g>
<!-- 0x717c40 -->
<g id="node9" class="node">
<title>0x717c40</title>
<ellipse fill="#b8e2f2" stroke="black" cx="122.04" cy="-91" rx="48.07" ry="18"/>
<text text-anchor="middle" x="122.04" y="-86.8" font-family="Times,serif" font-size="14.00">actionD()</text>
</g>
<!-- 0x717b80&#45;&gt;0x717c40 -->
<g id="edge8" class="edge">
<title>0x717b80:c&#45;&gt;0x717c40:c</title>
<path fill="none" stroke="black" stroke-width="1.5" d="M122.04,-145.81C122.04,-137.09 122.04,-126.34 122.04,-116.75"/>
<polygon fill="black" stroke="black" stroke-width="1.5" points="124.66,-116.53 122.04,-109.03 119.41,-116.53 124.66,-116.53"/>
</g>
<!-- 0x717ca0 -->
<g id="node10" class="node">
<title>0x717ca0</title>
<ellipse fill="#b8e2f2" stroke="black" cx="173.04" cy="-18" rx="46.93" ry="18"/>
<text text-anchor="middle" x="173.04" y="-13.8" font-family="Times,serif" font-size="14.00">actionE()</text>
</g>
<!-- 0x717be0&#45;&gt;0x717ca0 -->
<g id="edge9" class="edge">
<title>0x717be0:c&#45;&gt;0x717ca0:c</title>
<path fill="none" stroke="black" stroke-width="1.5" d="M220.7,-199.68C213.9,-172.61 200.23,-118.63 188.04,-73 185.44,-63.31 182.51,-52.66 179.92,-43.4"/>
<polygon fill="black" stroke="black" stroke-width="1.5" points="182.4,-42.52 177.85,-36 177.34,-43.93 182.4,-42.52"/>
</g>
<!-- 0x717ee0&#45;&gt;0x717b80 -->
<g id="edge11" class="edge">
<title>0x717ee0:c&#45;&gt;0x717b80:c</title>
<path fill="none" stroke="black" stroke-width="1.5" d="M59.6,-254.44C72.07,-236.57 92.01,-208.01 106,-187.97"/>
<polygon fill="black" stroke="black" stroke-width="1.5" points="108.17,-189.45 110.31,-181.8 103.86,-186.44 108.17,-189.45"/>
</g>
<!-- 0x717c40&#45;&gt;0x717ca0 -->
<g id="edge10" class="edge">
<title>0x717c40:c&#45;&gt;0x717ca0:c</title>
<path fill="none" stroke="black" stroke-width="1.5" d="M133.86,-73.53C140.59,-64.17 149.12,-52.3 156.5,-42.02"/>
<polygon fill="black" stroke="black" stroke-width="1.5" points="158.67,-43.49 160.92,-35.87 154.41,-40.43 158.67,-43.49"/>
</g>
<!-- 0x717d60 -->
<g id="node13" class="node">
<title>0x717d60</title>
<ellipse fill="#4eb2e0" stroke="black" cx="464.04" cy="-164" rx="48.07" ry="18"/>
<text text-anchor="middle" x="464.04" y="-159.8" font-family="Times,serif" font-size="14.00">actionG()</text>
</g>
<!-- 0x717d00&#45;&gt;0x717d60 -->
<g id="edge15" class="edge">
<title>0x717d00:c&#45;&gt;0x717d60:c</title>
<path fill="none" stroke="black" stroke-width="1.5" d="M464.87,-253.97C464.71,-236.69 464.46,-209.74 464.27,-190.03"/>
<polygon fill="black" stroke="black" stroke-width="1.5" points="466.89,-189.82 464.2,-182.34 461.64,-189.87 466.89,-189.82"/>
</g>
<!-- 0x717dc0 -->
<g id="node14" class="node">
<title>0x717dc0</title>
<ellipse fill="#4eb2e0" stroke="black" cx="596.04" cy="-164" rx="48.07" ry="18"/>
<text text-anchor="middle" x="596.04" y="-159.8" font-family="Times,serif" font-size="14.00">actionH()</text>
</g>
<!-- 0x717d00&#45;&gt;0x717dc0 -->
<g id="edge16" class="edge">
<title>0x717d00:c&#45;&gt;0x717dc0:c</title>
<path fill="none" stroke="black" stroke-width="1.5" d="M484.36,-255.36C507.2,-236.88 545.26,-206.09 570.5,-185.66"/>
<polygon fill="black" stroke="black" stroke-width="1.5" points="572.45,-187.46 576.63,-180.7 569.14,-183.38 572.45,-187.46"/>
</g>
<!-- 0x717e80 -->
<g id="node16" class="node">
<title>0x717e80</title>
<ellipse fill="#9dd9f3" stroke="black" cx="331.04" cy="-164" rx="48.07" ry="18"/>
<text text-anchor="middle" x="331.04" y="-159.8" font-family="Times,serif" font-size="14.00">actionY()</text>
</g>
<!-- Control Point 4&#45;&gt;0x717e80 -->
<g id="edge19" class="edge">
<title>Control Point 4:c&#45;&gt;0x717e80:c</title>
<path fill="none" stroke="black" stroke-width="1.5" d="M331.04,-253.97C331.04,-236.69 331.04,-209.74 331.04,-190.03"/>
<polygon fill="black" stroke="black" stroke-width="1.5" points="333.66,-189.84 331.04,-182.34 328.41,-189.84 333.66,-189.84"/>
</g>
<!-- 0x717e20 -->
<g id="node15" class="node">
<title>0x717e20</title>
<ellipse fill="#4eb2e0" stroke="black" cx="530.04" cy="-91" rx="44.06" ry="18"/>
<text text-anchor="middle" x="530.04" y="-86.8" font-family="Times,serif" font-size="14.00">actionI()</text>
</g>
<!-- 0x717d60&#45;&gt;0x717e20 -->
<g id="edge17" class="edge">
<title>0x717d60:c&#45;&gt;0x717e20:c</title>
<path fill="none" stroke="black" stroke-width="1.5" d="M479.01,-146.89C488.13,-137.08 499.88,-124.43 509.82,-113.75"/>
<polygon fill="black" stroke="black" stroke-width="1.5" points="511.93,-115.33 515.12,-108.05 508.09,-111.75 511.93,-115.33"/>
</g>
<!-- 0x717dc0&#45;&gt;0x717e20 -->
<g id="edge18" class="edge">
<title>0x717dc0:c&#45;&gt;0x717e20:c</title>
<path fill="none" stroke="black" stroke-width="1.5" d="M581.06,-146.89C571.95,-137.08 560.19,-124.43 550.25,-113.75"/>
<polygon fill="black" stroke="black" stroke-width="1.5" points="551.98,-111.75 544.95,-108.05 548.14,-115.33 551.98,-111.75"/>
</g>
</g>
</svg>
