<?xml version="1.0" encoding="UTF-8" standalone="no"?>
<!DOCTYPE svg PUBLIC "-//W3C//DTD SVG 1.1//EN"
 "http://www.w3.org/Graphics/SVG/1.1/DTD/svg11.dtd">
<!-- Generated by graphviz version 8.0.5 (0)
 -->
<!-- Title: graph Pages: 1 -->
<svg width="652pt" height="533pt"
 viewBox="0.00 0.00 652.08 532.80" xmlns="http://www.w3.org/2000/svg" xmlns:xlink="http://www.w3.org/1999/xlink">
<g id="graph0" class="graph" transform="scale(1 1) rotate(0) translate(4 528.8)">
<title>graph</title>
<polygon fill="white" stroke="none" points="-4,4 -4,-528.8 648.08,-528.8 648.08,4 -4,4"/>
<!-- Control Point 1 -->
<g id="node1" class="node">
<title>Control Point 1</title>
<path fill="none" stroke="black" d="M247.21,-524.8C247.21,-524.8 168.87,-524.8 168.87,-524.8 162.87,-524.8 156.87,-518.8 156.87,-512.8 156.87,-512.8 156.87,-500.8 156.87,-500.8 156.87,-494.8 162.87,-488.8 168.87,-488.8 168.87,-488.8 247.21,-488.8 247.21,-488.8 253.21,-488.8 259.21,-494.8 259.21,-500.8 259.21,-500.8 259.21,-512.8 259.21,-512.8 259.21,-518.8 253.21,-524.8 247.21,-524.8"/>
<text text-anchor="middle" x="208.04" y="-502.6" font-family="Times,serif" font-size="14.00">Control Point 1</text>
</g>
<!-- 0x717ac0 -->
<g id="node2" class="node">
<title>0x717ac0</title>
<ellipse fill="#77c3ec" stroke="black" cx="187.04" cy="-433.8" rx="48.04" ry="18"/>
<text text-anchor="middle" x="187.04" y="-429.6" font-family="Times,serif" font-size="14.00">actionX()</text>
</g>
<!-- Control Point 1&#45;&gt;0x717ac0 -->
<g id="edge1" class="edge">
<title>Control Point 1:c&#45;&gt;0x717ac0:c</title>
<path fill="none" stroke="black" stroke-width="1.5" d="M202.95,-488.61C200.48,-480.24 197.45,-470 194.7,-460.7"/>
<polygon fill="black" stroke="black" stroke-width="1.5" points="196.72,-460.28 192.07,-453.83 191.68,-461.77 196.72,-460.28"/>
</g>
<!-- Control Point 2 -->
<g id="node3" class="node">
<title>Control Point 2</title>
<path fill="none" stroke="black" d="M361.21,-451.8C361.21,-451.8 282.87,-451.8 282.87,-451.8 276.87,-451.8 270.87,-445.8 270.87,-439.8 270.87,-439.8 270.87,-427.8 270.87,-427.8 270.87,-421.8 276.87,-415.8 282.87,-415.8 282.87,-415.8 361.21,-415.8 361.21,-415.8 367.21,-415.8 373.21,-421.8 373.21,-427.8 373.21,-427.8 373.21,-439.8 373.21,-439.8 373.21,-445.8 367.21,-451.8 361.21,-451.8"/>
<text text-anchor="middle" x="322.04" y="-429.6" font-family="Times,serif" font-size="14.00">Control Point 2</text>
</g>
<!-- Control Point 1&#45;&gt;Control Point 2 -->
<g id="edge2" class="edge">
<title>Control Point 1:c&#45;&gt;Control Point 2:c</title>
<path fill="none" stroke="#1d76db" stroke-width="2" d="M235.93,-488.43C251.38,-478.8 270.74,-466.75 287.19,-456.5"/>
<polygon fill="#1d76db" stroke="#1d76db" stroke-width="2" points="287.06,-459.43 292.04,-453.24 284.29,-454.97 287.06,-459.43"/>
</g>
<!-- 0x717b20 -->
<g id="node4" class="node">
<title>0x717b20</title>
<ellipse fill="#b8e2f2" stroke="black" cx="174.04" cy="-345" rx="48.04" ry="18"/>
<text text-anchor="middle" x="174.04" y="-340.8" font-family="Times,serif" font-size="14.00">actionA()</text>
</g>
<!-- Control Point 2&#45;&gt;0x717b20 -->
<g id="edge3" class="edge">
<title>Control Point 2:c&#45;&gt;0x717b20:c</title>
<path fill="none" stroke="black" stroke-width="1.5" d="M292.44,-415.44C267.78,-400.98 232.68,-380.39 207.1,-365.39"/>
<polygon fill="black" stroke="black" stroke-width="1.5" points="207.95,-363.26 200.15,-361.73 205.29,-367.79 207.95,-363.26"/>
</g>
<!-- Control Point 3 -->
<g id="node5" class="node">
<title>Control Point 3</title>
<path fill="none" stroke="black" d="M370.21,-363C370.21,-363 291.87,-363 291.87,-363 285.87,-363 279.87,-357 279.87,-351 279.87,-351 279.87,-339 279.87,-339 279.87,-333 285.87,-327 291.87,-327 291.87,-327 370.21,-327 370.21,-327 376.21,-327 382.21,-333 382.21,-339 382.21,-339 382.21,-351 382.21,-351 382.21,-357 376.21,-363 370.21,-363"/>
<text text-anchor="middle" x="331.04" y="-340.8" font-family="Times,serif" font-size="14.00">Control Point 3</text>
</g>
<!-- Control Point 2&#45;&gt;Control Point 3 -->
<g id="edge4" class="edge">
<title>Control Point 2:c&#45;&gt;Control Point 3:c</title>
<path fill="none" stroke="#1d76db" stroke-width="2" d="M323.82,-415.65C325.11,-403.13 326.9,-385.94 328.37,-371.77"/>
<polygon fill="#1d76db" stroke="#1d76db" stroke-width="2" points="331.07,-374.14 329.23,-366.41 325.85,-373.6 331.07,-374.14"/>
</g>
<!-- 0x717b80 -->
<g id="node6" class="node">
<title>0x717b80</title>
<ellipse fill="#b8e2f2" stroke="black" cx="122.04" cy="-164" rx="47.5" ry="18"/>
<text text-anchor="middle" x="122.04" y="-159.8" font-family="Times,serif" font-size="14.00">actionB()</text>
</g>
<!-- 0x717b20&#45;&gt;0x717b80 -->
<g id="edge5" class="edge">
<title>0x717b20:c&#45;&gt;0x717b80:c</title>
<path fill="none" stroke="black" stroke-width="1.5" d="M169.05,-326.84C159.91,-295.38 140.43,-228.3 129.63,-191.14"/>
<polygon fill="black" stroke="black" stroke-width="1.5" points="131.7,-190.84 127.08,-184.37 126.66,-192.31 131.7,-190.84"/>
</g>
<!-- 0x717be0 -->
<g id="node7" class="node">
<title>0x717be0</title>
<ellipse fill="#b8e2f2" stroke="black" cx="225.04" cy="-218" rx="47.5" ry="18"/>
<text text-anchor="middle" x="225.04" y="-213.8" font-family="Times,serif" font-size="14.00">actionC()</text>
</g>
<!-- 0x717b20&#45;&gt;0x717be0 -->
<g id="edge6" class="edge">
<title>0x717b20:c&#45;&gt;0x717be0:c</title>
<path fill="none" stroke="black" stroke-width="1.5" d="M181.02,-326.88C189.68,-305.66 204.52,-269.28 214.55,-244.7"/>
<polygon fill="black" stroke="black" stroke-width="1.5" points="217.73,-245.85 218.14,-237.91 212.87,-243.86 217.73,-245.85"/>
</g>
<!-- 0x717ee0 -->
<g id="node8" class="node">
<title>0x717ee0</title>
<ellipse fill="#b8e2f2" stroke="black" cx="48.04" cy="-272" rx="48.04" ry="18"/>
<text text-anchor="middle" x="48.04" y="-267.8" font-family="Times,serif" font-size="14.00">actionN()</text>
</g>
<!-- 0x717b20&#45;&gt;0x717ee0 -->
<g id="edge7" class="edge">
<title>0x717b20:c&#45;&gt;0x717ee0:c</title>
<path fill="none" stroke="black" stroke-width="1.5" d="M148.24,-329.46C129.13,-318.69 102.9,-303.91 82.07,-292.18"/>
<polygon fill="black" stroke="black" stroke-width="1.5" points="82.63,-289.91 74.81,-288.52 80.05,-294.49 82.63,-289.91"/>
</g>
<!-- Control Point 3&#45;&gt;Control Point 2 -->
<g id="edge12" class="edge">
<title>Control Point 3:e&#45;&gt;Control Point 2:e</title>
<path fill="none" stroke="#1d76db" stroke-width="2" stroke-dasharray="5,2" d="M383.04,-345C419.76,-345 414.77,-421.11 382.36,-432.41"/>
<polygon fill="#1d76db" stroke="#1d76db" stroke-width="2" points="383,-429.97 376.04,-433.8 383.87,-435.15 383,-429.97"/>
<text text-anchor="middle" x="425.55" y="-385.2" font-family="Times,serif" font-size="14.00"> cycle</text>
</g>
<!-- 0x717d00 -->
<g id="node11" class="node">
<title>0x717d00</title>
<ellipse fill="#4eb2e0" stroke="black" cx="465.04" cy="-272" rx="46.43" ry="18"/>
<text text-anchor="middle" x="465.04" y="-267.8" font-family="Times,serif" font-size="14.00">actionF()</text>
</g>
<!-- Control Point 3&#45;&gt;0x717d00 -->
<g id="edge13" class="edge">
<title>Control Point 3:c&#45;&gt;0x717d00:c</title>
<path fill="none" stroke="black" stroke-width="1.5" d="M363.82,-326.63C383.97,-315.95 409.78,-302.28 430.29,-291.41"/>
<polygon fill="black" stroke="black" stroke-width="1.5" points="431.04,-293.92 436.44,-288.09 428.58,-289.29 431.04,-293.92"/>
</g>
<!-- Control Point 4 -->
<g id="node12" class="node">
<title>Control Point 4</title>
<path fill="none" stroke="black" d="M370.21,-290C370.21,-290 291.87,-290 291.87,-290 285.87,-290 279.87,-284 279.87,-278 279.87,-278 279.87,-266 279.87,-266 279.87,-260 285.87,-254 291.87,-254 291.87,-254 370.21,-254 370.21,-254 376.21,-254 382.21,-260 382.21,-266 382.21,-266 382.21,-278 382.21,-278 382.21,-284 376.21,-290 370.21,-290"/>
<text text-anchor="middle" x="331.04" y="-267.8" font-family="Times,serif" font-size="14.00">Control Point 4</text>
</g>
<!-- Control Point 3&#45;&gt;Control Point 4 -->
<g id="edge14" class="edge">
<title>Control Point 3:c&#45;&gt;Control Point 4:c</title>
<path fill="none" stroke="#1d76db" stroke-width="2" d="M331.04,-326.81C331.04,-318.27 331.04,-307.77 331.04,-298.32"/>
<polygon fill="#1d76db" stroke="#1d76db" stroke-width="2" points="333.66,-300.53 331.04,-293.03 328.41,-300.53 333.66,-300.53"/>
</g>
<!-- 0x717c40 -->
<g id="node9" class="node">
<title>0x717c40</title>
<ellipse fill="#b8e2f2" stroke="black" cx="122.04" cy="-91" rx="48.04" ry="18"/>
<text text-anchor="middle" x="122.04" y="-86.8" font-family="Times,serif" font-size="14.00">actionD()</text>
</g>
<!-- 0x717b80&#45;&gt;0x717c40 -->
<g id="edge8" class="edge">
<title>0x717b80:c&#45;&gt;0x717c40:c</title>
<path fill="none" stroke="black" stroke-width="1.5" d="M122.04,-145.81C122.04,-137.62 122.04,-127.62 122.04,-118.48"/>
<polygon fill="black" stroke="black" stroke-width="1.5" points="124.66,-118.53 122.04,-111.03 119.41,-118.53 124.66,-118.53"/>
</g>
<!-- 0x717ca0 -->
<g id="node10" class="node">
<title>0x717ca0</title>
<ellipse fill="#b8e2f2" stroke="black" cx="173.04" cy="-18" rx="46.96" ry="18"/>
<text text-anchor="middle" x="173.04" y="-13.8" font-family="Times,serif" font-size="14.00">actionE()</text>
</g>
<!-- 0x717be0&#45;&gt;0x717ca0 -->
<g id="edge9" class="edge">
<title>0x717be0:c&#45;&gt;0x717ca0:c</title>
<path fill="none" stroke="black" stroke-width="1.5" d="M220.7,-199.68C213.9,-172.61 200.24,-118.63 188.04,-73 185.6,-63.89 182.86,-53.93 180.39,-45.08"/>
<polygon fill="black" stroke="black" stroke-width="1.5" points="182.4,-44.52 177.85,-38 177.34,-45.93 182.4,-44.52"/>
</g>
<!-- 0x717ee0&#45;&gt;0x717b80 -->
<g id="edge11" class="edge">
<title>0x717ee0:c&#45;&gt;0x717b80:c</title>
<path fill="none" stroke="black" stroke-width="1.5" d="M59.6,-254.44C71.75,-237.04 90.98,-209.48 104.9,-189.55"/>
<polygon fill="black" stroke="black" stroke-width="1.5" points="107.17,-190.45 109.31,-182.8 102.87,-187.44 107.17,-190.45"/>
</g>
<!-- 0x717c40&#45;&gt;0x717ca0 -->
<g id="edge10" class="edge">
<title>0x717c40:c&#45;&gt;0x717ca0:c</title>
<path fill="none" stroke="black" stroke-width="1.5" d="M134.12,-73.17C140.54,-64.24 148.54,-53.11 155.61,-43.26"/>
<polygon fill="black" stroke="black" stroke-width="1.5" points="157.79,-44.33 160.04,-36.71 153.53,-41.27 157.79,-44.33"/>
</g>
<!-- 0x717d60 -->
<g id="node13" class="node">
<title>0x717d60</title>
<ellipse fill="#4eb2e0" stroke="black" cx="464.04" cy="-164" rx="48.04" ry="18"/>
<text text-anchor="middle" x="464.04" y="-159.8" font-family="Times,serif" font-size="14.00">actionG()</text>
</g>
<!-- 0x717d00&#45;&gt;0x717d60 -->
<g id="edge15" class="edge">
<title>0x717d00:c&#45;&gt;0x717d60:c</title>
<path fill="none" stroke="black" stroke-width="1.5" d="M464.88,-253.97C464.72,-237.15 464.47,-211.17 464.29,-191.62"/>
<polygon fill="black" stroke="black" stroke-width="1.5" points="466.9,-191.82 464.2,-184.34 461.65,-191.87 466.9,-191.82"/>
</g>
<!-- 0x717dc0 -->
<g id="node14" class="node">
<title>0x717dc0</title>
<ellipse fill="#4eb2e0" stroke="black" cx="596.04" cy="-164" rx="48.04" ry="18"/>
<text text-anchor="middle" x="596.04" y="-159.8" font-family="Times,serif" font-size="14.00">actionH()</text>
</g>
<!-- 0x717d00&#45;&gt;0x717dc0 -->
<g id="edge16" class="edge">
<title>0x717d00:c&#45;&gt;0x717dc0:c</title>
<path fill="none" stroke="black" stroke-width="1.5" d="M484.37,-255.36C506.91,-237.12 544.3,-206.87 569.54,-186.44"/>
<polygon fill="black" stroke="black" stroke-width="1.5" points="571.45,-188.46 575.63,-181.7 568.15,-184.38 571.45,-188.46"/>
</g>
<!-- 0x717e80 -->
<g id="node16" class="node">
<title>0x717e80</title>
<ellipse fill="#9dd9f3" stroke="black" cx="331.04" cy="-164" rx="48.04" ry="18"/>
<text text-anchor="middle" x="331.04" y="-159.8" font-family="Times,serif" font-size="14.00">actionY()</text>
</g>
<!-- Control Point 4&#45;&gt;0x717e80 -->
<g id="edge19" class="edge">
<title>Control Point 4:c&#45;&gt;0x717e80:c</title>
<path fill="none" stroke="black" stroke-width="1.5" d="M331.04,-253.97C331.04,-237.15 331.04,-211.17 331.04,-191.62"/>
<polygon fill="black" stroke="black" stroke-width="1.5" points="333.66,-191.84 331.04,-184.34 328.41,-191.84 333.66,-191.84"/>
</g>
<!-- 0x717e20 -->
<g id="node15" class="node">
<title>0x717e20</title>
<ellipse fill="#4eb2e0" stroke="black" cx="530.04" cy="-91" rx="44.28" ry="18"/>
<text text-anchor="middle" x="530.04" y="-86.8" font-family="Times,serif" font-size="14.00">actionI()</text>
</g>
<!-- 0x717d60&#45;&gt;0x717e20 -->
<g id="edge17" class="edge">
<title>0x717d60:c&#45;&gt;0x717e20:c</title>
<path fill="none" stroke="black" stroke-width="1.5" d="M479.35,-146.53C488.01,-137.21 498.98,-125.41 508.5,-115.17"/>
<polygon fill="black" stroke="black" stroke-width="1.5" points="510.63,-116.66 513.81,-109.38 506.78,-113.08 510.63,-116.66"/>
</g>
<!-- 0x717dc0&#45;&gt;0x717e20 -->
<g id="edge18" class="edge">
<title>0x717dc0:c&#45;&gt;0x717e20:c</title>
<path fill="none" stroke="black" stroke-width="1.5" d="M580.73,-146.53C572.07,-137.21 561.09,-125.41 551.57,-115.17"/>
<polygon fill="black" stroke="black" stroke-width="1.5" points="553.29,-113.08 546.26,-109.38 549.45,-116.66 553.29,-113.08"/>
</g>
</g>
</svg>
