<?xml version="1.0" encoding="UTF-8" standalone="no"?>
<!DOCTYPE svg PUBLIC "-//W3C//DTD SVG 1.1//EN"
 "http://www.w3.org/Graphics/SVG/1.1/DTD/svg11.dtd">
<!-- Generated by graphviz version 8.0.5 (0)
 -->
<!-- Title: graph Pages: 1 -->
<svg width="508pt" height="332pt"
 viewBox="0.00 0.00 508.49 332.00" xmlns="http://www.w3.org/2000/svg" xmlns:xlink="http://www.w3.org/1999/xlink">
<g id="graph0" class="graph" transform="scale(1 1) rotate(0) translate(4 328)">
<title>graph</title>
<polygon fill="white" stroke="none" points="-4,4 -4,-328 504.49,-328 504.49,4 -4,4"/>
<!-- initialize -->
<g id="node1" class="node">
<title>initialize</title>
<path fill="none" stroke="black" d="M192.13,-324C192.13,-324 151.15,-324 151.15,-324 145.15,-324 139.15,-318 139.15,-312 139.15,-312 139.15,-300 139.15,-300 139.15,-294 145.15,-288 151.15,-288 151.15,-288 192.13,-288 192.13,-288 198.13,-288 204.13,-294 204.13,-300 204.13,-300 204.13,-312 204.13,-312 204.13,-318 198.13,-324 192.13,-324"/>
<text text-anchor="middle" x="171.64" y="-301.8" font-family="Times,serif" font-size="14.00">initialize</text>
</g>
<!-- 0x7a51e0 -->
<g id="node2" class="node">
<title>0x7a51e0</title>
<ellipse fill="#b8e2f2" stroke="black" cx="97.64" cy="-234" rx="79.68" ry="18"/>
<text text-anchor="middle" x="97.64" y="-229.8" font-family="Times,serif" font-size="14.00">initialize_action()</text>
</g>
<!-- initialize&#45;&gt;0x7a51e0 -->
<g id="edge1" class="edge">
<title>initialize:c&#45;&gt;0x7a51e0:c</title>
<path fill="none" stroke="black" stroke-width="1.5" d="M153.35,-287.7C143.96,-278.81 132.39,-267.87 122.23,-258.26"/>
<polygon fill="black" stroke="black" stroke-width="1.5" points="123.72,-256.11 116.47,-252.86 120.11,-259.92 123.72,-256.11"/>
</g>
<!-- mul_add -->
<g id="node3" class="node">
<title>mul_add</title>
<path fill="none" stroke="black" d="M287.14,-252C287.14,-252 246.15,-252 246.15,-252 240.15,-252 234.15,-246 234.15,-240 234.15,-240 234.15,-228 234.15,-228 234.15,-222 240.15,-216 246.15,-216 246.15,-216 287.14,-216 287.14,-216 293.14,-216 299.14,-222 299.14,-228 299.14,-228 299.14,-240 299.14,-240 299.14,-246 293.14,-252 287.14,-252"/>
<text text-anchor="middle" x="266.64" y="-229.8" font-family="Times,serif" font-size="14.00">mul_add</text>
</g>
<!-- initialize&#45;&gt;mul_add -->
<g id="edge2" class="edge">
<title>initialize:c&#45;&gt;mul_add:c</title>
<path fill="none" stroke="#1d76db" stroke-width="2" d="M195.12,-287.7C207.57,-278.53 223,-267.16 236.34,-257.33"/>
<polygon fill="#1d76db" stroke="#1d76db" stroke-width="2" points="236.62,-259.91 241.1,-253.35 233.5,-255.68 236.62,-259.91"/>
</g>
<!-- init_vec_task -->
<g id="node7" class="node">
<title>init_vec_task</title>
<polygon fill="#f0fff0" stroke="black" points="151.28,-180 0,-180 0,-144 151.28,-144 151.28,-180"/>
<text text-anchor="middle" x="75.64" y="-157.8" font-family="Times,serif" font-size="14.00">initialize_vectors_task()</text>
</g>
<!-- 0x7a51e0&#45;&gt;init_vec_task -->
<g id="edge6" class="edge">
<title>0x7a51e0:c&#45;&gt;init_vec_task:c</title>
<path fill="none" stroke="orange" stroke-width="1.5" d="M92.2,-215.7C89.67,-207.64 86.61,-197.89 83.81,-188.98"/>
<polygon fill="orange" stroke="orange" stroke-width="1.5" points="85.77,-188.47 81.02,-182.1 80.76,-190.05 85.77,-188.47"/>
</g>
<!-- 0x7a5240 -->
<g id="node4" class="node">
<title>0x7a5240</title>
<ellipse fill="#b8e2f2" stroke="black" cx="266.64" cy="-162" rx="79.69" ry="18"/>
<text text-anchor="middle" x="266.64" y="-157.8" font-family="Times,serif" font-size="14.00">mul_add_action()</text>
</g>
<!-- mul_add&#45;&gt;0x7a5240 -->
<g id="edge3" class="edge">
<title>mul_add:c&#45;&gt;0x7a5240:c</title>
<path fill="none" stroke="black" stroke-width="1.5" d="M266.64,-215.7C266.64,-207.81 266.64,-198.3 266.64,-189.55"/>
<polygon fill="black" stroke="black" stroke-width="1.5" points="269.27,-189.6 266.64,-182.1 264.02,-189.6 269.27,-189.6"/>
</g>
<!-- finalize -->
<g id="node5" class="node">
<title>finalize</title>
<path fill="none" stroke="black" d="M437.63,-180C437.63,-180 403.66,-180 403.66,-180 397.66,-180 391.66,-174 391.66,-168 391.66,-168 391.66,-156 391.66,-156 391.66,-150 397.66,-144 403.66,-144 403.66,-144 437.63,-144 437.63,-144 443.63,-144 449.63,-150 449.63,-156 449.63,-156 449.63,-168 449.63,-168 449.63,-174 443.63,-180 437.63,-180"/>
<text text-anchor="middle" x="420.64" y="-157.8" font-family="Times,serif" font-size="14.00">finalize</text>
</g>
<!-- mul_add&#45;&gt;finalize -->
<g id="edge4" class="edge">
<title>mul_add:c&#45;&gt;finalize:c</title>
<path fill="none" stroke="#1d76db" stroke-width="2" d="M299.3,-218.15C324.03,-206.92 358,-191.47 383.71,-179.79"/>
<polygon fill="#1d76db" stroke="#1d76db" stroke-width="2" points="383.67,-182.78 389.41,-177.29 381.5,-178 383.67,-182.78"/>
</g>
<!-- mul_add_task -->
<g id="node8" class="node">
<title>mul_add_task</title>
<polygon fill="#f0fff0" stroke="black" points="314.58,-108 210.71,-108 210.71,-72 314.58,-72 314.58,-108"/>
<text text-anchor="middle" x="262.64" y="-85.8" font-family="Times,serif" font-size="14.00">mul_add_task()</text>
</g>
<!-- 0x7a5240&#45;&gt;mul_add_task -->
<g id="edge7" class="edge">
<title>0x7a5240:c&#45;&gt;mul_add_task:c</title>
<path fill="none" stroke="orange" stroke-width="1.5" d="M265.65,-143.7C265.2,-135.81 264.66,-126.3 264.16,-117.55"/>
<polygon fill="orange" stroke="orange" stroke-width="1.5" points="266.67,-117.44 263.62,-110.1 261.43,-117.74 266.67,-117.44"/>
</g>
<!-- 0x7a52a0 -->
<g id="node6" class="node">
<title>0x7a52a0</title>
<ellipse fill="#b8e2f2" stroke="black" cx="425.64" cy="-90" rx="74.84" ry="18"/>
<text text-anchor="middle" x="425.64" y="-85.8" font-family="Times,serif" font-size="14.00">finalize_action()</text>
</g>
<!-- finalize&#45;&gt;0x7a52a0 -->
<g id="edge5" class="edge">
<title>finalize:c&#45;&gt;0x7a52a0:c</title>
<path fill="none" stroke="black" stroke-width="1.5" d="M421.88,-143.7C422.44,-135.81 423.12,-126.3 423.75,-117.55"/>
<polygon fill="black" stroke="black" stroke-width="1.5" points="426.5,-117.77 424.42,-110.1 421.27,-117.4 426.5,-117.77"/>
</g>
<!-- reduce_y_task -->
<g id="node9" class="node">
<title>reduce_y_task</title>
<polygon fill="#f0fff0" stroke="black" points="478.73,-36 372.55,-36 372.55,0 478.73,0 478.73,-36"/>
<text text-anchor="middle" x="425.64" y="-13.8" font-family="Times,serif" font-size="14.00">reduce_y_task()</text>
</g>
<!-- 0x7a52a0&#45;&gt;reduce_y_task -->
<g id="edge8" class="edge">
<title>0x7a52a0:c&#45;&gt;reduce_y_task:c</title>
<path fill="none" stroke="orange" stroke-width="1.5" d="M425.64,-71.7C425.64,-63.81 425.64,-54.3 425.64,-45.55"/>
<polygon fill="orange" stroke="orange" stroke-width="1.5" points="428.27,-45.6 425.64,-38.1 423.02,-45.6 428.27,-45.6"/>
</g>
</g>
</svg>
