<?xml version="1.0" encoding="UTF-8" standalone="no"?>
<!DOCTYPE svg PUBLIC "-//W3C//DTD SVG 1.1//EN"
 "http://www.w3.org/Graphics/SVG/1.1/DTD/svg11.dtd">
<!-- Generated by graphviz version 2.49.0 (0)
 -->
<!-- Title: graph Pages: 1 -->
<svg width="508pt" height="332pt"
 viewBox="0.00 0.00 508.49 332.00" xmlns="http://www.w3.org/2000/svg" xmlns:xlink="http://www.w3.org/1999/xlink">
<g id="graph0" class="graph" transform="scale(1 1) rotate(0) translate(4 328)">
<title>graph</title>
<polygon fill="white" stroke="transparent" points="-4,4 -4,-328 504.49,-328 504.49,4 -4,4"/>
<!-- initialize -->
<g id="node1" class="node">
<title>initialize</title>
<path fill="none" stroke="black" d="M192.13,-324C192.13,-324 151.15,-324 151.15,-324 145.15,-324 139.15,-318 139.15,-312 139.15,-312 139.15,-300 139.15,-300 139.15,-294 145.15,-288 151.15,-288 151.15,-288 192.13,-288 192.13,-288 198.13,-288 204.13,-294 204.13,-300 204.13,-300 204.13,-312 204.13,-312 204.13,-318 198.13,-324 192.13,-324"/>
<text text-anchor="middle" x="171.64" y="-301.8" font-family="Times,serif" font-size="14.00">initialize</text>
</g>
<!-- 0x7a51e0 -->
<g id="node2" class="node">
<title>0x7a51e0</title>
<ellipse fill="#b8e2f2" stroke="black" cx="97.64" cy="-234" rx="79.87" ry="18"/>
<text text-anchor="middle" x="97.64" y="-229.8" font-family="Times,serif" font-size="14.00">initialize_action()</text>
</g>
<!-- initialize&#45;&gt;0x7a51e0 -->
<g id="edge1" class="edge">
<title>initialize:c&#45;&gt;0x7a51e0:c</title>
<path fill="none" stroke="black" stroke-width="1.5" d="M153.35,-287.7C143.53,-278.41 131.32,-266.86 120.83,-256.94"/>
<polygon fill="black" stroke="black" stroke-width="1.5" points="122.47,-254.87 115.21,-251.62 118.86,-258.68 122.47,-254.87"/>
</g>
<!-- mul_add -->
<g id="node3" class="node">
<title>mul_add</title>
<path fill="none" stroke="black" d="M287.14,-252C287.14,-252 246.15,-252 246.15,-252 240.15,-252 234.15,-246 234.15,-240 234.15,-240 234.15,-228 234.15,-228 234.15,-222 240.15,-216 246.15,-216 246.15,-216 287.14,-216 287.14,-216 293.14,-216 299.14,-222 299.14,-228 299.14,-228 299.14,-240 299.14,-240 299.14,-246 293.14,-252 287.14,-252"/>
<text text-anchor="middle" x="266.64" y="-229.8" font-family="Times,serif" font-size="14.00">mul_add</text>
</g>
<!-- initialize&#45;&gt;mul_add -->
<g id="edge2" class="edge">
<title>initialize:c&#45;&gt;mul_add:c</title>
<path fill="none" stroke="#1d76db" stroke-width="2" d="M195.12,-287.7C207.89,-278.29 223.81,-266.56 237.38,-256.56"/>
<polygon fill="#1d76db" stroke="#1d76db" stroke-width="2" points="238.95,-258.67 243.43,-252.1 235.83,-254.44 238.95,-258.67"/>
</g>
<!-- init_vec_task -->
<g id="node7" class="node">
<title>init_vec_task</title>
<polygon fill="#f0fff0" stroke="black" points="151.43,-180 -0.14,-180 -0.14,-144 151.43,-144 151.43,-180"/>
<text text-anchor="middle" x="75.64" y="-157.8" font-family="Times,serif" font-size="14.00">initialize_vectors_task()</text>
</g>
<!-- 0x7a51e0&#45;&gt;init_vec_task -->
<g id="edge6" class="edge">
<title>0x7a51e0:c&#45;&gt;init_vec_task:c</title>
<path fill="none" stroke="orange" stroke-width="1.5" d="M92.2,-215.7C89.51,-207.14 86.22,-196.66 83.28,-187.3"/>
<polygon fill="orange" stroke="orange" stroke-width="1.5" points="85.77,-186.47 81.02,-180.1 80.76,-188.05 85.77,-186.47"/>
</g>
<!-- 0x7a5240 -->
<g id="node4" class="node">
<title>0x7a5240</title>
<ellipse fill="#b8e2f2" stroke="black" cx="266.64" cy="-162" rx="79.88" ry="18"/>
<text text-anchor="middle" x="266.64" y="-157.8" font-family="Times,serif" font-size="14.00">mul_add_action()</text>
</g>
<!-- mul_add&#45;&gt;0x7a5240 -->
<g id="edge3" class="edge">
<title>mul_add:c&#45;&gt;0x7a5240:c</title>
<path fill="none" stroke="black" stroke-width="1.5" d="M266.64,-215.7C266.64,-207.3 266.64,-197.07 266.64,-187.86"/>
<polygon fill="black" stroke="black" stroke-width="1.5" points="269.27,-187.6 266.64,-180.1 264.02,-187.6 269.27,-187.6"/>
</g>
<!-- finalize -->
<g id="node5" class="node">
<title>finalize</title>
<path fill="none" stroke="black" d="M437.62,-180C437.62,-180 403.67,-180 403.67,-180 397.67,-180 391.67,-174 391.67,-168 391.67,-168 391.67,-156 391.67,-156 391.67,-150 397.67,-144 403.67,-144 403.67,-144 437.62,-144 437.62,-144 443.62,-144 449.62,-150 449.62,-156 449.62,-156 449.62,-168 449.62,-168 449.62,-174 443.62,-180 437.62,-180"/>
<text text-anchor="middle" x="420.64" y="-157.8" font-family="Times,serif" font-size="14.00">finalize</text>
</g>
<!-- mul_add&#45;&gt;finalize -->
<g id="edge4" class="edge">
<title>mul_add:c&#45;&gt;finalize:c</title>
<path fill="none" stroke="#1d76db" stroke-width="2" d="M299.3,-218.15C324.32,-206.78 358.81,-191.1 384.63,-179.37"/>
<polygon fill="#1d76db" stroke="#1d76db" stroke-width="2" points="385.92,-181.66 391.66,-176.17 383.75,-176.89 385.92,-181.66"/>
</g>
<!-- mul_add_task -->
<g id="node8" class="node">
<title>mul_add_task</title>
<polygon fill="#f0fff0" stroke="black" points="314.51,-108 210.77,-108 210.77,-72 314.51,-72 314.51,-108"/>
<text text-anchor="middle" x="262.64" y="-85.8" font-family="Times,serif" font-size="14.00">mul_add_task()</text>
</g>
<!-- 0x7a5240&#45;&gt;mul_add_task -->
<g id="edge7" class="edge">
<title>0x7a5240:c&#45;&gt;mul_add_task:c</title>
<path fill="none" stroke="orange" stroke-width="1.5" d="M265.65,-143.7C265.17,-135.3 264.59,-125.07 264.06,-115.86"/>
<polygon fill="orange" stroke="orange" stroke-width="1.5" points="266.67,-115.44 263.62,-108.1 261.43,-115.74 266.67,-115.44"/>
</g>
<!-- 0x7a52a0 -->
<g id="node6" class="node">
<title>0x7a52a0</title>
<ellipse fill="#b8e2f2" stroke="black" cx="425.64" cy="-90" rx="74.69" ry="18"/>
<text text-anchor="middle" x="425.64" y="-85.8" font-family="Times,serif" font-size="14.00">finalize_action()</text>
</g>
<!-- finalize&#45;&gt;0x7a52a0 -->
<g id="edge5" class="edge">
<title>finalize:c&#45;&gt;0x7a52a0:c</title>
<path fill="none" stroke="black" stroke-width="1.5" d="M421.88,-143.7C422.48,-135.3 423.21,-125.07 423.87,-115.86"/>
<polygon fill="black" stroke="black" stroke-width="1.5" points="426.5,-115.77 424.42,-108.1 421.27,-115.4 426.5,-115.77"/>
</g>
<!-- reduce_y_task -->
<g id="node9" class="node">
<title>reduce_y_task</title>
<polygon fill="#f0fff0" stroke="black" points="478.82,-36 372.47,-36 372.47,0 478.82,0 478.82,-36"/>
<text text-anchor="middle" x="425.64" y="-13.8" font-family="Times,serif" font-size="14.00">reduce_y_task()</text>
</g>
<!-- 0x7a52a0&#45;&gt;reduce_y_task -->
<g id="edge8" class="edge">
<title>0x7a52a0:c&#45;&gt;reduce_y_task:c</title>
<path fill="none" stroke="orange" stroke-width="1.5" d="M425.64,-71.7C425.64,-63.3 425.64,-53.07 425.64,-43.86"/>
<polygon fill="orange" stroke="orange" stroke-width="1.5" points="428.27,-43.6 425.64,-36.1 423.02,-43.6 428.27,-43.6"/>
</g>
</g>
</svg>
