<?xml version="1.0" encoding="UTF-8" standalone="no"?>
<!DOCTYPE svg PUBLIC "-//W3C//DTD SVG 1.1//EN"
 "http://www.w3.org/Graphics/SVG/1.1/DTD/svg11.dtd">
<!-- Generated by graphviz version 8.0.5 (0)
 -->
<!-- Title: graph Pages: 1 -->
<svg width="574pt" height="460pt"
 viewBox="0.00 0.00 574.08 459.80" xmlns="http://www.w3.org/2000/svg" xmlns:xlink="http://www.w3.org/1999/xlink">
<g id="graph0" class="graph" transform="scale(1 1) rotate(0) translate(4 455.8)">
<title>graph</title>
<polygon fill="white" stroke="none" points="-4,4 -4,-455.8 570.08,-455.8 570.08,4 -4,4"/>
<!-- Control Point 1 -->
<g id="node1" class="node">
<title>Control Point 1</title>
<path fill="none" stroke="black" d="M234.21,-451.8C234.21,-451.8 155.87,-451.8 155.87,-451.8 149.87,-451.8 143.87,-445.8 143.87,-439.8 143.87,-439.8 143.87,-427.8 143.87,-427.8 143.87,-421.8 149.87,-415.8 155.87,-415.8 155.87,-415.8 234.21,-415.8 234.21,-415.8 240.21,-415.8 246.21,-421.8 246.21,-427.8 246.21,-427.8 246.21,-439.8 246.21,-439.8 246.21,-445.8 240.21,-451.8 234.21,-451.8"/>
<text text-anchor="middle" x="195.04" y="-429.6" font-family="Times,serif" font-size="14.00">Control Point 1</text>
</g>
<!-- 0x716ac0 -->
<g id="node2" class="node">
<title>0x716ac0</title>
<ellipse fill="#77c3ec" stroke="black" cx="174.04" cy="-360.8" rx="48.04" ry="18"/>
<text text-anchor="middle" x="174.04" y="-356.6" font-family="Times,serif" font-size="14.00">actionX()</text>
</g>
<!-- Control Point 1&#45;&gt;0x716ac0 -->
<g id="edge1" class="edge">
<title>Control Point 1:c&#45;&gt;0x716ac0:c</title>
<path fill="none" stroke="black" stroke-width="1.5" d="M189.95,-415.61C187.48,-407.24 184.45,-397 181.7,-387.7"/>
<polygon fill="black" stroke="black" stroke-width="1.5" points="183.72,-387.28 179.07,-380.83 178.68,-388.77 183.72,-387.28"/>
</g>
<!-- Control Point 2 -->
<g id="node3" class="node">
<title>Control Point 2</title>
<path fill="none" stroke="black" d="M348.21,-378.8C348.21,-378.8 269.87,-378.8 269.87,-378.8 263.87,-378.8 257.87,-372.8 257.87,-366.8 257.87,-366.8 257.87,-354.8 257.87,-354.8 257.87,-348.8 263.87,-342.8 269.87,-342.8 269.87,-342.8 348.21,-342.8 348.21,-342.8 354.21,-342.8 360.21,-348.8 360.21,-354.8 360.21,-354.8 360.21,-366.8 360.21,-366.8 360.21,-372.8 354.21,-378.8 348.21,-378.8"/>
<text text-anchor="middle" x="309.04" y="-356.6" font-family="Times,serif" font-size="14.00">Control Point 2</text>
</g>
<!-- Control Point 1&#45;&gt;Control Point 2 -->
<g id="edge2" class="edge">
<title>Control Point 1:c&#45;&gt;Control Point 2:c</title>
<path fill="none" stroke="#1d76db" stroke-width="2" d="M222.93,-415.43C238.38,-405.8 257.74,-393.75 274.19,-383.5"/>
<polygon fill="#1d76db" stroke="#1d76db" stroke-width="2" points="274.06,-386.43 279.04,-380.24 271.29,-381.97 274.06,-386.43"/>
</g>
<!-- 0x716b20 -->
<g id="node4" class="node">
<title>0x716b20</title>
<ellipse fill="#b8e2f2" stroke="black" cx="151.04" cy="-272" rx="48.04" ry="18"/>
<text text-anchor="middle" x="151.04" y="-267.8" font-family="Times,serif" font-size="14.00">actionA()</text>
</g>
<!-- Control Point 2&#45;&gt;0x716b20 -->
<g id="edge3" class="edge">
<title>Control Point 2:c&#45;&gt;0x716b20:c</title>
<path fill="none" stroke="black" stroke-width="1.5" d="M277.44,-342.44C250.84,-327.83 212.85,-306.96 185.47,-291.92"/>
<polygon fill="black" stroke="black" stroke-width="1.5" points="186.18,-289.76 178.34,-288.45 183.65,-294.36 186.18,-289.76"/>
</g>
<!-- Control Point 3 -->
<g id="node5" class="node">
<title>Control Point 3</title>
<path fill="none" stroke="black" d="M357.21,-290C357.21,-290 278.87,-290 278.87,-290 272.87,-290 266.87,-284 266.87,-278 266.87,-278 266.87,-266 266.87,-266 266.87,-260 272.87,-254 278.87,-254 278.87,-254 357.21,-254 357.21,-254 363.21,-254 369.21,-260 369.21,-266 369.21,-266 369.21,-278 369.21,-278 369.21,-284 363.21,-290 357.21,-290"/>
<text text-anchor="middle" x="318.04" y="-267.8" font-family="Times,serif" font-size="14.00">Control Point 3</text>
</g>
<!-- Control Point 2&#45;&gt;Control Point 3 -->
<g id="edge4" class="edge">
<title>Control Point 2:c&#45;&gt;Control Point 3:c</title>
<path fill="none" stroke="#1d76db" stroke-width="2" d="M310.82,-342.65C312.11,-330.13 313.9,-312.94 315.37,-298.77"/>
<polygon fill="#1d76db" stroke="#1d76db" stroke-width="2" points="318.07,-301.14 316.23,-293.41 312.85,-300.6 318.07,-301.14"/>
</g>
<!-- 0x716b80 -->
<g id="node6" class="node">
<title>0x716b80</title>
<ellipse fill="#b8e2f2" stroke="black" cx="48.04" cy="-199" rx="47.5" ry="18"/>
<text text-anchor="middle" x="48.04" y="-194.8" font-family="Times,serif" font-size="14.00">actionB()</text>
</g>
<!-- 0x716b20&#45;&gt;0x716b80 -->
<g id="edge5" class="edge">
<title>0x716b20:c&#45;&gt;0x716b80:c</title>
<path fill="none" stroke="black" stroke-width="1.5" d="M128.69,-255.59C113.84,-245.36 94.17,-231.8 77.98,-220.64"/>
<polygon fill="black" stroke="black" stroke-width="1.5" points="79.01,-218.47 71.34,-216.38 76.03,-222.79 79.01,-218.47"/>
</g>
<!-- 0x716be0 -->
<g id="node7" class="node">
<title>0x716be0</title>
<ellipse fill="#b8e2f2" stroke="black" cx="151.04" cy="-145" rx="47.5" ry="18"/>
<text text-anchor="middle" x="151.04" y="-140.8" font-family="Times,serif" font-size="14.00">actionC()</text>
</g>
<!-- 0x716b20&#45;&gt;0x716be0 -->
<g id="edge6" class="edge">
<title>0x716b20:c&#45;&gt;0x716be0:c</title>
<path fill="none" stroke="black" stroke-width="1.5" d="M151.04,-253.62C151.04,-232.63 151.04,-197.1 151.04,-172.64"/>
<polygon fill="black" stroke="black" stroke-width="1.5" points="153.66,-172.73 151.04,-165.23 148.41,-172.73 153.66,-172.73"/>
</g>
<!-- Control Point 3&#45;&gt;Control Point 2 -->
<g id="edge10" class="edge">
<title>Control Point 3:e&#45;&gt;Control Point 2:e</title>
<path fill="none" stroke="#1d76db" stroke-width="2" stroke-dasharray="5,2" d="M370.04,-272C406.76,-272 401.77,-348.11 369.36,-359.41"/>
<polygon fill="#1d76db" stroke="#1d76db" stroke-width="2" points="370,-356.97 363.04,-360.8 370.87,-362.15 370,-356.97"/>
<text text-anchor="middle" x="412.55" y="-312.2" font-family="Times,serif" font-size="14.00"> cycle</text>
</g>
<!-- 0x716d00 -->
<g id="node10" class="node">
<title>0x716d00</title>
<ellipse fill="#4eb2e0" stroke="black" cx="318.04" cy="-199" rx="46.43" ry="18"/>
<text text-anchor="middle" x="318.04" y="-194.8" font-family="Times,serif" font-size="14.00">actionF()</text>
</g>
<!-- Control Point 3&#45;&gt;0x716d00 -->
<g id="edge11" class="edge">
<title>Control Point 3:c&#45;&gt;0x716d00:c</title>
<path fill="none" stroke="black" stroke-width="1.5" d="M318.04,-253.81C318.04,-245.62 318.04,-235.62 318.04,-226.48"/>
<polygon fill="black" stroke="black" stroke-width="1.5" points="320.66,-226.53 318.04,-219.03 315.41,-226.53 320.66,-226.53"/>
</g>
<!-- Control Point 4 -->
<g id="node11" class="node">
<title>Control Point 4</title>
<path fill="none" stroke="black" d="M536.21,-217C536.21,-217 457.87,-217 457.87,-217 451.87,-217 445.87,-211 445.87,-205 445.87,-205 445.87,-193 445.87,-193 445.87,-187 451.87,-181 457.87,-181 457.87,-181 536.21,-181 536.21,-181 542.21,-181 548.21,-187 548.21,-193 548.21,-193 548.21,-205 548.21,-205 548.21,-211 542.21,-217 536.21,-217"/>
<text text-anchor="middle" x="497.04" y="-194.8" font-family="Times,serif" font-size="14.00">Control Point 4</text>
</g>
<!-- Control Point 3&#45;&gt;Control Point 4 -->
<g id="edge12" class="edge">
<title>Control Point 3:c&#45;&gt;Control Point 4:c</title>
<path fill="none" stroke="#1d76db" stroke-width="2" d="M361.83,-253.63C387.07,-243.62 418.95,-230.97 445.41,-220.48"/>
<polygon fill="#1d76db" stroke="#1d76db" stroke-width="2" points="445.08,-223.64 451.08,-218.44 443.14,-218.76 445.08,-223.64"/>
</g>
<!-- 0x716c40 -->
<g id="node8" class="node">
<title>0x716c40</title>
<ellipse fill="#b8e2f2" stroke="black" cx="48.04" cy="-91" rx="48.04" ry="18"/>
<text text-anchor="middle" x="48.04" y="-86.8" font-family="Times,serif" font-size="14.00">actionD()</text>
</g>
<!-- 0x716b80&#45;&gt;0x716c40 -->
<g id="edge7" class="edge">
<title>0x716b80:c&#45;&gt;0x716c40:c</title>
<path fill="none" stroke="black" stroke-width="1.5" d="M48.04,-180.97C48.04,-164.15 48.04,-138.17 48.04,-118.62"/>
<polygon fill="black" stroke="black" stroke-width="1.5" points="50.66,-118.84 48.04,-111.34 45.41,-118.84 50.66,-118.84"/>
</g>
<!-- 0x716ca0 -->
<g id="node9" class="node">
<title>0x716ca0</title>
<ellipse fill="#b8e2f2" stroke="black" cx="130.04" cy="-18" rx="46.96" ry="18"/>
<text text-anchor="middle" x="130.04" y="-13.8" font-family="Times,serif" font-size="14.00">actionE()</text>
</g>
<!-- 0x716be0&#45;&gt;0x716ca0 -->
<g id="edge8" class="edge">
<title>0x716be0:c&#45;&gt;0x716ca0:c</title>
<path fill="none" stroke="black" stroke-width="1.5" d="M148.12,-126.62C144.58,-105.54 138.57,-69.79 134.46,-45.32"/>
<polygon fill="black" stroke="black" stroke-width="1.5" points="136.76,-45.19 132.93,-38.23 131.59,-46.06 136.76,-45.19"/>
</g>
<!-- 0x716c40&#45;&gt;0x716ca0 -->
<g id="edge9" class="edge">
<title>0x716c40:c&#45;&gt;0x716ca0:c</title>
<path fill="none" stroke="black" stroke-width="1.5" d="M66.24,-74.24C77.52,-64.48 92.17,-51.78 104.59,-41.03"/>
<polygon fill="black" stroke="black" stroke-width="1.5" points="106.65,-42.85 110.61,-35.96 103.22,-38.88 106.65,-42.85"/>
</g>
<!-- 0x716d60 -->
<g id="node12" class="node">
<title>0x716d60</title>
<ellipse fill="#4eb2e0" stroke="black" cx="254.04" cy="-91" rx="48.04" ry="18"/>
<text text-anchor="middle" x="254.04" y="-86.8" font-family="Times,serif" font-size="14.00">actionG()</text>
</g>
<!-- 0x716d00&#45;&gt;0x716d60 -->
<g id="edge13" class="edge">
<title>0x716d00:c&#45;&gt;0x716d60:c</title>
<path fill="none" stroke="black" stroke-width="1.5" d="M307.75,-180.97C297.3,-163.66 281,-136.66 269.1,-116.94"/>
<polygon fill="black" stroke="black" stroke-width="1.5" points="271.42,-115.05 265.29,-109.99 266.92,-117.77 271.42,-115.05"/>
</g>
<!-- 0x716dc0 -->
<g id="node13" class="node">
<title>0x716dc0</title>
<ellipse fill="#4eb2e0" stroke="black" cx="386.04" cy="-91" rx="48.04" ry="18"/>
<text text-anchor="middle" x="386.04" y="-86.8" font-family="Times,serif" font-size="14.00">actionH()</text>
</g>
<!-- 0x716d00&#45;&gt;0x716dc0 -->
<g id="edge14" class="edge">
<title>0x716d00:c&#45;&gt;0x716dc0:c</title>
<path fill="none" stroke="black" stroke-width="1.5" d="M328.66,-181.44C339.82,-164.04 357.5,-136.48 370.29,-116.55"/>
<polygon fill="black" stroke="black" stroke-width="1.5" points="372.42,-117.53 374.26,-109.8 368,-114.69 372.42,-117.53"/>
</g>
<!-- 0x716e80 -->
<g id="node15" class="node">
<title>0x716e80</title>
<ellipse fill="#9dd9f3" stroke="black" cx="518.04" cy="-91" rx="48.04" ry="18"/>
<text text-anchor="middle" x="518.04" y="-86.8" font-family="Times,serif" font-size="14.00">actionY()</text>
</g>
<!-- Control Point 4&#45;&gt;0x716e80 -->
<g id="edge17" class="edge">
<title>Control Point 4:c&#45;&gt;0x716e80:c</title>
<path fill="none" stroke="black" stroke-width="1.5" d="M500.41,-180.97C503.74,-164.15 508.89,-138.17 512.76,-118.62"/>
<polygon fill="black" stroke="black" stroke-width="1.5" points="515.72,-119.21 514.6,-111.34 510.57,-118.19 515.72,-119.21"/>
</g>
<!-- 0x716e20 -->
<g id="node14" class="node">
<title>0x716e20</title>
<ellipse fill="#4eb2e0" stroke="black" cx="287.04" cy="-18" rx="44.28" ry="18"/>
<text text-anchor="middle" x="287.04" y="-13.8" font-family="Times,serif" font-size="14.00">actionI()</text>
</g>
<!-- 0x716d60&#45;&gt;0x716e20 -->
<g id="edge15" class="edge">
<title>0x716d60:c&#45;&gt;0x716e20:c</title>
<path fill="none" stroke="black" stroke-width="1.5" d="M262.03,-72.81C265.96,-64.35 270.78,-53.98 275.13,-44.61"/>
<polygon fill="black" stroke="black" stroke-width="1.5" points="278.34,-45.94 279.12,-38.03 273.58,-43.72 278.34,-45.94"/>
</g>
<!-- 0x716dc0&#45;&gt;0x716e20 -->
<g id="edge16" class="edge">
<title>0x716dc0:c&#45;&gt;0x716e20:c</title>
<path fill="none" stroke="black" stroke-width="1.5" d="M364.56,-74.59C350.19,-64.29 331.12,-50.62 315.5,-39.41"/>
<polygon fill="black" stroke="black" stroke-width="1.5" points="316.76,-37.37 309.14,-35.13 313.7,-41.64 316.76,-37.37"/>
</g>
</g>
</svg>
