<?xml version="1.0" encoding="UTF-8" standalone="no"?>
<!DOCTYPE svg PUBLIC "-//W3C//DTD SVG 1.1//EN"
 "http://www.w3.org/Graphics/SVG/1.1/DTD/svg11.dtd">
<!-- Generated by graphviz version 14.0.1 (0)
 -->
<!-- Title: graph Pages: 1 -->
<svg width="534pt" height="457pt"
 viewBox="0.00 0.00 534.00 457.00" xmlns="http://www.w3.org/2000/svg" xmlns:xlink="http://www.w3.org/1999/xlink">
<g id="graph0" class="graph" transform="scale(1 1) rotate(0) translate(4 453.25)">
<title>graph</title>
<polygon fill="white" stroke="none" points="-4,4 -4,-453.25 530.18,-453.25 530.18,4 -4,4"/>
<!-- Control Point 1 -->
<g id="node1" class="node">
<title>Control Point 1</title>
<path fill="none" stroke="black" d="M216.09,-449.25C216.09,-449.25 140.09,-449.25 140.09,-449.25 134.09,-449.25 128.09,-443.25 128.09,-437.25 128.09,-437.25 128.09,-425.25 128.09,-425.25 128.09,-419.25 134.09,-413.25 140.09,-413.25 140.09,-413.25 216.09,-413.25 216.09,-413.25 222.09,-413.25 228.09,-419.25 228.09,-425.25 228.09,-425.25 228.09,-437.25 228.09,-437.25 228.09,-443.25 222.09,-449.25 216.09,-449.25"/>
<text xml:space="preserve" text-anchor="middle" x="178.09" y="-425.07" font-family="Times,serif" font-size="14.00">Control Point 1</text>
</g>
<!-- 0x716ac0 -->
<g id="node2" class="node">
<title>0x716ac0</title>
<ellipse fill="#77c3ec" stroke="black" cx="157.09" cy="-358.25" rx="43.09" ry="18"/>
<text xml:space="preserve" text-anchor="middle" x="157.09" y="-352.07" font-family="Times,serif" font-size="14.00">actionX()</text>
</g>
<!-- Control Point 1&#45;&gt;0x716ac0 -->
<g id="edge1" class="edge">
<title>Control Point 1:c&#45;&gt;0x716ac0:c</title>
<path fill="none" stroke="black" stroke-width="1.5" d="M173.01,-413.06C170.56,-404.78 167.56,-394.66 164.84,-385.44"/>
<polygon fill="black" stroke="black" stroke-width="1.5" points="167.42,-384.9 162.77,-378.46 162.38,-386.39 167.42,-384.9"/>
</g>
<!-- Control Point 2 -->
<g id="node3" class="node">
<title>Control Point 2</title>
<path fill="none" stroke="black" d="M324.09,-376.25C324.09,-376.25 248.09,-376.25 248.09,-376.25 242.09,-376.25 236.09,-370.25 236.09,-364.25 236.09,-364.25 236.09,-352.25 236.09,-352.25 236.09,-346.25 242.09,-340.25 248.09,-340.25 248.09,-340.25 324.09,-340.25 324.09,-340.25 330.09,-340.25 336.09,-346.25 336.09,-352.25 336.09,-352.25 336.09,-364.25 336.09,-364.25 336.09,-370.25 330.09,-376.25 324.09,-376.25"/>
<text xml:space="preserve" text-anchor="middle" x="286.09" y="-352.07" font-family="Times,serif" font-size="14.00">Control Point 2</text>
</g>
<!-- Control Point 1&#45;&gt;Control Point 2 -->
<g id="edge2" class="edge">
<title>Control Point 1:c&#45;&gt;Control Point 2:c</title>
<path fill="none" stroke="#1d76db" stroke-width="2" d="M204.51,-412.88C218.89,-403.43 236.84,-391.63 252.24,-381.5"/>
<polygon fill="#1d76db" stroke="#1d76db" stroke-width="2" points="252.21,-384.66 257.04,-378.35 249.33,-380.27 252.21,-384.66"/>
</g>
<!-- 0x716b20 -->
<g id="node4" class="node">
<title>0x716b20</title>
<ellipse fill="#b8e2f2" stroke="black" cx="141.09" cy="-272" rx="43.09" ry="18"/>
<text xml:space="preserve" text-anchor="middle" x="141.09" y="-265.82" font-family="Times,serif" font-size="14.00">actionA()</text>
</g>
<!-- Control Point 2&#45;&gt;0x716b20 -->
<g id="edge3" class="edge">
<title>Control Point 2:c&#45;&gt;0x716b20:c</title>
<path fill="none" stroke="black" stroke-width="1.5" d="M256.05,-339.79C232,-325.82 198.35,-306.27 173.66,-291.92"/>
<polygon fill="black" stroke="black" stroke-width="1.5" points="175.1,-289.73 167.3,-288.23 172.46,-294.26 175.1,-289.73"/>
</g>
<!-- Control Point 3 -->
<g id="node5" class="node">
<title>Control Point 3</title>
<path fill="none" stroke="black" d="M334.09,-290C334.09,-290 258.09,-290 258.09,-290 252.09,-290 246.09,-284 246.09,-278 246.09,-278 246.09,-266 246.09,-266 246.09,-260 252.09,-254 258.09,-254 258.09,-254 334.09,-254 334.09,-254 340.09,-254 346.09,-260 346.09,-266 346.09,-266 346.09,-278 346.09,-278 346.09,-284 340.09,-290 334.09,-290"/>
<text xml:space="preserve" text-anchor="middle" x="296.09" y="-265.82" font-family="Times,serif" font-size="14.00">Control Point 3</text>
</g>
<!-- Control Point 2&#45;&gt;Control Point 3 -->
<g id="edge4" class="edge">
<title>Control Point 2:c&#45;&gt;Control Point 3:c</title>
<path fill="none" stroke="#1d76db" stroke-width="2" d="M288.16,-339.79C289.56,-328.05 291.42,-312.34 292.99,-299.12"/>
<polygon fill="#1d76db" stroke="#1d76db" stroke-width="2" points="295.39,-301.2 293.66,-293.44 290.17,-300.58 295.39,-301.2"/>
</g>
<!-- 0x716b80 -->
<g id="node6" class="node">
<title>0x716b80</title>
<ellipse fill="#b8e2f2" stroke="black" cx="43.09" cy="-199" rx="42.61" ry="18"/>
<text xml:space="preserve" text-anchor="middle" x="43.09" y="-192.82" font-family="Times,serif" font-size="14.00">actionB()</text>
</g>
<!-- 0x716b20&#45;&gt;0x716b80 -->
<g id="edge5" class="edge">
<title>0x716b20:c&#45;&gt;0x716b80:c</title>
<path fill="none" stroke="black" stroke-width="1.5" d="M120.31,-255.94C106.15,-245.68 87.21,-231.97 71.64,-220.68"/>
<polygon fill="black" stroke="black" stroke-width="1.5" points="73.3,-218.64 65.68,-216.37 70.22,-222.89 73.3,-218.64"/>
</g>
<!-- 0x716be0 -->
<g id="node7" class="node">
<title>0x716be0</title>
<ellipse fill="#b8e2f2" stroke="black" cx="141.09" cy="-145" rx="42.61" ry="18"/>
<text xml:space="preserve" text-anchor="middle" x="141.09" y="-138.82" font-family="Times,serif" font-size="14.00">actionC()</text>
</g>
<!-- 0x716b20&#45;&gt;0x716be0 -->
<g id="edge6" class="edge">
<title>0x716b20:c&#45;&gt;0x716be0:c</title>
<path fill="none" stroke="black" stroke-width="1.5" d="M141.09,-253.62C141.09,-232.72 141.09,-197.42 141.09,-172.97"/>
<polygon fill="black" stroke="black" stroke-width="1.5" points="143.72,-173 141.09,-165.5 138.47,-173 143.72,-173"/>
</g>
<!-- Control Point 3&#45;&gt;Control Point 2 -->
<g id="edge10" class="edge">
<title>Control Point 3:e&#45;&gt;Control Point 2:e</title>
<path fill="none" stroke="#1d76db" stroke-width="2" stroke-dasharray="5,2" d="M347.09,-272C382.67,-272 376.95,-345.3 345.6,-356.75"/>
<polygon fill="#1d76db" stroke="#1d76db" stroke-width="2" points="347,-353.84 340.07,-357.73 347.91,-359.01 347,-353.84"/>
<text xml:space="preserve" text-anchor="middle" x="387.57" y="-308.95" font-family="Times,serif" font-size="14.00"> cycle</text>
</g>
<!-- 0x716d00 -->
<g id="node10" class="node">
<title>0x716d00</title>
<ellipse fill="#4eb2e0" stroke="black" cx="296.09" cy="-199" rx="41.66" ry="18"/>
<text xml:space="preserve" text-anchor="middle" x="296.09" y="-192.82" font-family="Times,serif" font-size="14.00">actionF()</text>
</g>
<!-- Control Point 3&#45;&gt;0x716d00 -->
<g id="edge11" class="edge">
<title>Control Point 3:c&#45;&gt;0x716d00:c</title>
<path fill="none" stroke="black" stroke-width="1.5" d="M296.09,-253.81C296.09,-245.7 296.09,-235.84 296.09,-226.78"/>
<polygon fill="black" stroke="black" stroke-width="1.5" points="298.72,-226.8 296.09,-219.3 293.47,-226.8 298.72,-226.8"/>
</g>
<!-- Control Point 4 -->
<g id="node11" class="node">
<title>Control Point 4</title>
<path fill="none" stroke="black" d="M502.09,-217C502.09,-217 426.09,-217 426.09,-217 420.09,-217 414.09,-211 414.09,-205 414.09,-205 414.09,-193 414.09,-193 414.09,-187 420.09,-181 426.09,-181 426.09,-181 502.09,-181 502.09,-181 508.09,-181 514.09,-187 514.09,-193 514.09,-193 514.09,-205 514.09,-205 514.09,-211 508.09,-217 502.09,-217"/>
<text xml:space="preserve" text-anchor="middle" x="464.09" y="-192.82" font-family="Times,serif" font-size="14.00">Control Point 4</text>
</g>
<!-- Control Point 3&#45;&gt;Control Point 4 -->
<g id="edge12" class="edge">
<title>Control Point 3:c&#45;&gt;Control Point 4:c</title>
<path fill="none" stroke="#1d76db" stroke-width="2" d="M337.19,-253.63C360.58,-243.75 390.03,-231.3 414.68,-220.88"/>
<polygon fill="#1d76db" stroke="#1d76db" stroke-width="2" points="414.16,-223.95 420.05,-218.61 412.12,-219.12 414.16,-223.95"/>
</g>
<!-- 0x716c40 -->
<g id="node8" class="node">
<title>0x716c40</title>
<ellipse fill="#b8e2f2" stroke="black" cx="43.09" cy="-91" rx="43.09" ry="18"/>
<text xml:space="preserve" text-anchor="middle" x="43.09" y="-84.83" font-family="Times,serif" font-size="14.00">actionD()</text>
</g>
<!-- 0x716b80&#45;&gt;0x716c40 -->
<g id="edge7" class="edge">
<title>0x716b80:c&#45;&gt;0x716c40:c</title>
<path fill="none" stroke="black" stroke-width="1.5" d="M43.09,-180.97C43.09,-164.22 43.09,-138.41 43.09,-118.89"/>
<polygon fill="black" stroke="black" stroke-width="1.5" points="45.72,-119.11 43.09,-111.61 40.47,-119.11 45.72,-119.11"/>
</g>
<!-- 0x716ca0 -->
<g id="node9" class="node">
<title>0x716ca0</title>
<ellipse fill="#b8e2f2" stroke="black" cx="121.09" cy="-18" rx="42.14" ry="18"/>
<text xml:space="preserve" text-anchor="middle" x="121.09" y="-11.82" font-family="Times,serif" font-size="14.00">actionE()</text>
</g>
<!-- 0x716be0&#45;&gt;0x716ca0 -->
<g id="edge8" class="edge">
<title>0x716be0:c&#45;&gt;0x716ca0:c</title>
<path fill="none" stroke="black" stroke-width="1.5" d="M138.31,-126.62C134.95,-105.63 129.27,-70.1 125.35,-45.64"/>
<polygon fill="black" stroke="black" stroke-width="1.5" points="127.98,-45.47 124.21,-38.47 122.8,-46.3 127.98,-45.47"/>
</g>
<!-- 0x716c40&#45;&gt;0x716ca0 -->
<g id="edge9" class="edge">
<title>0x716c40:c&#45;&gt;0x716ca0:c</title>
<path fill="none" stroke="black" stroke-width="1.5" d="M60.4,-74.24C71.11,-64.5 85.01,-51.85 96.8,-41.11"/>
<polygon fill="black" stroke="black" stroke-width="1.5" points="98.37,-43.23 102.15,-36.24 94.84,-39.35 98.37,-43.23"/>
</g>
<!-- 0x716d60 -->
<g id="node12" class="node">
<title>0x716d60</title>
<ellipse fill="#4eb2e0" stroke="black" cx="239.09" cy="-91" rx="43.09" ry="18"/>
<text xml:space="preserve" text-anchor="middle" x="239.09" y="-84.83" font-family="Times,serif" font-size="14.00">actionG()</text>
</g>
<!-- 0x716d00&#45;&gt;0x716d60 -->
<g id="edge13" class="edge">
<title>0x716d00:c&#45;&gt;0x716d60:c</title>
<path fill="none" stroke="black" stroke-width="1.5" d="M286.93,-180.97C277.71,-163.82 263.37,-137.14 252.79,-117.47"/>
<polygon fill="black" stroke="black" stroke-width="1.5" points="255.17,-116.35 249.3,-110.99 250.54,-118.84 255.17,-116.35"/>
</g>
<!-- 0x716dc0 -->
<g id="node13" class="node">
<title>0x716dc0</title>
<ellipse fill="#4eb2e0" stroke="black" cx="361.09" cy="-91" rx="43.09" ry="18"/>
<text xml:space="preserve" text-anchor="middle" x="361.09" y="-84.83" font-family="Times,serif" font-size="14.00">actionH()</text>
</g>
<!-- 0x716d00&#45;&gt;0x716dc0 -->
<g id="edge14" class="edge">
<title>0x716d00:c&#45;&gt;0x716dc0:c</title>
<path fill="none" stroke="black" stroke-width="1.5" d="M306.25,-181.44C316.82,-164.19 333.51,-136.97 345.71,-117.09"/>
<polygon fill="black" stroke="black" stroke-width="1.5" points="347.92,-118.5 349.6,-110.73 343.45,-115.75 347.92,-118.5"/>
</g>
<!-- 0x716e80 -->
<g id="node15" class="node">
<title>0x716e80</title>
<ellipse fill="#9dd9f3" stroke="black" cx="483.09" cy="-91" rx="43.09" ry="18"/>
<text xml:space="preserve" text-anchor="middle" x="483.09" y="-84.83" font-family="Times,serif" font-size="14.00">actionY()</text>
</g>
<!-- Control Point 4&#45;&gt;0x716e80 -->
<g id="edge17" class="edge">
<title>Control Point 4:c&#45;&gt;0x716e80:c</title>
<path fill="none" stroke="black" stroke-width="1.5" d="M467.14,-180.97C470.14,-164.22 474.77,-138.41 478.27,-118.89"/>
<polygon fill="black" stroke="black" stroke-width="1.5" points="480.84,-119.42 479.58,-111.58 475.67,-118.49 480.84,-119.42"/>
</g>
<!-- 0x716e20 -->
<g id="node14" class="node">
<title>0x716e20</title>
<ellipse fill="#4eb2e0" stroke="black" cx="269.09" cy="-18" rx="39.75" ry="18"/>
<text xml:space="preserve" text-anchor="middle" x="269.09" y="-11.82" font-family="Times,serif" font-size="14.00">actionI()</text>
</g>
<!-- 0x716d60&#45;&gt;0x716e20 -->
<g id="edge15" class="edge">
<title>0x716d60:c&#45;&gt;0x716e20:c</title>
<path fill="none" stroke="black" stroke-width="1.5" d="M246.35,-72.81C249.89,-64.44 254.22,-54.2 258.15,-44.9"/>
<polygon fill="black" stroke="black" stroke-width="1.5" points="260.51,-46.05 261.01,-38.12 255.67,-44.01 260.51,-46.05"/>
</g>
<!-- 0x716dc0&#45;&gt;0x716e20 -->
<g id="edge16" class="edge">
<title>0x716dc0:c&#45;&gt;0x716e20:c</title>
<path fill="none" stroke="black" stroke-width="1.5" d="M341.13,-74.59C328.02,-64.48 310.7,-51.11 296.33,-40.02"/>
<polygon fill="black" stroke="black" stroke-width="1.5" points="298.04,-38.02 290.5,-35.52 294.83,-42.18 298.04,-38.02"/>
</g>
</g>
</svg>
