<?xml version="1.0" encoding="UTF-8" standalone="no"?>
<!DOCTYPE svg PUBLIC "-//W3C//DTD SVG 1.1//EN"
 "http://www.w3.org/Graphics/SVG/1.1/DTD/svg11.dtd">
<!-- Generated by graphviz version 2.49.0 (0)
 -->
<!-- Title: graph Pages: 1 -->
<svg width="574pt" height="460pt"
 viewBox="0.00 0.00 574.07 459.80" xmlns="http://www.w3.org/2000/svg" xmlns:xlink="http://www.w3.org/1999/xlink">
<g id="graph0" class="graph" transform="scale(1 1) rotate(0) translate(4 455.8)">
<title>graph</title>
<polygon fill="white" stroke="transparent" points="-4,4 -4,-455.8 570.07,-455.8 570.07,4 -4,4"/>
<!-- Control Point 1 -->
<g id="node1" class="node">
<title>Control Point 1</title>
<path fill="none" stroke="black" d="M234.38,-451.8C234.38,-451.8 155.69,-451.8 155.69,-451.8 149.69,-451.8 143.69,-445.8 143.69,-439.8 143.69,-439.8 143.69,-427.8 143.69,-427.8 143.69,-421.8 149.69,-415.8 155.69,-415.8 155.69,-415.8 234.38,-415.8 234.38,-415.8 240.38,-415.8 246.38,-421.8 246.38,-427.8 246.38,-427.8 246.38,-439.8 246.38,-439.8 246.38,-445.8 240.38,-451.8 234.38,-451.8"/>
<text text-anchor="middle" x="195.04" y="-429.6" font-family="Times,serif" font-size="14.00">Control Point 1</text>
</g>
<!-- 0x716ac0 -->
<g id="node2" class="node">
<title>0x716ac0</title>
<ellipse fill="#77c3ec" stroke="black" cx="174.04" cy="-360.8" rx="48.07" ry="18"/>
<text text-anchor="middle" x="174.04" y="-356.6" font-family="Times,serif" font-size="14.00">actionX()</text>
</g>
<!-- Control Point 1&#45;&gt;0x716ac0 -->
<g id="edge1" class="edge">
<title>Control Point 1:c&#45;&gt;0x716ac0:c</title>
<path fill="none" stroke="black" stroke-width="1.5" d="M189.95,-415.61C187.35,-406.8 184.13,-395.93 181.27,-386.26"/>
<polygon fill="black" stroke="black" stroke-width="1.5" points="183.72,-385.28 179.07,-378.83 178.68,-386.77 183.72,-385.28"/>
</g>
<!-- Control Point 2 -->
<g id="node3" class="node">
<title>Control Point 2</title>
<path fill="none" stroke="black" d="M348.38,-378.8C348.38,-378.8 269.69,-378.8 269.69,-378.8 263.69,-378.8 257.69,-372.8 257.69,-366.8 257.69,-366.8 257.69,-354.8 257.69,-354.8 257.69,-348.8 263.69,-342.8 269.69,-342.8 269.69,-342.8 348.38,-342.8 348.38,-342.8 354.38,-342.8 360.38,-348.8 360.38,-354.8 360.38,-354.8 360.38,-366.8 360.38,-366.8 360.38,-372.8 354.38,-378.8 348.38,-378.8"/>
<text text-anchor="middle" x="309.04" y="-356.6" font-family="Times,serif" font-size="14.00">Control Point 2</text>
</g>
<!-- Control Point 1&#45;&gt;Control Point 2 -->
<g id="edge2" class="edge">
<title>Control Point 1:c&#45;&gt;Control Point 2:c</title>
<path fill="none" stroke="#1d76db" stroke-width="2" d="M222.34,-415.79C238.16,-405.94 258.21,-393.46 275.04,-382.97"/>
<polygon fill="#1d76db" stroke="#1d76db" stroke-width="2" points="276.58,-385.11 281.56,-378.91 273.8,-380.65 276.58,-385.11"/>
</g>
<!-- 0x716b20 -->
<g id="node4" class="node">
<title>0x716b20</title>
<ellipse fill="#b8e2f2" stroke="black" cx="151.04" cy="-272" rx="48.07" ry="18"/>
<text text-anchor="middle" x="151.04" y="-267.8" font-family="Times,serif" font-size="14.00">actionA()</text>
</g>
<!-- Control Point 2&#45;&gt;0x716b20 -->
<g id="edge3" class="edge">
<title>Control Point 2:c&#45;&gt;0x716b20:c</title>
<path fill="none" stroke="black" stroke-width="1.5" d="M277.82,-342.65C250.63,-327.71 211.33,-306.13 183.72,-290.95"/>
<polygon fill="black" stroke="black" stroke-width="1.5" points="184.8,-288.55 176.96,-287.24 182.27,-293.15 184.8,-288.55"/>
</g>
<!-- Control Point 3 -->
<g id="node5" class="node">
<title>Control Point 3</title>
<path fill="none" stroke="black" d="M357.38,-290C357.38,-290 278.69,-290 278.69,-290 272.69,-290 266.69,-284 266.69,-278 266.69,-278 266.69,-266 266.69,-266 266.69,-260 272.69,-254 278.69,-254 278.69,-254 357.38,-254 357.38,-254 363.38,-254 369.38,-260 369.38,-266 369.38,-266 369.38,-278 369.38,-278 369.38,-284 363.38,-290 357.38,-290"/>
<text text-anchor="middle" x="318.04" y="-267.8" font-family="Times,serif" font-size="14.00">Control Point 3</text>
</g>
<!-- Control Point 2&#45;&gt;Control Point 3 -->
<g id="edge4" class="edge">
<title>Control Point 2:c&#45;&gt;Control Point 3:c</title>
<path fill="none" stroke="#1d76db" stroke-width="2" d="M310.81,-342.65C312.14,-329.81 313.98,-312.06 315.47,-297.69"/>
<polygon fill="#1d76db" stroke="#1d76db" stroke-width="2" points="318.1,-297.84 316.26,-290.11 312.88,-297.3 318.1,-297.84"/>
</g>
<!-- 0x716b80 -->
<g id="node6" class="node">
<title>0x716b80</title>
<ellipse fill="#b8e2f2" stroke="black" cx="48.04" cy="-199" rx="47.51" ry="18"/>
<text text-anchor="middle" x="48.04" y="-194.8" font-family="Times,serif" font-size="14.00">actionB()</text>
</g>
<!-- 0x716b20&#45;&gt;0x716b80 -->
<g id="edge5" class="edge">
<title>0x716b20:c&#45;&gt;0x716b80:c</title>
<path fill="none" stroke="black" stroke-width="1.5" d="M129.19,-255.94C113.76,-245.31 92.94,-230.95 76.25,-219.45"/>
<polygon fill="black" stroke="black" stroke-width="1.5" points="77.51,-217.13 69.85,-215.04 74.53,-221.45 77.51,-217.13"/>
</g>
<!-- 0x716be0 -->
<g id="node7" class="node">
<title>0x716be0</title>
<ellipse fill="#b8e2f2" stroke="black" cx="151.04" cy="-145" rx="47.51" ry="18"/>
<text text-anchor="middle" x="151.04" y="-140.8" font-family="Times,serif" font-size="14.00">actionC()</text>
</g>
<!-- 0x716b20&#45;&gt;0x716be0 -->
<g id="edge6" class="edge">
<title>0x716b20:c&#45;&gt;0x716be0:c</title>
<path fill="none" stroke="black" stroke-width="1.5" d="M151.04,-253.88C151.04,-232.4 151.04,-195.41 151.04,-170.82"/>
<polygon fill="black" stroke="black" stroke-width="1.5" points="153.66,-170.81 151.04,-163.31 148.41,-170.81 153.66,-170.81"/>
</g>
<!-- Control Point 3&#45;&gt;Control Point 2 -->
<g id="edge10" class="edge">
<title>Control Point 3:e&#45;&gt;Control Point 2:e</title>
<path fill="none" stroke="#1d76db" stroke-width="2" stroke-dasharray="5,2" d="M370.04,-272C407.07,-272 401.68,-349.4 368.53,-359.68"/>
<polygon fill="#1d76db" stroke="#1d76db" stroke-width="2" points="368.06,-357.09 361.04,-360.8 368.84,-362.28 368.06,-357.09"/>
<text text-anchor="middle" x="412.55" y="-312.2" font-family="Times,serif" font-size="14.00"> cycle</text>
</g>
<!-- 0x716d00 -->
<g id="node10" class="node">
<title>0x716d00</title>
<ellipse fill="#4eb2e0" stroke="black" cx="318.04" cy="-199" rx="46.36" ry="18"/>
<text text-anchor="middle" x="318.04" y="-194.8" font-family="Times,serif" font-size="14.00">actionF()</text>
</g>
<!-- Control Point 3&#45;&gt;0x716d00 -->
<g id="edge11" class="edge">
<title>Control Point 3:c&#45;&gt;0x716d00:c</title>
<path fill="none" stroke="black" stroke-width="1.5" d="M318.04,-253.81C318.04,-245.09 318.04,-234.34 318.04,-224.75"/>
<polygon fill="black" stroke="black" stroke-width="1.5" points="320.66,-224.53 318.04,-217.03 315.41,-224.53 320.66,-224.53"/>
</g>
<!-- Control Point 4 -->
<g id="node11" class="node">
<title>Control Point 4</title>
<path fill="none" stroke="black" d="M536.38,-217C536.38,-217 457.69,-217 457.69,-217 451.69,-217 445.69,-211 445.69,-205 445.69,-205 445.69,-193 445.69,-193 445.69,-187 451.69,-181 457.69,-181 457.69,-181 536.38,-181 536.38,-181 542.38,-181 548.38,-187 548.38,-193 548.38,-193 548.38,-205 548.38,-205 548.38,-211 542.38,-217 536.38,-217"/>
<text text-anchor="middle" x="497.04" y="-194.8" font-family="Times,serif" font-size="14.00">Control Point 4</text>
</g>
<!-- Control Point 3&#45;&gt;Control Point 4 -->
<g id="edge12" class="edge">
<title>Control Point 3:c&#45;&gt;Control Point 4:c</title>
<path fill="none" stroke="#1d76db" stroke-width="2" d="M360.91,-253.99C386.74,-243.75 419.75,-230.66 446.79,-219.93"/>
<polygon fill="#1d76db" stroke="#1d76db" stroke-width="2" points="447.89,-222.32 453.89,-217.11 445.95,-217.44 447.89,-222.32"/>
</g>
<!-- 0x716c40 -->
<g id="node8" class="node">
<title>0x716c40</title>
<ellipse fill="#b8e2f2" stroke="black" cx="48.04" cy="-91" rx="48.07" ry="18"/>
<text text-anchor="middle" x="48.04" y="-86.8" font-family="Times,serif" font-size="14.00">actionD()</text>
</g>
<!-- 0x716b80&#45;&gt;0x716c40 -->
<g id="edge7" class="edge">
<title>0x716b80:c&#45;&gt;0x716c40:c</title>
<path fill="none" stroke="black" stroke-width="1.5" d="M48.04,-180.97C48.04,-163.69 48.04,-136.74 48.04,-117.03"/>
<polygon fill="black" stroke="black" stroke-width="1.5" points="50.66,-116.84 48.04,-109.34 45.41,-116.84 50.66,-116.84"/>
</g>
<!-- 0x716ca0 -->
<g id="node9" class="node">
<title>0x716ca0</title>
<ellipse fill="#b8e2f2" stroke="black" cx="130.04" cy="-18" rx="46.93" ry="18"/>
<text text-anchor="middle" x="130.04" y="-13.8" font-family="Times,serif" font-size="14.00">actionE()</text>
</g>
<!-- 0x716be0&#45;&gt;0x716ca0 -->
<g id="edge8" class="edge">
<title>0x716be0:c&#45;&gt;0x716ca0:c</title>
<path fill="none" stroke="black" stroke-width="1.5" d="M148.16,-126.88C144.55,-105.4 138.34,-68.41 134.21,-43.82"/>
<polygon fill="black" stroke="black" stroke-width="1.5" points="136.78,-43.27 132.94,-36.31 131.6,-44.14 136.78,-43.27"/>
</g>
<!-- 0x716c40&#45;&gt;0x716ca0 -->
<g id="edge9" class="edge">
<title>0x716c40:c&#45;&gt;0x716ca0:c</title>
<path fill="none" stroke="black" stroke-width="1.5" d="M66.23,-74.24C77.91,-64.13 93.21,-50.89 105.9,-39.9"/>
<polygon fill="black" stroke="black" stroke-width="1.5" points="107.94,-41.61 111.89,-34.71 104.5,-37.64 107.94,-41.61"/>
</g>
<!-- 0x716d60 -->
<g id="node12" class="node">
<title>0x716d60</title>
<ellipse fill="#4eb2e0" stroke="black" cx="254.04" cy="-91" rx="48.07" ry="18"/>
<text text-anchor="middle" x="254.04" y="-86.8" font-family="Times,serif" font-size="14.00">actionG()</text>
</g>
<!-- 0x716d00&#45;&gt;0x716d60 -->
<g id="edge13" class="edge">
<title>0x716d00:c&#45;&gt;0x716d60:c</title>
<path fill="none" stroke="black" stroke-width="1.5" d="M307.75,-180.97C297.01,-163.17 280.07,-135.12 268.09,-115.28"/>
<polygon fill="black" stroke="black" stroke-width="1.5" points="270.21,-113.7 264.08,-108.64 265.71,-116.42 270.21,-113.7"/>
</g>
<!-- 0x716dc0 -->
<g id="node13" class="node">
<title>0x716dc0</title>
<ellipse fill="#4eb2e0" stroke="black" cx="386.04" cy="-91" rx="48.07" ry="18"/>
<text text-anchor="middle" x="386.04" y="-86.8" font-family="Times,serif" font-size="14.00">actionH()</text>
</g>
<!-- 0x716d00&#45;&gt;0x716dc0 -->
<g id="edge14" class="edge">
<title>0x716d00:c&#45;&gt;0x716dc0:c</title>
<path fill="none" stroke="black" stroke-width="1.5" d="M328.66,-181.44C340.07,-163.65 358.29,-135.25 371.13,-115.24"/>
<polygon fill="black" stroke="black" stroke-width="1.5" points="373.42,-116.53 375.26,-108.8 369,-113.69 373.42,-116.53"/>
</g>
<!-- 0x716e80 -->
<g id="node15" class="node">
<title>0x716e80</title>
<ellipse fill="#9dd9f3" stroke="black" cx="518.04" cy="-91" rx="48.07" ry="18"/>
<text text-anchor="middle" x="518.04" y="-86.8" font-family="Times,serif" font-size="14.00">actionY()</text>
</g>
<!-- Control Point 4&#45;&gt;0x716e80 -->
<g id="edge17" class="edge">
<title>Control Point 4:c&#45;&gt;0x716e80:c</title>
<path fill="none" stroke="black" stroke-width="1.5" d="M500.41,-180.97C503.87,-163.51 509.28,-136.18 513.2,-116.42"/>
<polygon fill="black" stroke="black" stroke-width="1.5" points="515.79,-116.86 514.67,-108.99 510.64,-115.84 515.79,-116.86"/>
</g>
<!-- 0x716e20 -->
<g id="node14" class="node">
<title>0x716e20</title>
<ellipse fill="#4eb2e0" stroke="black" cx="287.04" cy="-18" rx="44.06" ry="18"/>
<text text-anchor="middle" x="287.04" y="-13.8" font-family="Times,serif" font-size="14.00">actionI()</text>
</g>
<!-- 0x716d60&#45;&gt;0x716e20 -->
<g id="edge15" class="edge">
<title>0x716d60:c&#45;&gt;0x716e20:c</title>
<path fill="none" stroke="black" stroke-width="1.5" d="M261.86,-73.17C266.03,-64.2 271.23,-53 275.83,-43.11"/>
<polygon fill="black" stroke="black" stroke-width="1.5" points="278.26,-44.11 279.04,-36.2 273.5,-41.89 278.26,-44.11"/>
</g>
<!-- 0x716dc0&#45;&gt;0x716e20 -->
<g id="edge16" class="edge">
<title>0x716dc0:c&#45;&gt;0x716e20:c</title>
<path fill="none" stroke="black" stroke-width="1.5" d="M364.55,-74.59C349.92,-64.1 330.43,-50.12 314.65,-38.8"/>
<polygon fill="black" stroke="black" stroke-width="1.5" points="315.76,-36.37 308.13,-34.13 312.7,-40.64 315.76,-36.37"/>
</g>
</g>
</svg>
