<?xml version="1.0" encoding="UTF-8" standalone="no"?>
<!DOCTYPE svg PUBLIC "-//W3C//DTD SVG 1.1//EN"
 "http://www.w3.org/Graphics/SVG/1.1/DTD/svg11.dtd">
<!-- Generated by graphviz version 8.0.5 (0)
 -->
<!-- Title: graph Pages: 1 -->
<svg width="738pt" height="332pt"
 viewBox="0.00 0.00 737.75 332.00" xmlns="http://www.w3.org/2000/svg" xmlns:xlink="http://www.w3.org/1999/xlink">
<g id="graph0" class="graph" transform="scale(1 1) rotate(0) translate(4 328)">
<title>graph</title>
<polygon fill="white" stroke="none" points="-4,4 -4,-328 733.75,-328 733.75,4 -4,4"/>
<!-- initialize -->
<g id="node1" class="node">
<title>initialize</title>
<path fill="none" stroke="black" d="M259.98,-324C259.98,-324 219,-324 219,-324 213,-324 207,-318 207,-312 207,-312 207,-300 207,-300 207,-294 213,-288 219,-288 219,-288 259.98,-288 259.98,-288 265.98,-288 271.98,-294 271.98,-300 271.98,-300 271.98,-312 271.98,-312 271.98,-318 265.98,-324 259.98,-324"/>
<text text-anchor="middle" x="239.49" y="-301.8" font-family="Times,serif" font-size="14.00">initialize</text>
</g>
<!-- 0x9e56c0 -->
<g id="node2" class="node">
<title>0x9e56c0</title>
<ellipse fill="#77c3ec" stroke="black" cx="148.49" cy="-234" rx="119.4" ry="18"/>
<text text-anchor="middle" x="148.49" y="-229.8" font-family="Times,serif" font-size="14.00">poisson::action::init_mesh()</text>
</g>
<!-- initialize&#45;&gt;0x9e56c0 -->
<g id="edge1" class="edge">
<title>initialize:c&#45;&gt;0x9e56c0:c</title>
<path fill="none" stroke="black" stroke-width="1.5" d="M217,-287.7C205.21,-278.63 190.62,-267.4 177.94,-257.65"/>
<polygon fill="black" stroke="black" stroke-width="1.5" points="179.27,-255.6 171.73,-253.1 176.07,-259.76 179.27,-255.6"/>
</g>
<!-- solve -->
<g id="node3" class="node">
<title>solve</title>
<path fill="none" stroke="black" d="M379.49,-252C379.49,-252 349.49,-252 349.49,-252 343.49,-252 337.49,-246 337.49,-240 337.49,-240 337.49,-228 337.49,-228 337.49,-222 343.49,-216 349.49,-216 349.49,-216 379.49,-216 379.49,-216 385.49,-216 391.49,-222 391.49,-228 391.49,-228 391.49,-240 391.49,-240 391.49,-246 385.49,-252 379.49,-252"/>
<text text-anchor="middle" x="364.49" y="-229.8" font-family="Times,serif" font-size="14.00">solve</text>
</g>
<!-- initialize&#45;&gt;solve -->
<g id="edge2" class="edge">
<title>initialize:c&#45;&gt;solve:c</title>
<path fill="none" stroke="#1d76db" stroke-width="2" d="M270.71,-287.52C288.71,-277.44 311.38,-264.74 329.92,-254.36"/>
<polygon fill="#1d76db" stroke="#1d76db" stroke-width="2" points="329.8,-257.31 335.06,-251.36 327.24,-252.73 329.8,-257.31"/>
</g>
<!-- 0x9e5760 -->
<g id="node4" class="node">
<title>0x9e5760</title>
<ellipse fill="#77c3ec" stroke="black" cx="113.49" cy="-162" rx="113.49" ry="18"/>
<text text-anchor="middle" x="113.49" y="-157.8" font-family="Times,serif" font-size="14.00">poisson::action::problem()</text>
</g>
<!-- 0x9e56c0&#45;&gt;0x9e5760 -->
<g id="edge3" class="edge">
<title>0x9e56c0:c&#45;&gt;0x9e5760:c</title>
<path fill="none" stroke="black" stroke-width="1.5" d="M139.84,-215.7C135.73,-207.47 130.73,-197.48 126.2,-188.42"/>
<polygon fill="black" stroke="black" stroke-width="1.5" points="128.74,-187.64 123.04,-182.1 124.05,-189.99 128.74,-187.64"/>
</g>
<!-- 0x9e57c0 -->
<g id="node5" class="node">
<title>0x9e57c0</title>
<ellipse fill="#b8e2f2" stroke="black" cx="364.49" cy="-162" rx="101.69" ry="18"/>
<text text-anchor="middle" x="364.49" y="-157.8" font-family="Times,serif" font-size="14.00">poisson::action::solve()</text>
</g>
<!-- solve&#45;&gt;0x9e57c0 -->
<g id="edge4" class="edge">
<title>solve:c&#45;&gt;0x9e57c0:c</title>
<path fill="none" stroke="black" stroke-width="1.5" d="M364.49,-215.7C364.49,-207.81 364.49,-198.3 364.49,-189.55"/>
<polygon fill="black" stroke="black" stroke-width="1.5" points="367.12,-189.6 364.49,-182.1 361.87,-189.6 367.12,-189.6"/>
</g>
<!-- analyze -->
<g id="node6" class="node">
<title>analyze</title>
<path fill="none" stroke="black" d="M548.86,-180C548.86,-180 514.12,-180 514.12,-180 508.12,-180 502.12,-174 502.12,-168 502.12,-168 502.12,-156 502.12,-156 502.12,-150 508.12,-144 514.12,-144 514.12,-144 548.86,-144 548.86,-144 554.86,-144 560.86,-150 560.86,-156 560.86,-156 560.86,-168 560.86,-168 560.86,-174 554.86,-180 548.86,-180"/>
<text text-anchor="middle" x="531.49" y="-157.8" font-family="Times,serif" font-size="14.00">analyze</text>
</g>
<!-- solve&#45;&gt;analyze -->
<g id="edge5" class="edge">
<title>solve:c&#45;&gt;analyze:c</title>
<path fill="none" stroke="#1d76db" stroke-width="2" d="M391.69,-221.6C419.56,-209.92 463.07,-191.68 494.15,-178.65"/>
<polygon fill="#1d76db" stroke="#1d76db" stroke-width="2" points="493.86,-181.78 499.76,-176.46 491.83,-176.94 493.86,-181.78"/>
</g>
<!-- 0x9e5600 -->
<g id="node7" class="node">
<title>0x9e5600</title>
<ellipse fill="#4eb2e0" stroke="black" cx="443.49" cy="-90" rx="110.79" ry="18"/>
<text text-anchor="middle" x="443.49" y="-85.8" font-family="Times,serif" font-size="14.00">poisson::action::analyze()</text>
</g>
<!-- analyze&#45;&gt;0x9e5600 -->
<g id="edge6" class="edge">
<title>analyze:c&#45;&gt;0x9e5600:c</title>
<path fill="none" stroke="black" stroke-width="1.5" d="M509.74,-143.7C498.44,-134.71 484.49,-123.61 472.31,-113.92"/>
<polygon fill="black" stroke="black" stroke-width="1.5" points="473.5,-111.72 465.99,-109.1 470.23,-115.83 473.5,-111.72"/>
</g>
<!-- finalize -->
<g id="node8" class="node">
<title>finalize</title>
<path fill="none" stroke="black" d="M636.48,-108C636.48,-108 602.5,-108 602.5,-108 596.5,-108 590.5,-102 590.5,-96 590.5,-96 590.5,-84 590.5,-84 590.5,-78 596.5,-72 602.5,-72 602.5,-72 636.48,-72 636.48,-72 642.48,-72 648.48,-78 648.48,-84 648.48,-84 648.48,-96 648.48,-96 648.48,-102 642.48,-108 636.48,-108"/>
<text text-anchor="middle" x="619.49" y="-85.8" font-family="Times,serif" font-size="14.00">finalize</text>
</g>
<!-- analyze&#45;&gt;finalize -->
<g id="edge7" class="edge">
<title>analyze:c&#45;&gt;finalize:c</title>
<path fill="none" stroke="#1d76db" stroke-width="2" d="M553.24,-143.7C564.67,-134.61 578.8,-123.36 591.08,-113.6"/>
<polygon fill="#1d76db" stroke="#1d76db" stroke-width="2" points="591.45,-116.07 595.68,-109.35 588.18,-111.96 591.45,-116.07"/>
</g>
<!-- 0x9e5660 -->
<g id="node9" class="node">
<title>0x9e5660</title>
<ellipse fill="#9dd9f3" stroke="black" cx="619.49" cy="-18" rx="110.26" ry="18"/>
<text text-anchor="middle" x="619.49" y="-13.8" font-family="Times,serif" font-size="14.00">poisson::action::finalize()</text>
</g>
<!-- finalize&#45;&gt;0x9e5660 -->
<g id="edge8" class="edge">
<title>finalize:c&#45;&gt;0x9e5660:c</title>
<path fill="none" stroke="black" stroke-width="1.5" d="M619.49,-71.7C619.49,-63.81 619.49,-54.3 619.49,-45.55"/>
<polygon fill="black" stroke="black" stroke-width="1.5" points="622.12,-45.6 619.49,-38.1 616.87,-45.6 622.12,-45.6"/>
</g>
</g>
</svg>
