<?xml version="1.0" encoding="UTF-8" standalone="no"?>
<!DOCTYPE svg PUBLIC "-//W3C//DTD SVG 1.1//EN"
 "http://www.w3.org/Graphics/SVG/1.1/DTD/svg11.dtd">
<!-- Generated by graphviz version 2.49.0 (0)
 -->
<!-- Title: graph Pages: 1 -->
<svg width="738pt" height="332pt"
 viewBox="0.00 0.00 737.75 332.00" xmlns="http://www.w3.org/2000/svg" xmlns:xlink="http://www.w3.org/1999/xlink">
<g id="graph0" class="graph" transform="scale(1 1) rotate(0) translate(4 328)">
<title>graph</title>
<polygon fill="white" stroke="transparent" points="-4,4 -4,-328 733.75,-328 733.75,4 -4,4"/>
<!-- initialize -->
<g id="node1" class="node">
<title>initialize</title>
<path fill="none" stroke="black" d="M259.98,-324C259.98,-324 219,-324 219,-324 213,-324 207,-318 207,-312 207,-312 207,-300 207,-300 207,-294 213,-288 219,-288 219,-288 259.98,-288 259.98,-288 265.98,-288 271.98,-294 271.98,-300 271.98,-300 271.98,-312 271.98,-312 271.98,-318 265.98,-324 259.98,-324"/>
<text text-anchor="middle" x="239.49" y="-301.8" font-family="Times,serif" font-size="14.00">initialize</text>
</g>
<!-- 0x9e56c0 -->
<g id="node2" class="node">
<title>0x9e56c0</title>
<ellipse fill="#77c3ec" stroke="black" cx="148.49" cy="-234" rx="119.3" ry="18"/>
<text text-anchor="middle" x="148.49" y="-229.8" font-family="Times,serif" font-size="14.00">poisson::action::init_mesh()</text>
</g>
<!-- initialize&#45;&gt;0x9e56c0 -->
<g id="edge1" class="edge">
<title>initialize:c&#45;&gt;0x9e56c0:c</title>
<path fill="none" stroke="black" stroke-width="1.5" d="M217,-287.7C204.78,-278.3 189.57,-266.6 176.58,-256.61"/>
<polygon fill="black" stroke="black" stroke-width="1.5" points="177.96,-254.36 170.41,-251.86 174.76,-258.52 177.96,-254.36"/>
</g>
<!-- solve -->
<g id="node3" class="node">
<title>solve</title>
<path fill="none" stroke="black" d="M379.49,-252C379.49,-252 349.49,-252 349.49,-252 343.49,-252 337.49,-246 337.49,-240 337.49,-240 337.49,-228 337.49,-228 337.49,-222 343.49,-216 349.49,-216 349.49,-216 379.49,-216 379.49,-216 385.49,-216 391.49,-222 391.49,-228 391.49,-228 391.49,-240 391.49,-240 391.49,-246 385.49,-252 379.49,-252"/>
<text text-anchor="middle" x="364.49" y="-229.8" font-family="Times,serif" font-size="14.00">solve</text>
</g>
<!-- initialize&#45;&gt;solve -->
<g id="edge2" class="edge">
<title>initialize:c&#45;&gt;solve:c</title>
<path fill="none" stroke="#1d76db" stroke-width="2" d="M270.07,-287.88C288.35,-277.64 311.61,-264.61 330.47,-254.05"/>
<polygon fill="#1d76db" stroke="#1d76db" stroke-width="2" points="331.94,-256.23 337.21,-250.28 329.38,-251.65 331.94,-256.23"/>
</g>
<!-- 0x9e5760 -->
<g id="node4" class="node">
<title>0x9e5760</title>
<ellipse fill="#77c3ec" stroke="black" cx="113.49" cy="-162" rx="113.48" ry="18"/>
<text text-anchor="middle" x="113.49" y="-157.8" font-family="Times,serif" font-size="14.00">poisson::action::problem()</text>
</g>
<!-- 0x9e56c0&#45;&gt;0x9e5760 -->
<g id="edge3" class="edge">
<title>0x9e56c0:c&#45;&gt;0x9e5760:c</title>
<path fill="none" stroke="black" stroke-width="1.5" d="M139.84,-215.7C135.52,-207.05 130.21,-196.45 125.5,-187.03"/>
<polygon fill="black" stroke="black" stroke-width="1.5" points="127.74,-185.64 122.04,-180.1 123.05,-187.99 127.74,-185.64"/>
</g>
<!-- 0x9e57c0 -->
<g id="node5" class="node">
<title>0x9e57c0</title>
<ellipse fill="#b8e2f2" stroke="black" cx="364.49" cy="-162" rx="101.88" ry="18"/>
<text text-anchor="middle" x="364.49" y="-157.8" font-family="Times,serif" font-size="14.00">poisson::action::solve()</text>
</g>
<!-- solve&#45;&gt;0x9e57c0 -->
<g id="edge4" class="edge">
<title>solve:c&#45;&gt;0x9e57c0:c</title>
<path fill="none" stroke="black" stroke-width="1.5" d="M364.49,-215.7C364.49,-207.3 364.49,-197.07 364.49,-187.86"/>
<polygon fill="black" stroke="black" stroke-width="1.5" points="367.12,-187.6 364.49,-180.1 361.87,-187.6 367.12,-187.6"/>
</g>
<!-- analyze -->
<g id="node6" class="node">
<title>analyze</title>
<path fill="none" stroke="black" d="M548.74,-180C548.74,-180 514.24,-180 514.24,-180 508.24,-180 502.24,-174 502.24,-168 502.24,-168 502.24,-156 502.24,-156 502.24,-150 508.24,-144 514.24,-144 514.24,-144 548.74,-144 548.74,-144 554.74,-144 560.74,-150 560.74,-156 560.74,-156 560.74,-168 560.74,-168 560.74,-174 554.74,-180 548.74,-180"/>
<text text-anchor="middle" x="531.49" y="-157.8" font-family="Times,serif" font-size="14.00">analyze</text>
</g>
<!-- solve&#45;&gt;analyze -->
<g id="edge5" class="edge">
<title>solve:c&#45;&gt;analyze:c</title>
<path fill="none" stroke="#1d76db" stroke-width="2" d="M391.69,-221.6C419.76,-209.83 463.71,-191.41 494.83,-178.37"/>
<polygon fill="#1d76db" stroke="#1d76db" stroke-width="2" points="496.15,-180.66 502.05,-175.34 494.12,-175.82 496.15,-180.66"/>
</g>
<!-- 0x9e5600 -->
<g id="node7" class="node">
<title>0x9e5600</title>
<ellipse fill="#4eb2e0" stroke="black" cx="443.49" cy="-90" rx="110.59" ry="18"/>
<text text-anchor="middle" x="443.49" y="-85.8" font-family="Times,serif" font-size="14.00">poisson::action::analyze()</text>
</g>
<!-- analyze&#45;&gt;0x9e5600 -->
<g id="edge6" class="edge">
<title>analyze:c&#45;&gt;0x9e5600:c</title>
<path fill="none" stroke="black" stroke-width="1.5" d="M509.74,-143.7C497.93,-134.3 483.22,-122.6 470.66,-112.61"/>
<polygon fill="black" stroke="black" stroke-width="1.5" points="472.19,-110.48 464.69,-107.86 468.92,-114.59 472.19,-110.48"/>
</g>
<!-- finalize -->
<g id="node8" class="node">
<title>finalize</title>
<path fill="none" stroke="black" d="M636.47,-108C636.47,-108 602.51,-108 602.51,-108 596.51,-108 590.51,-102 590.51,-96 590.51,-96 590.51,-84 590.51,-84 590.51,-78 596.51,-72 602.51,-72 602.51,-72 636.47,-72 636.47,-72 642.47,-72 648.47,-78 648.47,-84 648.47,-84 648.47,-96 648.47,-96 648.47,-102 642.47,-108 636.47,-108"/>
<text text-anchor="middle" x="619.49" y="-85.8" font-family="Times,serif" font-size="14.00">finalize</text>
</g>
<!-- analyze&#45;&gt;finalize -->
<g id="edge7" class="edge">
<title>analyze:c&#45;&gt;finalize:c</title>
<path fill="none" stroke="#1d76db" stroke-width="2" d="M553.24,-143.7C564.96,-134.37 579.55,-122.77 592.04,-112.83"/>
<polygon fill="#1d76db" stroke="#1d76db" stroke-width="2" points="593.75,-114.83 597.99,-108.1 590.48,-110.72 593.75,-114.83"/>
</g>
<!-- 0x9e5660 -->
<g id="node9" class="node">
<title>0x9e5660</title>
<ellipse fill="#9dd9f3" stroke="black" cx="619.49" cy="-18" rx="110.02" ry="18"/>
<text text-anchor="middle" x="619.49" y="-13.8" font-family="Times,serif" font-size="14.00">poisson::action::finalize()</text>
</g>
<!-- finalize&#45;&gt;0x9e5660 -->
<g id="edge8" class="edge">
<title>finalize:c&#45;&gt;0x9e5660:c</title>
<path fill="none" stroke="black" stroke-width="1.5" d="M619.49,-71.7C619.49,-63.3 619.49,-53.07 619.49,-43.86"/>
<polygon fill="black" stroke="black" stroke-width="1.5" points="622.12,-43.6 619.49,-36.1 616.87,-43.6 622.12,-43.6"/>
</g>
</g>
</svg>
