<?xml version="1.0" encoding="UTF-8" standalone="no"?>
<!DOCTYPE svg PUBLIC "-//W3C//DTD SVG 1.1//EN"
 "http://www.w3.org/Graphics/SVG/1.1/DTD/svg11.dtd">
<!-- Generated by graphviz version 8.0.5 (0)
 -->
<!-- Title: graph Pages: 1 -->
<svg width="104pt" height="764pt"
 viewBox="0.00 0.00 104.08 764.00" xmlns="http://www.w3.org/2000/svg" xmlns:xlink="http://www.w3.org/1999/xlink">
<g id="graph0" class="graph" transform="scale(1 1) rotate(0) translate(4 760)">
<title>graph</title>
<polygon fill="white" stroke="none" points="-4,4 -4,-760 100.08,-760 100.08,4 -4,4"/>
<!-- 0x716ac0 -->
<g id="node1" class="node">
<title>0x716ac0</title>
<ellipse fill="#77c3ec" stroke="black" cx="48.04" cy="-738" rx="48.04" ry="18"/>
<text text-anchor="middle" x="48.04" y="-733.8" font-family="Times,serif" font-size="14.00">actionX()</text>
</g>
<!-- 0x716b20 -->
<g id="node2" class="node">
<title>0x716b20</title>
<ellipse fill="#b8e2f2" stroke="black" cx="48.04" cy="-666" rx="48.04" ry="18"/>
<text text-anchor="middle" x="48.04" y="-661.8" font-family="Times,serif" font-size="14.00">actionA()</text>
</g>
<!-- 0x716ac0&#45;&gt;0x716b20 -->
<g id="edge1" class="edge">
<title>0x716ac0:c&#45;&gt;0x716b20:c</title>
<path fill="none" stroke="black" stroke-width="1.5" d="M48.04,-719.7C48.04,-711.81 48.04,-702.3 48.04,-693.55"/>
<polygon fill="black" stroke="black" stroke-width="1.5" points="50.66,-693.6 48.04,-686.1 45.41,-693.6 50.66,-693.6"/>
</g>
<!-- 0x716b80 -->
<g id="node3" class="node">
<title>0x716b80</title>
<ellipse fill="#b8e2f2" stroke="black" cx="48.04" cy="-594" rx="47.5" ry="18"/>
<text text-anchor="middle" x="48.04" y="-589.8" font-family="Times,serif" font-size="14.00">actionB()</text>
</g>
<!-- 0x716b20&#45;&gt;0x716b80 -->
<g id="edge2" class="edge">
<title>0x716b20:c&#45;&gt;0x716b80:c</title>
<path fill="none" stroke="black" stroke-width="1.5" d="M48.04,-647.7C48.04,-639.81 48.04,-630.3 48.04,-621.55"/>
<polygon fill="black" stroke="black" stroke-width="1.5" points="50.66,-621.6 48.04,-614.1 45.41,-621.6 50.66,-621.6"/>
</g>
<!-- 0x716be0 -->
<g id="node4" class="node">
<title>0x716be0</title>
<ellipse fill="#b8e2f2" stroke="black" cx="48.04" cy="-522" rx="47.5" ry="18"/>
<text text-anchor="middle" x="48.04" y="-517.8" font-family="Times,serif" font-size="14.00">actionC()</text>
</g>
<!-- 0x716b80&#45;&gt;0x716be0 -->
<g id="edge3" class="edge">
<title>0x716b80:c&#45;&gt;0x716be0:c</title>
<path fill="none" stroke="black" stroke-width="1.5" d="M48.04,-575.7C48.04,-567.81 48.04,-558.3 48.04,-549.55"/>
<polygon fill="black" stroke="black" stroke-width="1.5" points="50.66,-549.6 48.04,-542.1 45.41,-549.6 50.66,-549.6"/>
</g>
<!-- 0x716c40 -->
<g id="node5" class="node">
<title>0x716c40</title>
<ellipse fill="#b8e2f2" stroke="black" cx="48.04" cy="-450" rx="48.04" ry="18"/>
<text text-anchor="middle" x="48.04" y="-445.8" font-family="Times,serif" font-size="14.00">actionD()</text>
</g>
<!-- 0x716be0&#45;&gt;0x716c40 -->
<g id="edge4" class="edge">
<title>0x716be0:c&#45;&gt;0x716c40:c</title>
<path fill="none" stroke="black" stroke-width="1.5" d="M48.04,-503.7C48.04,-495.81 48.04,-486.3 48.04,-477.55"/>
<polygon fill="black" stroke="black" stroke-width="1.5" points="50.66,-477.6 48.04,-470.1 45.41,-477.6 50.66,-477.6"/>
</g>
<!-- 0x716ca0 -->
<g id="node6" class="node">
<title>0x716ca0</title>
<ellipse fill="#b8e2f2" stroke="black" cx="48.04" cy="-378" rx="46.96" ry="18"/>
<text text-anchor="middle" x="48.04" y="-373.8" font-family="Times,serif" font-size="14.00">actionE()</text>
</g>
<!-- 0x716c40&#45;&gt;0x716ca0 -->
<g id="edge5" class="edge">
<title>0x716c40:c&#45;&gt;0x716ca0:c</title>
<path fill="none" stroke="black" stroke-width="1.5" d="M48.04,-431.7C48.04,-423.81 48.04,-414.3 48.04,-405.55"/>
<polygon fill="black" stroke="black" stroke-width="1.5" points="50.66,-405.6 48.04,-398.1 45.41,-405.6 50.66,-405.6"/>
</g>
<!-- 0x716d00 -->
<g id="node7" class="node">
<title>0x716d00</title>
<ellipse fill="#4eb2e0" stroke="black" cx="48.04" cy="-306" rx="46.43" ry="18"/>
<text text-anchor="middle" x="48.04" y="-301.8" font-family="Times,serif" font-size="14.00">actionF()</text>
</g>
<!-- 0x716ca0&#45;&gt;0x716d00 -->
<g id="edge6" class="edge">
<title>0x716ca0:c&#45;&gt;0x716d00:c</title>
<path fill="none" stroke="black" stroke-width="1.5" d="M48.04,-359.7C48.04,-351.81 48.04,-342.3 48.04,-333.55"/>
<polygon fill="black" stroke="black" stroke-width="1.5" points="50.66,-333.6 48.04,-326.1 45.41,-333.6 50.66,-333.6"/>
</g>
<!-- 0x716d60 -->
<g id="node8" class="node">
<title>0x716d60</title>
<ellipse fill="#4eb2e0" stroke="black" cx="48.04" cy="-234" rx="48.04" ry="18"/>
<text text-anchor="middle" x="48.04" y="-229.8" font-family="Times,serif" font-size="14.00">actionG()</text>
</g>
<!-- 0x716d00&#45;&gt;0x716d60 -->
<g id="edge7" class="edge">
<title>0x716d00:c&#45;&gt;0x716d60:c</title>
<path fill="none" stroke="black" stroke-width="1.5" d="M48.04,-287.7C48.04,-279.81 48.04,-270.3 48.04,-261.55"/>
<polygon fill="black" stroke="black" stroke-width="1.5" points="50.66,-261.6 48.04,-254.1 45.41,-261.6 50.66,-261.6"/>
</g>
<!-- 0x716dc0 -->
<g id="node9" class="node">
<title>0x716dc0</title>
<ellipse fill="#4eb2e0" stroke="black" cx="48.04" cy="-162" rx="48.04" ry="18"/>
<text text-anchor="middle" x="48.04" y="-157.8" font-family="Times,serif" font-size="14.00">actionH()</text>
</g>
<!-- 0x716d60&#45;&gt;0x716dc0 -->
<g id="edge8" class="edge">
<title>0x716d60:c&#45;&gt;0x716dc0:c</title>
<path fill="none" stroke="black" stroke-width="1.5" d="M48.04,-215.7C48.04,-207.81 48.04,-198.3 48.04,-189.55"/>
<polygon fill="black" stroke="black" stroke-width="1.5" points="50.66,-189.6 48.04,-182.1 45.41,-189.6 50.66,-189.6"/>
</g>
<!-- 0x716e20 -->
<g id="node10" class="node">
<title>0x716e20</title>
<ellipse fill="#4eb2e0" stroke="black" cx="48.04" cy="-90" rx="44.28" ry="18"/>
<text text-anchor="middle" x="48.04" y="-85.8" font-family="Times,serif" font-size="14.00">actionI()</text>
</g>
<!-- 0x716dc0&#45;&gt;0x716e20 -->
<g id="edge9" class="edge">
<title>0x716dc0:c&#45;&gt;0x716e20:c</title>
<path fill="none" stroke="black" stroke-width="1.5" d="M48.04,-143.7C48.04,-135.81 48.04,-126.3 48.04,-117.55"/>
<polygon fill="black" stroke="black" stroke-width="1.5" points="50.66,-117.6 48.04,-110.1 45.41,-117.6 50.66,-117.6"/>
</g>
<!-- 0x716e80 -->
<g id="node11" class="node">
<title>0x716e80</title>
<ellipse fill="#9dd9f3" stroke="black" cx="48.04" cy="-18" rx="48.04" ry="18"/>
<text text-anchor="middle" x="48.04" y="-13.8" font-family="Times,serif" font-size="14.00">actionY()</text>
</g>
<!-- 0x716e20&#45;&gt;0x716e80 -->
<g id="edge10" class="edge">
<title>0x716e20:c&#45;&gt;0x716e80:c</title>
<path fill="none" stroke="black" stroke-width="1.5" d="M48.04,-71.7C48.04,-63.81 48.04,-54.3 48.04,-45.55"/>
<polygon fill="black" stroke="black" stroke-width="1.5" points="50.66,-45.6 48.04,-38.1 45.41,-45.6 50.66,-45.6"/>
</g>
</g>
</svg>
