<?xml version="1.0" encoding="UTF-8" standalone="no"?>
<!DOCTYPE svg PUBLIC "-//W3C//DTD SVG 1.1//EN"
 "http://www.w3.org/Graphics/SVG/1.1/DTD/svg11.dtd">
<!-- Generated by graphviz version 2.49.0 (0)
 -->
<!-- Title: graph Pages: 1 -->
<svg width="281pt" height="260pt"
 viewBox="0.00 0.00 280.68 260.00" xmlns="http://www.w3.org/2000/svg" xmlns:xlink="http://www.w3.org/1999/xlink">
<g id="graph0" class="graph" transform="scale(1 1) rotate(0) translate(4 256)">
<title>graph</title>
<polygon fill="white" stroke="transparent" points="-4,4 -4,-256 276.68,-256 276.68,4 -4,4"/>
<!-- initialize -->
<g id="node1" class="node">
<title>initialize</title>
<path fill="none" stroke="black" d="M130.74,-252C130.74,-252 89.77,-252 89.77,-252 83.77,-252 77.77,-246 77.77,-240 77.77,-240 77.77,-228 77.77,-228 77.77,-222 83.77,-216 89.77,-216 89.77,-216 130.74,-216 130.74,-216 136.74,-216 142.74,-222 142.74,-228 142.74,-228 142.74,-240 142.74,-240 142.74,-246 136.74,-252 130.74,-252"/>
<text text-anchor="middle" x="110.26" y="-229.8" font-family="Times,serif" font-size="14.00">initialize</text>
</g>
<!-- 0x70fac0 -->
<g id="node2" class="node">
<title>0x70fac0</title>
<ellipse fill="#77c3ec" stroke="black" cx="51.26" cy="-162" rx="51.01" ry="18"/>
<text text-anchor="middle" x="51.26" y="-157.8" font-family="Times,serif" font-size="14.00">initialize()</text>
</g>
<!-- initialize&#45;&gt;0x70fac0 -->
<g id="edge1" class="edge">
<title>initialize:c&#45;&gt;0x70fac0:c</title>
<path fill="none" stroke="black" stroke-width="1.5" d="M95.67,-215.7C87.99,-206.58 78.47,-195.28 70.21,-185.49"/>
<polygon fill="black" stroke="black" stroke-width="1.5" points="72.11,-183.67 65.27,-179.62 68.09,-187.05 72.11,-183.67"/>
</g>
<!-- advance -->
<g id="node3" class="node">
<title>advance</title>
<path fill="none" stroke="black" d="M188.12,-180C188.12,-180 150.4,-180 150.4,-180 144.4,-180 138.4,-174 138.4,-168 138.4,-168 138.4,-156 138.4,-156 138.4,-150 144.4,-144 150.4,-144 150.4,-144 188.12,-144 188.12,-144 194.12,-144 200.12,-150 200.12,-156 200.12,-156 200.12,-168 200.12,-168 200.12,-174 194.12,-180 188.12,-180"/>
<text text-anchor="middle" x="169.26" y="-157.8" font-family="Times,serif" font-size="14.00">advance</text>
</g>
<!-- initialize&#45;&gt;advance -->
<g id="edge2" class="edge">
<title>initialize:c&#45;&gt;advance:c</title>
<path fill="none" stroke="#1d76db" stroke-width="2" d="M124.84,-215.7C132.41,-206.71 141.77,-195.61 149.93,-185.92"/>
<polygon fill="#1d76db" stroke="#1d76db" stroke-width="2" points="152.01,-187.53 154.84,-180.1 148,-184.15 152.01,-187.53"/>
</g>
<!-- 0x70fb20 -->
<g id="node4" class="node">
<title>0x70fb20</title>
<ellipse fill="#b8e2f2" stroke="black" cx="112.26" cy="-90" rx="49.2" ry="18"/>
<text text-anchor="middle" x="112.26" y="-85.8" font-family="Times,serif" font-size="14.00">advance()</text>
</g>
<!-- advance&#45;&gt;0x70fb20 -->
<g id="edge3" class="edge">
<title>advance:c&#45;&gt;0x70fb20:c</title>
<path fill="none" stroke="black" stroke-width="1.5" d="M155.17,-143.7C147.74,-134.58 138.54,-123.28 130.57,-113.49"/>
<polygon fill="black" stroke="black" stroke-width="1.5" points="132.56,-111.78 125.79,-107.62 128.49,-115.1 132.56,-111.78"/>
</g>
<!-- finalize -->
<g id="node5" class="node">
<title>finalize</title>
<path fill="none" stroke="black" d="M243.23,-108C243.23,-108 209.28,-108 209.28,-108 203.28,-108 197.28,-102 197.28,-96 197.28,-96 197.28,-84 197.28,-84 197.28,-78 203.28,-72 209.28,-72 209.28,-72 243.23,-72 243.23,-72 249.23,-72 255.23,-78 255.23,-84 255.23,-84 255.23,-96 255.23,-96 255.23,-102 249.23,-108 243.23,-108"/>
<text text-anchor="middle" x="226.26" y="-85.8" font-family="Times,serif" font-size="14.00">finalize</text>
</g>
<!-- advance&#45;&gt;finalize -->
<g id="edge4" class="edge">
<title>advance:c&#45;&gt;finalize:c</title>
<path fill="none" stroke="#1d76db" stroke-width="2" d="M183.35,-143.7C190.66,-134.71 199.7,-123.61 207.59,-113.92"/>
<polygon fill="#1d76db" stroke="#1d76db" stroke-width="2" points="209.63,-115.58 212.33,-108.1 205.56,-112.26 209.63,-115.58"/>
</g>
<!-- 0x70fb80 -->
<g id="node6" class="node">
<title>0x70fb80</title>
<ellipse fill="#4eb2e0" stroke="black" cx="226.26" cy="-18" rx="46.34" ry="18"/>
<text text-anchor="middle" x="226.26" y="-13.8" font-family="Times,serif" font-size="14.00">finalize()</text>
</g>
<!-- finalize&#45;&gt;0x70fb80 -->
<g id="edge5" class="edge">
<title>finalize:c&#45;&gt;0x70fb80:c</title>
<path fill="none" stroke="black" stroke-width="1.5" d="M226.26,-71.7C226.26,-63.3 226.26,-53.07 226.26,-43.86"/>
<polygon fill="black" stroke="black" stroke-width="1.5" points="228.88,-43.6 226.26,-36.1 223.63,-43.6 228.88,-43.6"/>
</g>
</g>
</svg>
