<?xml version="1.0" encoding="UTF-8" standalone="no"?>
<!DOCTYPE svg PUBLIC "-//W3C//DTD SVG 1.1//EN"
 "http://www.w3.org/Graphics/SVG/1.1/DTD/svg11.dtd">
<!-- Generated by graphviz version 8.0.5 (0)
 -->
<!-- Title: graph Pages: 1 -->
<svg width="281pt" height="260pt"
 viewBox="0.00 0.00 280.67 260.00" xmlns="http://www.w3.org/2000/svg" xmlns:xlink="http://www.w3.org/1999/xlink">
<g id="graph0" class="graph" transform="scale(1 1) rotate(0) translate(4 256)">
<title>graph</title>
<polygon fill="white" stroke="none" points="-4,4 -4,-256 276.67,-256 276.67,4 -4,4"/>
<!-- initialize -->
<g id="node1" class="node">
<title>initialize</title>
<path fill="none" stroke="black" d="M130.74,-252C130.74,-252 89.76,-252 89.76,-252 83.76,-252 77.76,-246 77.76,-240 77.76,-240 77.76,-228 77.76,-228 77.76,-222 83.76,-216 89.76,-216 89.76,-216 130.74,-216 130.74,-216 136.74,-216 142.74,-222 142.74,-228 142.74,-228 142.74,-240 142.74,-240 142.74,-246 136.74,-252 130.74,-252"/>
<text text-anchor="middle" x="110.25" y="-229.8" font-family="Times,serif" font-size="14.00">initialize</text>
</g>
<!-- 0x70fac0 -->
<g id="node2" class="node">
<title>0x70fac0</title>
<ellipse fill="#77c3ec" stroke="black" cx="51.25" cy="-162" rx="51.25" ry="18"/>
<text text-anchor="middle" x="51.25" y="-157.8" font-family="Times,serif" font-size="14.00">initialize()</text>
</g>
<!-- initialize&#45;&gt;0x70fac0 -->
<g id="edge1" class="edge">
<title>initialize:c&#45;&gt;0x70fac0:c</title>
<path fill="none" stroke="black" stroke-width="1.5" d="M95.67,-215.7C88.27,-206.92 79.18,-196.13 71.15,-186.61"/>
<polygon fill="black" stroke="black" stroke-width="1.5" points="73.1,-184.67 66.26,-180.62 69.09,-188.05 73.1,-184.67"/>
</g>
<!-- advance -->
<g id="node3" class="node">
<title>advance</title>
<path fill="none" stroke="black" d="M188.18,-180C188.18,-180 150.33,-180 150.33,-180 144.33,-180 138.33,-174 138.33,-168 138.33,-168 138.33,-156 138.33,-156 138.33,-150 144.33,-144 150.33,-144 150.33,-144 188.18,-144 188.18,-144 194.18,-144 200.18,-150 200.18,-156 200.18,-156 200.18,-168 200.18,-168 200.18,-174 194.18,-180 188.18,-180"/>
<text text-anchor="middle" x="169.25" y="-157.8" font-family="Times,serif" font-size="14.00">advance</text>
</g>
<!-- initialize&#45;&gt;advance -->
<g id="edge2" class="edge">
<title>initialize:c&#45;&gt;advance:c</title>
<path fill="none" stroke="#1d76db" stroke-width="2" d="M124.84,-215.7C132.27,-206.88 141.41,-196.03 149.47,-186.47"/>
<polygon fill="#1d76db" stroke="#1d76db" stroke-width="2" points="151.01,-189.53 153.84,-182.1 147,-186.15 151.01,-189.53"/>
</g>
<!-- 0x70fb20 -->
<g id="node4" class="node">
<title>0x70fb20</title>
<ellipse fill="#b8e2f2" stroke="black" cx="112.25" cy="-90" rx="49.1" ry="18"/>
<text text-anchor="middle" x="112.25" y="-85.8" font-family="Times,serif" font-size="14.00">advance()</text>
</g>
<!-- advance&#45;&gt;0x70fb20 -->
<g id="edge3" class="edge">
<title>advance:c&#45;&gt;0x70fb20:c</title>
<path fill="none" stroke="black" stroke-width="1.5" d="M155.16,-143.7C148.09,-135.01 139.4,-124.34 131.7,-114.89"/>
<polygon fill="black" stroke="black" stroke-width="1.5" points="133.56,-112.78 126.79,-108.62 129.49,-116.1 133.56,-112.78"/>
</g>
<!-- finalize -->
<g id="node5" class="node">
<title>finalize</title>
<path fill="none" stroke="black" d="M243.24,-108C243.24,-108 209.27,-108 209.27,-108 203.27,-108 197.27,-102 197.27,-96 197.27,-96 197.27,-84 197.27,-84 197.27,-78 203.27,-72 209.27,-72 209.27,-72 243.24,-72 243.24,-72 249.24,-72 255.24,-78 255.24,-84 255.24,-84 255.24,-96 255.24,-96 255.24,-102 249.24,-108 243.24,-108"/>
<text text-anchor="middle" x="226.25" y="-85.8" font-family="Times,serif" font-size="14.00">finalize</text>
</g>
<!-- advance&#45;&gt;finalize -->
<g id="edge4" class="edge">
<title>advance:c&#45;&gt;finalize:c</title>
<path fill="none" stroke="#1d76db" stroke-width="2" d="M183.34,-143.7C190.52,-134.88 199.36,-124.03 207.14,-114.47"/>
<polygon fill="#1d76db" stroke="#1d76db" stroke-width="2" points="208.63,-117.58 211.33,-110.1 204.55,-114.26 208.63,-117.58"/>
</g>
<!-- 0x70fb80 -->
<g id="node6" class="node">
<title>0x70fb80</title>
<ellipse fill="#4eb2e0" stroke="black" cx="226.25" cy="-18" rx="46.42" ry="18"/>
<text text-anchor="middle" x="226.25" y="-13.8" font-family="Times,serif" font-size="14.00">finalize()</text>
</g>
<!-- finalize&#45;&gt;0x70fb80 -->
<g id="edge5" class="edge">
<title>finalize:c&#45;&gt;0x70fb80:c</title>
<path fill="none" stroke="black" stroke-width="1.5" d="M226.25,-71.7C226.25,-63.81 226.25,-54.3 226.25,-45.55"/>
<polygon fill="black" stroke="black" stroke-width="1.5" points="228.88,-45.6 226.25,-38.1 223.63,-45.6 228.88,-45.6"/>
</g>
</g>
</svg>
