<?xml version="1.0" encoding="UTF-8" standalone="no"?>
<!DOCTYPE svg PUBLIC "-//W3C//DTD SVG 1.1//EN"
 "http://www.w3.org/Graphics/SVG/1.1/DTD/svg11.dtd">
<!-- Generated by graphviz version 8.0.5 (0)
 -->
<!-- Title: sph control model Pages: 1 -->
<svg width="405pt" height="352pt"
 viewBox="0.00 0.00 404.66 351.80" xmlns="http://www.w3.org/2000/svg" xmlns:xlink="http://www.w3.org/1999/xlink">
<g id="graph0" class="graph" transform="scale(1 1) rotate(0) translate(4 347.8)">
<title>sph control model</title>
<polygon fill="white" stroke="none" points="-4,4 -4,-347.8 400.66,-347.8 400.66,4 -4,4"/>
<!-- initialize -->
<g id="node1" class="node">
<title>initialize</title>
<path fill="none" stroke="black" d="M114.74,-343.8C114.74,-343.8 73.76,-343.8 73.76,-343.8 67.76,-343.8 61.76,-337.8 61.76,-331.8 61.76,-331.8 61.76,-319.8 61.76,-319.8 61.76,-313.8 67.76,-307.8 73.76,-307.8 73.76,-307.8 114.74,-307.8 114.74,-307.8 120.74,-307.8 126.74,-313.8 126.74,-319.8 126.74,-319.8 126.74,-331.8 126.74,-331.8 126.74,-337.8 120.74,-343.8 114.74,-343.8"/>
<text text-anchor="middle" x="94.25" y="-321.6" font-family="Times,serif" font-size="14.00">initialize</text>
</g>
<!-- 0xca64a0 -->
<g id="node2" class="node">
<title>0xca64a0</title>
<ellipse fill="#77c3ec" stroke="black" cx="73.25" cy="-252.8" rx="73.25" ry="18"/>
<text text-anchor="middle" x="73.25" y="-248.6" font-family="Times,serif" font-size="14.00">initialize_action</text>
</g>
<!-- initialize&#45;&gt;0xca64a0 -->
<g id="edge1" class="edge">
<title>initialize:c&#45;&gt;0xca64a0:c</title>
<path fill="none" stroke="black" stroke-width="1.5" d="M89.16,-307.61C86.69,-299.24 83.66,-289 80.91,-279.7"/>
<polygon fill="black" stroke="black" stroke-width="1.5" points="82.93,-279.28 78.28,-272.83 77.89,-280.77 82.93,-279.28"/>
</g>
<!-- iterate -->
<g id="node3" class="node">
<title>iterate</title>
<path fill="none" stroke="black" d="M224.25,-270.8C224.25,-270.8 194.25,-270.8 194.25,-270.8 188.25,-270.8 182.25,-264.8 182.25,-258.8 182.25,-258.8 182.25,-246.8 182.25,-246.8 182.25,-240.8 188.25,-234.8 194.25,-234.8 194.25,-234.8 224.25,-234.8 224.25,-234.8 230.25,-234.8 236.25,-240.8 236.25,-246.8 236.25,-246.8 236.25,-258.8 236.25,-258.8 236.25,-264.8 230.25,-270.8 224.25,-270.8"/>
<text text-anchor="middle" x="209.25" y="-248.6" font-family="Times,serif" font-size="14.00">iterate</text>
</g>
<!-- initialize&#45;&gt;iterate -->
<g id="edge2" class="edge">
<title>initialize:c&#45;&gt;iterate:c</title>
<path fill="none" stroke="#1d76db" stroke-width="2" d="M122.38,-307.43C138.2,-297.66 158.09,-285.39 174.84,-275.04"/>
<polygon fill="#1d76db" stroke="#1d76db" stroke-width="2" points="174.8,-277.92 179.8,-271.74 172.04,-273.45 174.8,-277.92"/>
</g>
<!-- 0xca6500 -->
<g id="node4" class="node">
<title>0xca6500</title>
<ellipse fill="#b8e2f2" stroke="black" cx="115.25" cy="-164" rx="63.58" ry="18"/>
<text text-anchor="middle" x="115.25" y="-159.8" font-family="Times,serif" font-size="14.00">iterate_action</text>
</g>
<!-- iterate&#45;&gt;0xca6500 -->
<g id="edge3" class="edge">
<title>iterate:c&#45;&gt;0xca6500:c</title>
<path fill="none" stroke="black" stroke-width="1.5" d="M190.67,-234.65C176.2,-221.28 155.96,-202.59 140.09,-187.94"/>
<polygon fill="black" stroke="black" stroke-width="1.5" points="141.43,-185.68 134.14,-182.52 137.87,-189.54 141.43,-185.68"/>
</g>
<!-- output -->
<g id="node5" class="node">
<title>output</title>
<path fill="none" stroke="black" d="M257.25,-182C257.25,-182 227.25,-182 227.25,-182 221.25,-182 215.25,-176 215.25,-170 215.25,-170 215.25,-158 215.25,-158 215.25,-152 221.25,-146 227.25,-146 227.25,-146 257.25,-146 257.25,-146 263.25,-146 269.25,-152 269.25,-158 269.25,-158 269.25,-170 269.25,-170 269.25,-176 263.25,-182 257.25,-182"/>
<text text-anchor="middle" x="242.25" y="-159.8" font-family="Times,serif" font-size="14.00">output</text>
</g>
<!-- iterate&#45;&gt;output -->
<g id="edge4" class="edge">
<title>iterate:c&#45;&gt;output:c</title>
<path fill="none" stroke="#1d76db" stroke-width="2" d="M215.77,-234.65C220.61,-221.89 227.31,-204.29 232.75,-189.97"/>
<polygon fill="#1d76db" stroke="#1d76db" stroke-width="2" points="234.41,-192.35 234.63,-184.41 229.51,-190.49 234.41,-192.35"/>
</g>
<!-- output&#45;&gt;iterate -->
<g id="edge5" class="edge">
<title>output:e&#45;&gt;iterate:e</title>
<path fill="none" stroke="#1d76db" stroke-width="2" stroke-dasharray="5,2" d="M270.25,-164C309.55,-164 283.4,-241.4 245.49,-251.68"/>
<polygon fill="#1d76db" stroke="#1d76db" stroke-width="2" points="246.32,-249.19 239.25,-252.8 247.03,-254.39 246.32,-249.19"/>
<text text-anchor="middle" x="304.76" y="-204.2" font-family="Times,serif" font-size="14.00"> cycle</text>
</g>
<!-- 0xca6560 -->
<g id="node6" class="node">
<title>0xca6560</title>
<ellipse fill="#4eb2e0" stroke="black" cx="199.25" cy="-91" rx="64.14" ry="18"/>
<text text-anchor="middle" x="199.25" y="-86.8" font-family="Times,serif" font-size="14.00">output_action</text>
</g>
<!-- output&#45;&gt;0xca6560 -->
<g id="edge6" class="edge">
<title>output:c&#45;&gt;0xca6560:c</title>
<path fill="none" stroke="black" stroke-width="1.5" d="M231.84,-145.81C226.61,-137.18 220.17,-126.56 214.41,-117.03"/>
<polygon fill="black" stroke="black" stroke-width="1.5" points="216.69,-115.08 210.56,-110.03 212.2,-117.8 216.69,-115.08"/>
</g>
<!-- finalize -->
<g id="node7" class="node">
<title>finalize</title>
<path fill="none" stroke="black" d="M345.23,-109C345.23,-109 311.26,-109 311.26,-109 305.26,-109 299.26,-103 299.26,-97 299.26,-97 299.26,-85 299.26,-85 299.26,-79 305.26,-73 311.26,-73 311.26,-73 345.23,-73 345.23,-73 351.23,-73 357.23,-79 357.23,-85 357.23,-85 357.23,-97 357.23,-97 357.23,-103 351.23,-109 345.23,-109"/>
<text text-anchor="middle" x="328.25" y="-86.8" font-family="Times,serif" font-size="14.00">finalize</text>
</g>
<!-- output&#45;&gt;finalize -->
<g id="edge7" class="edge">
<title>output:c&#45;&gt;finalize:c</title>
<path fill="none" stroke="#1d76db" stroke-width="2" d="M263.06,-145.81C274.49,-136.38 288.8,-124.56 301.1,-114.41"/>
<polygon fill="#1d76db" stroke="#1d76db" stroke-width="2" points="301.21,-117.07 305.32,-110.27 297.87,-113.03 301.21,-117.07"/>
</g>
<!-- 0xca65c0 -->
<g id="node8" class="node">
<title>0xca65c0</title>
<ellipse fill="#9dd9f3" stroke="black" cx="328.25" cy="-18" rx="68.41" ry="18"/>
<text text-anchor="middle" x="328.25" y="-13.8" font-family="Times,serif" font-size="14.00">finalize_action</text>
</g>
<!-- finalize&#45;&gt;0xca65c0 -->
<g id="edge8" class="edge">
<title>finalize:c&#45;&gt;0xca65c0:c</title>
<path fill="none" stroke="black" stroke-width="1.5" d="M328.25,-72.81C328.25,-64.62 328.25,-54.62 328.25,-45.48"/>
<polygon fill="black" stroke="black" stroke-width="1.5" points="330.87,-45.53 328.25,-38.03 325.62,-45.53 330.87,-45.53"/>
</g>
</g>
</svg>
