<?xml version="1.0" encoding="UTF-8" standalone="no"?>
<!DOCTYPE svg PUBLIC "-//W3C//DTD SVG 1.1//EN"
 "http://www.w3.org/Graphics/SVG/1.1/DTD/svg11.dtd">
<!-- Generated by graphviz version 8.0.5 (0)
 -->
<!-- Title: graph Pages: 1 -->
<svg width="379pt" height="425pt"
 viewBox="0.00 0.00 378.67 424.80" xmlns="http://www.w3.org/2000/svg" xmlns:xlink="http://www.w3.org/1999/xlink">
<g id="graph0" class="graph" transform="scale(1 1) rotate(0) translate(4 420.8)">
<title>graph</title>
<polygon fill="white" stroke="none" points="-4,4 -4,-420.8 374.67,-420.8 374.67,4 -4,4"/>
<!-- initialize -->
<g id="node1" class="node">
<title>initialize</title>
<path fill="none" stroke="black" d="M92.74,-416.8C92.74,-416.8 51.76,-416.8 51.76,-416.8 45.76,-416.8 39.76,-410.8 39.76,-404.8 39.76,-404.8 39.76,-392.8 39.76,-392.8 39.76,-386.8 45.76,-380.8 51.76,-380.8 51.76,-380.8 92.74,-380.8 92.74,-380.8 98.74,-380.8 104.74,-386.8 104.74,-392.8 104.74,-392.8 104.74,-404.8 104.74,-404.8 104.74,-410.8 98.74,-416.8 92.74,-416.8"/>
<text text-anchor="middle" x="72.25" y="-394.6" font-family="Times,serif" font-size="14.00">initialize</text>
</g>
<!-- 0x713ac0 -->
<g id="node2" class="node">
<title>0x713ac0</title>
<ellipse fill="#77c3ec" stroke="black" cx="51.25" cy="-325.8" rx="51.25" ry="18"/>
<text text-anchor="middle" x="51.25" y="-321.6" font-family="Times,serif" font-size="14.00">initialize()</text>
</g>
<!-- initialize&#45;&gt;0x713ac0 -->
<g id="edge1" class="edge">
<title>initialize:c&#45;&gt;0x713ac0:c</title>
<path fill="none" stroke="black" stroke-width="1.5" d="M67.17,-380.61C64.69,-372.24 61.66,-362 58.91,-352.7"/>
<polygon fill="black" stroke="black" stroke-width="1.5" points="60.93,-352.28 56.29,-345.83 55.9,-353.77 60.93,-352.28"/>
</g>
<!-- advance -->
<g id="node3" class="node">
<title>advance</title>
<path fill="none" stroke="black" d="M188.18,-343.8C188.18,-343.8 150.33,-343.8 150.33,-343.8 144.33,-343.8 138.33,-337.8 138.33,-331.8 138.33,-331.8 138.33,-319.8 138.33,-319.8 138.33,-313.8 144.33,-307.8 150.33,-307.8 150.33,-307.8 188.18,-307.8 188.18,-307.8 194.18,-307.8 200.18,-313.8 200.18,-319.8 200.18,-319.8 200.18,-331.8 200.18,-331.8 200.18,-337.8 194.18,-343.8 188.18,-343.8"/>
<text text-anchor="middle" x="169.25" y="-321.6" font-family="Times,serif" font-size="14.00">advance</text>
</g>
<!-- initialize&#45;&gt;advance -->
<g id="edge2" class="edge">
<title>initialize:c&#45;&gt;advance:c</title>
<path fill="none" stroke="#1d76db" stroke-width="2" d="M95.73,-380.61C108.74,-371.09 125.06,-359.15 139.02,-348.93"/>
<polygon fill="#1d76db" stroke="#1d76db" stroke-width="2" points="139.15,-351.62 143.65,-345.07 136.05,-347.39 139.15,-351.62"/>
</g>
<!-- 0x713b20 -->
<g id="node4" class="node">
<title>0x713b20</title>
<ellipse fill="#b8e2f2" stroke="black" cx="54.25" cy="-237" rx="49.1" ry="18"/>
<text text-anchor="middle" x="54.25" y="-232.8" font-family="Times,serif" font-size="14.00">advance()</text>
</g>
<!-- advance&#45;&gt;0x713b20 -->
<g id="edge3" class="edge">
<title>advance:c&#45;&gt;0x713b20:c</title>
<path fill="none" stroke="black" stroke-width="1.5" d="M146.26,-307.44C127.86,-293.55 101.97,-274.02 82.35,-259.2"/>
<polygon fill="black" stroke="black" stroke-width="1.5" points="83.46,-257 75.89,-254.58 80.3,-261.19 83.46,-257"/>
</g>
<!-- advance2 -->
<g id="node5" class="node">
<title>advance2</title>
<path fill="none" stroke="black" d="M196.68,-255C196.68,-255 151.83,-255 151.83,-255 145.83,-255 139.83,-249 139.83,-243 139.83,-243 139.83,-231 139.83,-231 139.83,-225 145.83,-219 151.83,-219 151.83,-219 196.68,-219 196.68,-219 202.68,-219 208.68,-225 208.68,-231 208.68,-231 208.68,-243 208.68,-243 208.68,-249 202.68,-255 196.68,-255"/>
<text text-anchor="middle" x="174.25" y="-232.8" font-family="Times,serif" font-size="14.00">advance2</text>
</g>
<!-- advance&#45;&gt;advance2 -->
<g id="edge4" class="edge">
<title>advance:c&#45;&gt;advance2:c</title>
<path fill="none" stroke="#1d76db" stroke-width="2" d="M170.24,-307.65C170.96,-295.13 171.95,-277.94 172.77,-263.77"/>
<polygon fill="#1d76db" stroke="#1d76db" stroke-width="2" points="175.44,-266.05 173.25,-258.41 170.2,-265.75 175.44,-266.05"/>
</g>
<!-- advance2&#45;&gt;advance -->
<g id="edge5" class="edge">
<title>advance2:ne&#45;&gt;advance:se</title>
<path fill="none" stroke="#1d76db" stroke-width="2" stroke-dasharray="5,2" d="M208.25,-255C223.07,-269.82 218.57,-286.54 205.77,-301.81"/>
<polygon fill="#1d76db" stroke="#1d76db" stroke-width="2" points="205.4,-298.5 202.25,-305.8 209.26,-302.06 205.4,-298.5"/>
<text text-anchor="middle" x="234.77" y="-277.2" font-family="Times,serif" font-size="14.00"> cycle</text>
</g>
<!-- 0x713b80 -->
<g id="node6" class="node">
<title>0x713b80</title>
<ellipse fill="#4eb2e0" stroke="black" cx="132.25" cy="-164" rx="53.93" ry="18"/>
<text text-anchor="middle" x="132.25" y="-159.8" font-family="Times,serif" font-size="14.00">advance2()</text>
</g>
<!-- advance2&#45;&gt;0x713b80 -->
<g id="edge6" class="edge">
<title>advance2:c&#45;&gt;0x713b80:c</title>
<path fill="none" stroke="black" stroke-width="1.5" d="M164.09,-218.81C158.98,-210.18 152.69,-199.56 147.06,-190.03"/>
<polygon fill="black" stroke="black" stroke-width="1.5" points="149.4,-188.15 143.33,-183.03 144.89,-190.82 149.4,-188.15"/>
</g>
<!-- analyze -->
<g id="node7" class="node">
<title>analyze</title>
<path fill="none" stroke="black" d="M268.63,-182C268.63,-182 233.88,-182 233.88,-182 227.88,-182 221.88,-176 221.88,-170 221.88,-170 221.88,-158 221.88,-158 221.88,-152 227.88,-146 233.88,-146 233.88,-146 268.63,-146 268.63,-146 274.63,-146 280.63,-152 280.63,-158 280.63,-158 280.63,-170 280.63,-170 280.63,-176 274.63,-182 268.63,-182"/>
<text text-anchor="middle" x="251.25" y="-159.8" font-family="Times,serif" font-size="14.00">analyze</text>
</g>
<!-- advance2&#45;&gt;analyze -->
<g id="edge7" class="edge">
<title>advance2:c&#45;&gt;analyze:c</title>
<path fill="none" stroke="#1d76db" stroke-width="2" d="M192.89,-218.81C202.94,-209.55 215.47,-198 226.34,-187.97"/>
<polygon fill="#1d76db" stroke="#1d76db" stroke-width="2" points="226.78,-191.29 230.52,-184.27 223.23,-187.43 226.78,-191.29"/>
</g>
<!-- analyze&#45;&gt;advance -->
<g id="edge8" class="edge">
<title>analyze:e&#45;&gt;advance:e</title>
<path fill="none" stroke="#1d76db" stroke-width="2" stroke-dasharray="5,2" d="M281.25,-164C286.49,-164 306.07,-317.07 209.66,-325.44"/>
<polygon fill="#1d76db" stroke="#1d76db" stroke-width="2" points="211.64,-322.86 204.25,-325.8 211.86,-328.11 211.64,-322.86"/>
<text text-anchor="middle" x="301.77" y="-232.8" font-family="Times,serif" font-size="14.00"> cycle</text>
</g>
<!-- 0x713be0 -->
<g id="node8" class="node">
<title>0x713be0</title>
<ellipse fill="#9dd9f3" stroke="black" cx="212.25" cy="-91" rx="46.95" ry="18"/>
<text text-anchor="middle" x="212.25" y="-86.8" font-family="Times,serif" font-size="14.00">analyze()</text>
</g>
<!-- analyze&#45;&gt;0x713be0 -->
<g id="edge9" class="edge">
<title>analyze:c&#45;&gt;0x713be0:c</title>
<path fill="none" stroke="black" stroke-width="1.5" d="M241.81,-145.81C237.12,-137.27 231.35,-126.77 226.16,-117.32"/>
<polygon fill="black" stroke="black" stroke-width="1.5" points="228.52,-115.34 222.61,-110.03 223.92,-117.87 228.52,-115.34"/>
</g>
<!-- finalize -->
<g id="node9" class="node">
<title>finalize</title>
<path fill="none" stroke="black" d="M341.24,-109C341.24,-109 307.27,-109 307.27,-109 301.27,-109 295.27,-103 295.27,-97 295.27,-97 295.27,-85 295.27,-85 295.27,-79 301.27,-73 307.27,-73 307.27,-73 341.24,-73 341.24,-73 347.24,-73 353.24,-79 353.24,-85 353.24,-85 353.24,-97 353.24,-97 353.24,-103 347.24,-109 341.24,-109"/>
<text text-anchor="middle" x="324.25" y="-86.8" font-family="Times,serif" font-size="14.00">finalize</text>
</g>
<!-- analyze&#45;&gt;finalize -->
<g id="edge10" class="edge">
<title>analyze:c&#45;&gt;finalize:c</title>
<path fill="none" stroke="#1d76db" stroke-width="2" d="M268.92,-145.81C278.45,-136.55 290.33,-125 300.63,-114.97"/>
<polygon fill="#1d76db" stroke="#1d76db" stroke-width="2" points="300.95,-118.39 304.49,-111.27 297.29,-114.62 300.95,-118.39"/>
</g>
<!-- 0x713c40 -->
<g id="node10" class="node">
<title>0x713c40</title>
<ellipse fill="#77c3ec" stroke="black" cx="324.25" cy="-18" rx="46.42" ry="18"/>
<text text-anchor="middle" x="324.25" y="-13.8" font-family="Times,serif" font-size="14.00">finalize()</text>
</g>
<!-- finalize&#45;&gt;0x713c40 -->
<g id="edge11" class="edge">
<title>finalize:c&#45;&gt;0x713c40:c</title>
<path fill="none" stroke="black" stroke-width="1.5" d="M324.25,-72.81C324.25,-64.62 324.25,-54.62 324.25,-45.48"/>
<polygon fill="black" stroke="black" stroke-width="1.5" points="326.88,-45.53 324.25,-38.03 321.63,-45.53 326.88,-45.53"/>
</g>
</g>
</svg>
