<?xml version="1.0" encoding="UTF-8" standalone="no"?>
<!DOCTYPE svg PUBLIC "-//W3C//DTD SVG 1.1//EN"
 "http://www.w3.org/Graphics/SVG/1.1/DTD/svg11.dtd">
<!-- Generated by graphviz version 12.1.0 (0)
 -->
<!-- Title: graph Pages: 1 -->
<svg width="377pt" height="425pt"
 viewBox="0.00 0.00 376.67 424.80" xmlns="http://www.w3.org/2000/svg" xmlns:xlink="http://www.w3.org/1999/xlink">
<g id="graph0" class="graph" transform="scale(1 1) rotate(0) translate(4 420.8)">
<title>graph</title>
<polygon fill="white" stroke="none" points="-4,4 -4,-420.8 372.67,-420.8 372.67,4 -4,4"/>
<!-- initialize -->
<g id="node1" class="node">
<title>initialize</title>
<path fill="none" stroke="black" d="M92.74,-416.8C92.74,-416.8 51.76,-416.8 51.76,-416.8 45.76,-416.8 39.76,-410.8 39.76,-404.8 39.76,-404.8 39.76,-392.8 39.76,-392.8 39.76,-386.8 45.76,-380.8 51.76,-380.8 51.76,-380.8 92.74,-380.8 92.74,-380.8 98.74,-380.8 104.74,-386.8 104.74,-392.8 104.74,-392.8 104.74,-404.8 104.74,-404.8 104.74,-410.8 98.74,-416.8 92.74,-416.8"/>
<text text-anchor="middle" x="72.25" y="-394.6" font-family="Times,serif" font-size="14.00">initialize</text>
</g>
<!-- 0x713ac0 -->
<g id="node2" class="node">
<title>0x713ac0</title>
<ellipse fill="#77c3ec" stroke="black" cx="51.25" cy="-325.8" rx="51.25" ry="18"/>
<text text-anchor="middle" x="51.25" y="-321.6" font-family="Times,serif" font-size="14.00">initialize()</text>
</g>
<!-- initialize&#45;&gt;0x713ac0 -->
<g id="edge1" class="edge">
<title>initialize:c&#45;&gt;0x713ac0:c</title>
<path fill="none" stroke="black" stroke-width="1.5" d="M67.17,-380.61C64.72,-372.33 61.73,-362.21 59,-352.99"/>
<polygon fill="black" stroke="black" stroke-width="1.5" points="61.58,-352.45 56.93,-346.01 56.54,-353.94 61.58,-352.45"/>
</g>
<!-- advance -->
<g id="node3" class="node">
<title>advance</title>
<path fill="none" stroke="black" d="M188.18,-343.8C188.18,-343.8 150.33,-343.8 150.33,-343.8 144.33,-343.8 138.33,-337.8 138.33,-331.8 138.33,-331.8 138.33,-319.8 138.33,-319.8 138.33,-313.8 144.33,-307.8 150.33,-307.8 150.33,-307.8 188.18,-307.8 188.18,-307.8 194.18,-307.8 200.18,-313.8 200.18,-319.8 200.18,-319.8 200.18,-331.8 200.18,-331.8 200.18,-337.8 194.18,-343.8 188.18,-343.8"/>
<text text-anchor="middle" x="169.25" y="-321.6" font-family="Times,serif" font-size="14.00">advance</text>
</g>
<!-- initialize&#45;&gt;advance -->
<g id="edge2" class="edge">
<title>initialize:c&#45;&gt;advance:c</title>
<path fill="none" stroke="#1d76db" stroke-width="2" d="M95.73,-380.61C108.63,-371.18 124.76,-359.36 138.64,-349.21"/>
<polygon fill="#1d76db" stroke="#1d76db" stroke-width="2" points="138.71,-352.41 143.21,-345.86 135.61,-348.17 138.71,-352.41"/>
</g>
<!-- 0x713b20 -->
<g id="node4" class="node">
<title>0x713b20</title>
<ellipse fill="#b8e2f2" stroke="black" cx="52.25" cy="-237" rx="49.1" ry="18"/>
<text text-anchor="middle" x="52.25" y="-232.8" font-family="Times,serif" font-size="14.00">advance()</text>
</g>
<!-- advance&#45;&gt;0x713b20 -->
<g id="edge3" class="edge">
<title>advance:c&#45;&gt;0x713b20:c</title>
<path fill="none" stroke="black" stroke-width="1.5" d="M145.86,-307.44C127.14,-293.55 100.8,-274.02 80.83,-259.2"/>
<polygon fill="black" stroke="black" stroke-width="1.5" points="82.66,-257.29 75.08,-254.93 79.53,-261.51 82.66,-257.29"/>
</g>
<!-- advance2 -->
<g id="node5" class="node">
<title>advance2</title>
<path fill="none" stroke="black" d="M194.68,-255C194.68,-255 149.83,-255 149.83,-255 143.83,-255 137.83,-249 137.83,-243 137.83,-243 137.83,-231 137.83,-231 137.83,-225 143.83,-219 149.83,-219 149.83,-219 194.68,-219 194.68,-219 200.68,-219 206.68,-225 206.68,-231 206.68,-231 206.68,-243 206.68,-243 206.68,-249 200.68,-255 194.68,-255"/>
<text text-anchor="middle" x="172.25" y="-232.8" font-family="Times,serif" font-size="14.00">advance2</text>
</g>
<!-- advance&#45;&gt;advance2 -->
<g id="edge4" class="edge">
<title>advance:c&#45;&gt;advance2:c</title>
<path fill="none" stroke="#1d76db" stroke-width="2" d="M169.85,-307.65C170.27,-295.25 170.86,-278.27 171.35,-264.18"/>
<polygon fill="#1d76db" stroke="#1d76db" stroke-width="2" points="173.91,-266.02 171.55,-258.44 168.66,-265.84 173.91,-266.02"/>
</g>
<!-- advance2&#45;&gt;advance -->
<g id="edge5" class="edge">
<title>advance2:ne&#45;&gt;advance:se</title>
<path fill="none" stroke="#1d76db" stroke-width="2" stroke-dasharray="5,2" d="M206.68,-255C221.31,-269.63 218.16,-286.28 205.95,-301.42"/>
<polygon fill="#1d76db" stroke="#1d76db" stroke-width="2" points="205.29,-298.23 202.21,-305.55 209.19,-301.75 205.29,-298.23"/>
<text text-anchor="middle" x="232.95" y="-277.2" font-family="Times,serif" font-size="14.00"> cycle</text>
</g>
<!-- 0x713b80 -->
<g id="node6" class="node">
<title>0x713b80</title>
<ellipse fill="#4eb2e0" stroke="black" cx="130.25" cy="-164" rx="53.93" ry="18"/>
<text text-anchor="middle" x="130.25" y="-159.8" font-family="Times,serif" font-size="14.00">advance2()</text>
</g>
<!-- advance2&#45;&gt;0x713b80 -->
<g id="edge6" class="edge">
<title>advance2:c&#45;&gt;0x713b80:c</title>
<path fill="none" stroke="black" stroke-width="1.5" d="M162.09,-218.81C157.03,-210.27 150.82,-199.77 145.23,-190.32"/>
<polygon fill="black" stroke="black" stroke-width="1.5" points="147.56,-189.1 141.48,-183.98 143.04,-191.77 147.56,-189.1"/>
</g>
<!-- analyze -->
<g id="node7" class="node">
<title>analyze</title>
<path fill="none" stroke="black" d="M266.63,-182C266.63,-182 231.88,-182 231.88,-182 225.88,-182 219.88,-176 219.88,-170 219.88,-170 219.88,-158 219.88,-158 219.88,-152 225.88,-146 231.88,-146 231.88,-146 266.63,-146 266.63,-146 272.63,-146 278.63,-152 278.63,-158 278.63,-158 278.63,-170 278.63,-170 278.63,-176 272.63,-182 266.63,-182"/>
<text text-anchor="middle" x="249.25" y="-159.8" font-family="Times,serif" font-size="14.00">analyze</text>
</g>
<!-- advance2&#45;&gt;analyze -->
<g id="edge7" class="edge">
<title>advance2:c&#45;&gt;analyze:c</title>
<path fill="none" stroke="#1d76db" stroke-width="2" d="M190.89,-218.81C200.84,-209.64 213.23,-198.21 224.04,-188.25"/>
<polygon fill="#1d76db" stroke="#1d76db" stroke-width="2" points="224.56,-191.34 228.29,-184.33 221,-187.48 224.56,-191.34"/>
</g>
<!-- analyze&#45;&gt;advance -->
<g id="edge8" class="edge">
<title>analyze:e&#45;&gt;advance:e</title>
<path fill="none" stroke="#1d76db" stroke-width="2" stroke-dasharray="5,2" d="M279.63,-164C284.74,-164 303.08,-316.46 209.92,-325.39"/>
<polygon fill="#1d76db" stroke="#1d76db" stroke-width="2" points="211.57,-322.69 204.2,-325.66 211.82,-327.93 211.57,-322.69"/>
<text text-anchor="middle" x="300.56" y="-232.8" font-family="Times,serif" font-size="14.00"> cycle</text>
</g>
<!-- 0x713be0 -->
<g id="node8" class="node">
<title>0x713be0</title>
<ellipse fill="#9dd9f3" stroke="black" cx="210.25" cy="-91" rx="46.95" ry="18"/>
<text text-anchor="middle" x="210.25" y="-86.8" font-family="Times,serif" font-size="14.00">analyze()</text>
</g>
<!-- analyze&#45;&gt;0x713be0 -->
<g id="edge9" class="edge">
<title>analyze:c&#45;&gt;0x713be0:c</title>
<path fill="none" stroke="black" stroke-width="1.5" d="M239.81,-145.81C235.12,-137.27 229.35,-126.77 224.16,-117.32"/>
<polygon fill="black" stroke="black" stroke-width="1.5" points="226.61,-116.33 220.7,-111.02 222.01,-118.86 226.61,-116.33"/>
</g>
<!-- finalize -->
<g id="node9" class="node">
<title>finalize</title>
<path fill="none" stroke="black" d="M339.24,-109C339.24,-109 305.27,-109 305.27,-109 299.27,-109 293.27,-103 293.27,-97 293.27,-97 293.27,-85 293.27,-85 293.27,-79 299.27,-73 305.27,-73 305.27,-73 339.24,-73 339.24,-73 345.24,-73 351.24,-79 351.24,-85 351.24,-85 351.24,-97 351.24,-97 351.24,-103 345.24,-109 339.24,-109"/>
<text text-anchor="middle" x="322.25" y="-86.8" font-family="Times,serif" font-size="14.00">finalize</text>
</g>
<!-- analyze&#45;&gt;finalize -->
<g id="edge10" class="edge">
<title>analyze:c&#45;&gt;finalize:c</title>
<path fill="none" stroke="#1d76db" stroke-width="2" d="M266.92,-145.81C276.27,-136.72 287.88,-125.43 298.05,-115.54"/>
<polygon fill="#1d76db" stroke="#1d76db" stroke-width="2" points="298.78,-118.5 302.32,-111.39 295.12,-114.73 298.78,-118.5"/>
</g>
<!-- 0x713c40 -->
<g id="node10" class="node">
<title>0x713c40</title>
<ellipse fill="#77c3ec" stroke="black" cx="322.25" cy="-18" rx="46.42" ry="18"/>
<text text-anchor="middle" x="322.25" y="-13.8" font-family="Times,serif" font-size="14.00">finalize()</text>
</g>
<!-- finalize&#45;&gt;0x713c40 -->
<g id="edge11" class="edge">
<title>finalize:c&#45;&gt;0x713c40:c</title>
<path fill="none" stroke="black" stroke-width="1.5" d="M322.25,-72.81C322.25,-64.7 322.25,-54.84 322.25,-45.78"/>
<polygon fill="black" stroke="black" stroke-width="1.5" points="324.88,-45.8 322.25,-38.3 319.63,-45.8 324.88,-45.8"/>
</g>
</g>
</svg>
