<?xml version="1.0" encoding="UTF-8" standalone="no"?>
<!DOCTYPE svg PUBLIC "-//W3C//DTD SVG 1.1//EN"
 "http://www.w3.org/Graphics/SVG/1.1/DTD/svg11.dtd">
<!-- Generated by graphviz version 2.49.0 (0)
 -->
<!-- Title: graph Pages: 1 -->
<svg width="379pt" height="425pt"
 viewBox="0.00 0.00 378.68 424.80" xmlns="http://www.w3.org/2000/svg" xmlns:xlink="http://www.w3.org/1999/xlink">
<g id="graph0" class="graph" transform="scale(1 1) rotate(0) translate(4 420.8)">
<title>graph</title>
<polygon fill="white" stroke="transparent" points="-4,4 -4,-420.8 374.68,-420.8 374.68,4 -4,4"/>
<!-- initialize -->
<g id="node1" class="node">
<title>initialize</title>
<path fill="none" stroke="black" d="M92.74,-416.8C92.74,-416.8 51.77,-416.8 51.77,-416.8 45.77,-416.8 39.77,-410.8 39.77,-404.8 39.77,-404.8 39.77,-392.8 39.77,-392.8 39.77,-386.8 45.77,-380.8 51.77,-380.8 51.77,-380.8 92.74,-380.8 92.74,-380.8 98.74,-380.8 104.74,-386.8 104.74,-392.8 104.74,-392.8 104.74,-404.8 104.74,-404.8 104.74,-410.8 98.74,-416.8 92.74,-416.8"/>
<text text-anchor="middle" x="72.26" y="-394.6" font-family="Times,serif" font-size="14.00">initialize</text>
</g>
<!-- 0x713ac0 -->
<g id="node2" class="node">
<title>0x713ac0</title>
<ellipse fill="#77c3ec" stroke="black" cx="51.26" cy="-325.8" rx="51.01" ry="18"/>
<text text-anchor="middle" x="51.26" y="-321.6" font-family="Times,serif" font-size="14.00">initialize()</text>
</g>
<!-- initialize&#45;&gt;0x713ac0 -->
<g id="edge1" class="edge">
<title>initialize:c&#45;&gt;0x713ac0:c</title>
<path fill="none" stroke="black" stroke-width="1.5" d="M67.17,-380.61C64.57,-371.8 61.35,-360.93 58.49,-351.26"/>
<polygon fill="black" stroke="black" stroke-width="1.5" points="60.94,-350.28 56.29,-343.83 55.9,-351.77 60.94,-350.28"/>
</g>
<!-- advance -->
<g id="node3" class="node">
<title>advance</title>
<path fill="none" stroke="black" d="M188.12,-343.8C188.12,-343.8 150.4,-343.8 150.4,-343.8 144.4,-343.8 138.4,-337.8 138.4,-331.8 138.4,-331.8 138.4,-319.8 138.4,-319.8 138.4,-313.8 144.4,-307.8 150.4,-307.8 150.4,-307.8 188.12,-307.8 188.12,-307.8 194.12,-307.8 200.12,-313.8 200.12,-319.8 200.12,-319.8 200.12,-331.8 200.12,-331.8 200.12,-337.8 194.12,-343.8 188.12,-343.8"/>
<text text-anchor="middle" x="169.26" y="-321.6" font-family="Times,serif" font-size="14.00">advance</text>
</g>
<!-- initialize&#45;&gt;advance -->
<g id="edge2" class="edge">
<title>initialize:c&#45;&gt;advance:c</title>
<path fill="none" stroke="#1d76db" stroke-width="2" d="M95.74,-380.61C108.96,-370.93 125.61,-358.75 139.71,-348.43"/>
<polygon fill="#1d76db" stroke="#1d76db" stroke-width="2" points="141.49,-350.38 145.99,-343.83 138.39,-346.14 141.49,-350.38"/>
</g>
<!-- 0x713b20 -->
<g id="node4" class="node">
<title>0x713b20</title>
<ellipse fill="#b8e2f2" stroke="black" cx="54.26" cy="-237" rx="49.2" ry="18"/>
<text text-anchor="middle" x="54.26" y="-232.8" font-family="Times,serif" font-size="14.00">advance()</text>
</g>
<!-- advance&#45;&gt;0x713b20 -->
<g id="edge3" class="edge">
<title>advance:c&#45;&gt;0x713b20:c</title>
<path fill="none" stroke="black" stroke-width="1.5" d="M146.54,-307.65C127.75,-293.47 101.04,-273.31 81.18,-258.32"/>
<polygon fill="black" stroke="black" stroke-width="1.5" points="82.56,-256.08 75,-253.65 79.4,-260.27 82.56,-256.08"/>
</g>
<!-- advance2 -->
<g id="node5" class="node">
<title>advance2</title>
<path fill="none" stroke="black" d="M196.62,-255C196.62,-255 151.9,-255 151.9,-255 145.9,-255 139.9,-249 139.9,-243 139.9,-243 139.9,-231 139.9,-231 139.9,-225 145.9,-219 151.9,-219 151.9,-219 196.62,-219 196.62,-219 202.62,-219 208.62,-225 208.62,-231 208.62,-231 208.62,-243 208.62,-243 208.62,-249 202.62,-255 196.62,-255"/>
<text text-anchor="middle" x="174.26" y="-232.8" font-family="Times,serif" font-size="14.00">advance2</text>
</g>
<!-- advance&#45;&gt;advance2 -->
<g id="edge4" class="edge">
<title>advance:c&#45;&gt;advance2:c</title>
<path fill="none" stroke="#1d76db" stroke-width="2" d="M170.24,-307.65C170.98,-294.81 172.01,-277.06 172.83,-262.69"/>
<polygon fill="#1d76db" stroke="#1d76db" stroke-width="2" points="175.46,-262.75 173.27,-255.11 170.22,-262.45 175.46,-262.75"/>
</g>
<!-- advance2&#45;&gt;advance -->
<g id="edge5" class="edge">
<title>advance2:ne&#45;&gt;advance:se</title>
<path fill="none" stroke="#1d76db" stroke-width="2" stroke-dasharray="5,2" d="M208.26,-255C223.2,-269.95 218.49,-286.84 205.43,-302.21"/>
<polygon fill="#1d76db" stroke="#1d76db" stroke-width="2" points="203.42,-300.51 200.26,-307.8 207.28,-304.08 203.42,-300.51"/>
<text text-anchor="middle" x="234.77" y="-277.2" font-family="Times,serif" font-size="14.00"> cycle</text>
</g>
<!-- 0x713b80 -->
<g id="node6" class="node">
<title>0x713b80</title>
<ellipse fill="#4eb2e0" stroke="black" cx="132.26" cy="-164" rx="53.85" ry="18"/>
<text text-anchor="middle" x="132.26" y="-159.8" font-family="Times,serif" font-size="14.00">advance2()</text>
</g>
<!-- advance2&#45;&gt;0x713b80 -->
<g id="edge6" class="edge">
<title>advance2:c&#45;&gt;0x713b80:c</title>
<path fill="none" stroke="black" stroke-width="1.5" d="M164.09,-218.81C158.72,-209.74 152.06,-198.48 146.22,-188.6"/>
<polygon fill="black" stroke="black" stroke-width="1.5" points="148.41,-187.15 142.33,-182.03 143.89,-189.82 148.41,-187.15"/>
</g>
<!-- analyze -->
<g id="node7" class="node">
<title>analyze</title>
<path fill="none" stroke="black" d="M268.51,-182C268.51,-182 234.01,-182 234.01,-182 228.01,-182 222.01,-176 222.01,-170 222.01,-170 222.01,-158 222.01,-158 222.01,-152 228.01,-146 234.01,-146 234.01,-146 268.51,-146 268.51,-146 274.51,-146 280.51,-152 280.51,-158 280.51,-158 280.51,-170 280.51,-170 280.51,-176 274.51,-182 268.51,-182"/>
<text text-anchor="middle" x="251.26" y="-159.8" font-family="Times,serif" font-size="14.00">analyze</text>
</g>
<!-- advance2&#45;&gt;analyze -->
<g id="edge7" class="edge">
<title>advance2:c&#45;&gt;analyze:c</title>
<path fill="none" stroke="#1d76db" stroke-width="2" d="M192.9,-218.81C203.21,-209.31 216.13,-197.39 227.2,-187.19"/>
<polygon fill="#1d76db" stroke="#1d76db" stroke-width="2" points="229.05,-189.04 232.79,-182.03 225.5,-185.18 229.05,-189.04"/>
</g>
<!-- analyze&#45;&gt;advance -->
<g id="edge8" class="edge">
<title>analyze:e&#45;&gt;advance:e</title>
<path fill="none" stroke="#1d76db" stroke-width="2" stroke-dasharray="5,2" d="M281.26,-164C286.51,-164 306.19,-318 208.79,-325.52"/>
<polygon fill="#1d76db" stroke="#1d76db" stroke-width="2" points="208.65,-322.89 201.26,-325.8 208.85,-328.14 208.65,-322.89"/>
<text text-anchor="middle" x="301.77" y="-232.8" font-family="Times,serif" font-size="14.00"> cycle</text>
</g>
<!-- 0x713be0 -->
<g id="node8" class="node">
<title>0x713be0</title>
<ellipse fill="#9dd9f3" stroke="black" cx="212.26" cy="-91" rx="46.91" ry="18"/>
<text text-anchor="middle" x="212.26" y="-86.8" font-family="Times,serif" font-size="14.00">analyze()</text>
</g>
<!-- analyze&#45;&gt;0x713be0 -->
<g id="edge9" class="edge">
<title>analyze:c&#45;&gt;0x713be0:c</title>
<path fill="none" stroke="black" stroke-width="1.5" d="M241.82,-145.81C236.88,-136.83 230.76,-125.69 225.38,-115.89"/>
<polygon fill="black" stroke="black" stroke-width="1.5" points="227.52,-114.34 221.61,-109.03 222.92,-116.87 227.52,-114.34"/>
</g>
<!-- finalize -->
<g id="node9" class="node">
<title>finalize</title>
<path fill="none" stroke="black" d="M341.23,-109C341.23,-109 307.28,-109 307.28,-109 301.28,-109 295.28,-103 295.28,-97 295.28,-97 295.28,-85 295.28,-85 295.28,-79 301.28,-73 307.28,-73 307.28,-73 341.23,-73 341.23,-73 347.23,-73 353.23,-79 353.23,-85 353.23,-85 353.23,-97 353.23,-97 353.23,-103 347.23,-109 341.23,-109"/>
<text text-anchor="middle" x="324.26" y="-86.8" font-family="Times,serif" font-size="14.00">finalize</text>
</g>
<!-- analyze&#45;&gt;finalize -->
<g id="edge10" class="edge">
<title>analyze:c&#45;&gt;finalize:c</title>
<path fill="none" stroke="#1d76db" stroke-width="2" d="M268.93,-145.81C278.61,-136.39 290.73,-124.61 301.16,-114.47"/>
<polygon fill="#1d76db" stroke="#1d76db" stroke-width="2" points="303.2,-116.14 306.75,-109.03 299.54,-112.38 303.2,-116.14"/>
</g>
<!-- 0x713c40 -->
<g id="node10" class="node">
<title>0x713c40</title>
<ellipse fill="#77c3ec" stroke="black" cx="324.26" cy="-18" rx="46.34" ry="18"/>
<text text-anchor="middle" x="324.26" y="-13.8" font-family="Times,serif" font-size="14.00">finalize()</text>
</g>
<!-- finalize&#45;&gt;0x713c40 -->
<g id="edge11" class="edge">
<title>finalize:c&#45;&gt;0x713c40:c</title>
<path fill="none" stroke="black" stroke-width="1.5" d="M324.26,-72.81C324.26,-64.09 324.26,-53.34 324.26,-43.75"/>
<polygon fill="black" stroke="black" stroke-width="1.5" points="326.88,-43.53 324.26,-36.03 321.63,-43.53 326.88,-43.53"/>
</g>
</g>
</svg>
