<?xml version="1.0" encoding="UTF-8" standalone="no"?>
<!DOCTYPE svg PUBLIC "-//W3C//DTD SVG 1.1//EN"
 "http://www.w3.org/Graphics/SVG/1.1/DTD/svg11.dtd">
<!-- Generated by graphviz version 2.43.0 (0)
 -->
<!-- Title: graph Pages: 1 -->
<svg width="361pt" height="260pt"
 viewBox="0.00 0.00 361.34 260.00" xmlns="http://www.w3.org/2000/svg" xmlns:xlink="http://www.w3.org/1999/xlink">
<g id="graph0" class="graph" transform="scale(1 1) rotate(0) translate(4 256)">
<title>graph</title>
<polygon fill="white" stroke="transparent" points="-4,4 -4,-256 357.34,-256 357.34,4 -4,4"/>
<!-- initialize -->
<g id="node1" class="node">
<title>initialize</title>
<path fill="none" stroke="black" d="M164.44,-252C164.44,-252 124.44,-252 124.44,-252 118.44,-252 112.44,-246 112.44,-240 112.44,-240 112.44,-228 112.44,-228 112.44,-222 118.44,-216 124.44,-216 124.44,-216 164.44,-216 164.44,-216 170.44,-216 176.44,-222 176.44,-228 176.44,-228 176.44,-240 176.44,-240 176.44,-246 170.44,-252 164.44,-252"/>
<text text-anchor="middle" x="144.44" y="-230.3" font-family="Times,serif" font-size="14.00">initialize</text>
</g>
<!-- 0x7a51e0 -->
<g id="node2" class="node">
<title>0x7a51e0</title>
<ellipse fill="#77c3ec" stroke="black" cx="73.44" cy="-162" rx="73.39" ry="18"/>
<text text-anchor="middle" x="73.44" y="-158.3" font-family="Times,serif" font-size="14.00">initialize_action()</text>
</g>
<!-- initialize&#45;&gt;0x7a51e0 -->
<g id="edge1" class="edge">
<title>initialize:c&#45;&gt;0x7a51e0:c</title>
<path fill="none" stroke="black" stroke-width="1.5" d="M126.89,-215.7C117.47,-206.41 105.75,-194.86 95.7,-184.94"/>
<polygon fill="black" stroke="black" stroke-width="1.5" points="97.49,-183.02 90.3,-179.62 93.8,-186.76 97.49,-183.02"/>
</g>
<!-- mul_add -->
<g id="node3" class="node">
<title>mul_add</title>
<path fill="none" stroke="black" d="M235.94,-180C235.94,-180 194.94,-180 194.94,-180 188.94,-180 182.94,-174 182.94,-168 182.94,-168 182.94,-156 182.94,-156 182.94,-150 188.94,-144 194.94,-144 194.94,-144 235.94,-144 235.94,-144 241.94,-144 247.94,-150 247.94,-156 247.94,-156 247.94,-168 247.94,-168 247.94,-174 241.94,-180 235.94,-180"/>
<text text-anchor="middle" x="215.44" y="-158.3" font-family="Times,serif" font-size="14.00">mul_add</text>
</g>
<!-- initialize&#45;&gt;mul_add -->
<g id="edge2" class="edge">
<title>initialize:c&#45;&gt;mul_add:c</title>
<path fill="none" stroke="#1d76db" stroke-width="2" d="M161.99,-215.7C171.28,-206.54 182.79,-195.19 192.75,-185.38"/>
<polygon fill="#1d76db" stroke="#1d76db" stroke-width="2" points="194.6,-187.24 198.09,-180.1 190.91,-183.5 194.6,-187.24"/>
</g>
<!-- 0x7a5240 -->
<g id="node4" class="node">
<title>0x7a5240</title>
<ellipse fill="#b8e2f2" stroke="black" cx="146.44" cy="-90" rx="73.39" ry="18"/>
<text text-anchor="middle" x="146.44" y="-86.3" font-family="Times,serif" font-size="14.00">mul_add_action()</text>
</g>
<!-- mul_add&#45;&gt;0x7a5240 -->
<g id="edge3" class="edge">
<title>mul_add:c&#45;&gt;0x7a5240:c</title>
<path fill="none" stroke="black" stroke-width="1.5" d="M198.39,-143.7C189.31,-134.49 178.05,-123.07 168.34,-113.21"/>
<polygon fill="black" stroke="black" stroke-width="1.5" points="169.96,-111.12 162.83,-107.62 166.22,-114.81 169.96,-111.12"/>
</g>
<!-- finalize -->
<g id="node5" class="node">
<title>finalize</title>
<path fill="none" stroke="black" d="M300.94,-108C300.94,-108 267.94,-108 267.94,-108 261.94,-108 255.94,-102 255.94,-96 255.94,-96 255.94,-84 255.94,-84 255.94,-78 261.94,-72 267.94,-72 267.94,-72 300.94,-72 300.94,-72 306.94,-72 312.94,-78 312.94,-84 312.94,-84 312.94,-96 312.94,-96 312.94,-102 306.94,-108 300.94,-108"/>
<text text-anchor="middle" x="284.44" y="-86.3" font-family="Times,serif" font-size="14.00">finalize</text>
</g>
<!-- mul_add&#45;&gt;finalize -->
<g id="edge4" class="edge">
<title>mul_add:c&#45;&gt;finalize:c</title>
<path fill="none" stroke="#1d76db" stroke-width="2" d="M232.5,-143.7C241.44,-134.63 252.5,-123.4 262.12,-113.65"/>
<polygon fill="#1d76db" stroke="#1d76db" stroke-width="2" points="264.19,-115.29 267.58,-108.1 260.45,-111.6 264.19,-115.29"/>
</g>
<!-- 0x7a52a0 -->
<g id="node6" class="node">
<title>0x7a52a0</title>
<ellipse fill="#4eb2e0" stroke="black" cx="284.44" cy="-18" rx="68.79" ry="18"/>
<text text-anchor="middle" x="284.44" y="-14.3" font-family="Times,serif" font-size="14.00">finalize_action()</text>
</g>
<!-- finalize&#45;&gt;0x7a52a0 -->
<g id="edge5" class="edge">
<title>finalize:c&#45;&gt;0x7a52a0:c</title>
<path fill="none" stroke="black" stroke-width="1.5" d="M284.44,-71.7C284.44,-63.3 284.44,-53.07 284.44,-43.86"/>
<polygon fill="black" stroke="black" stroke-width="1.5" points="287.07,-43.6 284.44,-36.1 281.82,-43.6 287.07,-43.6"/>
</g>
</g>
</svg>
