<?xml version="1.0" encoding="UTF-8" standalone="no"?>
<!DOCTYPE svg PUBLIC "-//W3C//DTD SVG 1.1//EN"
 "http://www.w3.org/Graphics/SVG/1.1/DTD/svg11.dtd">
<!-- Generated by graphviz version 2.43.0 (0)
 -->
<!-- Title: graph Pages: 1 -->
<svg width="485pt" height="332pt"
 viewBox="0.00 0.00 485.39 332.00" xmlns="http://www.w3.org/2000/svg" xmlns:xlink="http://www.w3.org/1999/xlink">
<g id="graph0" class="graph" transform="scale(1 1) rotate(0) translate(4 328)">
<title>graph</title>
<polygon fill="white" stroke="transparent" points="-4,4 -4,-328 481.39,-328 481.39,4 -4,4"/>
<!-- initialize -->
<g id="node1" class="node">
<title>initialize</title>
<path fill="none" stroke="black" d="M185.5,-324C185.5,-324 145.5,-324 145.5,-324 139.5,-324 133.5,-318 133.5,-312 133.5,-312 133.5,-300 133.5,-300 133.5,-294 139.5,-288 145.5,-288 145.5,-288 185.5,-288 185.5,-288 191.5,-288 197.5,-294 197.5,-300 197.5,-300 197.5,-312 197.5,-312 197.5,-318 191.5,-324 185.5,-324"/>
<text text-anchor="middle" x="165.5" y="-302.3" font-family="Times,serif" font-size="14.00">initialize</text>
</g>
<!-- 0x7a51e0 -->
<g id="node2" class="node">
<title>0x7a51e0</title>
<ellipse fill="#b8e2f2" stroke="black" cx="94.5" cy="-234" rx="73.39" ry="18"/>
<text text-anchor="middle" x="94.5" y="-230.3" font-family="Times,serif" font-size="14.00">initialize_action()</text>
</g>
<!-- initialize&#45;&gt;0x7a51e0 -->
<g id="edge1" class="edge">
<title>initialize:c&#45;&gt;0x7a51e0:c</title>
<path fill="none" stroke="black" stroke-width="1.5" d="M147.95,-287.7C138.53,-278.41 126.81,-266.86 116.75,-256.94"/>
<polygon fill="black" stroke="black" stroke-width="1.5" points="118.54,-255.02 111.36,-251.62 114.86,-258.76 118.54,-255.02"/>
</g>
<!-- mul_add -->
<g id="node3" class="node">
<title>mul_add</title>
<path fill="none" stroke="black" d="M277,-252C277,-252 236,-252 236,-252 230,-252 224,-246 224,-240 224,-240 224,-228 224,-228 224,-222 230,-216 236,-216 236,-216 277,-216 277,-216 283,-216 289,-222 289,-228 289,-228 289,-240 289,-240 289,-246 283,-252 277,-252"/>
<text text-anchor="middle" x="256.5" y="-230.3" font-family="Times,serif" font-size="14.00">mul_add</text>
</g>
<!-- initialize&#45;&gt;mul_add -->
<g id="edge2" class="edge">
<title>initialize:c&#45;&gt;mul_add:c</title>
<path fill="none" stroke="#1d76db" stroke-width="2" d="M187.99,-287.7C200.12,-278.37 215.19,-266.77 228.12,-256.83"/>
<polygon fill="#1d76db" stroke="#1d76db" stroke-width="2" points="229.92,-258.76 234.26,-252.1 226.72,-254.6 229.92,-258.76"/>
</g>
<!-- init_vec_task -->
<g id="node7" class="node">
<title>init_vec_task</title>
<polygon fill="#f0fff0" stroke="black" points="147,-180 0,-180 0,-144 147,-144 147,-180"/>
<text text-anchor="middle" x="73.5" y="-158.3" font-family="Times,serif" font-size="14.00">initialize_vectors_task()</text>
</g>
<!-- 0x7a51e0&#45;&gt;init_vec_task -->
<g id="edge6" class="edge">
<title>0x7a51e0:c&#45;&gt;init_vec_task:c</title>
<path fill="none" stroke="orange" stroke-width="1.5" d="M89.31,-215.7C86.74,-207.14 83.6,-196.66 80.79,-187.3"/>
<polygon fill="orange" stroke="orange" stroke-width="1.5" points="83.3,-186.53 78.63,-180.1 78.27,-188.04 83.3,-186.53"/>
</g>
<!-- 0x7a5240 -->
<g id="node4" class="node">
<title>0x7a5240</title>
<ellipse fill="#b8e2f2" stroke="black" cx="256.5" cy="-162" rx="73.39" ry="18"/>
<text text-anchor="middle" x="256.5" y="-158.3" font-family="Times,serif" font-size="14.00">mul_add_action()</text>
</g>
<!-- mul_add&#45;&gt;0x7a5240 -->
<g id="edge3" class="edge">
<title>mul_add:c&#45;&gt;0x7a5240:c</title>
<path fill="none" stroke="black" stroke-width="1.5" d="M256.5,-215.7C256.5,-207.3 256.5,-197.07 256.5,-187.86"/>
<polygon fill="black" stroke="black" stroke-width="1.5" points="259.13,-187.6 256.5,-180.1 253.88,-187.6 259.13,-187.6"/>
</g>
<!-- finalize -->
<g id="node5" class="node">
<title>finalize</title>
<path fill="none" stroke="black" d="M420,-180C420,-180 387,-180 387,-180 381,-180 375,-174 375,-168 375,-168 375,-156 375,-156 375,-150 381,-144 387,-144 387,-144 420,-144 420,-144 426,-144 432,-150 432,-156 432,-156 432,-168 432,-168 432,-174 426,-180 420,-180"/>
<text text-anchor="middle" x="403.5" y="-158.3" font-family="Times,serif" font-size="14.00">finalize</text>
</g>
<!-- mul_add&#45;&gt;finalize -->
<g id="edge4" class="edge">
<title>mul_add:c&#45;&gt;finalize:c</title>
<path fill="none" stroke="#1d76db" stroke-width="2" d="M289.12,-217.46C312.53,-206.32 344.04,-191.32 368.06,-179.88"/>
<polygon fill="#1d76db" stroke="#1d76db" stroke-width="2" points="369.3,-182.2 374.94,-176.6 367.04,-177.46 369.3,-182.2"/>
</g>
<!-- mul_add_task -->
<g id="node8" class="node">
<title>mul_add_task</title>
<polygon fill="#f0fff0" stroke="black" points="303.5,-108 201.5,-108 201.5,-72 303.5,-72 303.5,-108"/>
<text text-anchor="middle" x="252.5" y="-86.3" font-family="Times,serif" font-size="14.00">mul_add_task()</text>
</g>
<!-- 0x7a5240&#45;&gt;mul_add_task -->
<g id="edge7" class="edge">
<title>0x7a5240:c&#45;&gt;mul_add_task:c</title>
<path fill="none" stroke="orange" stroke-width="1.5" d="M255.51,-143.7C255.03,-135.3 254.45,-125.07 253.92,-115.86"/>
<polygon fill="orange" stroke="orange" stroke-width="1.5" points="256.53,-115.44 253.48,-108.1 251.28,-115.74 256.53,-115.44"/>
</g>
<!-- 0x7a52a0 -->
<g id="node6" class="node">
<title>0x7a52a0</title>
<ellipse fill="#b8e2f2" stroke="black" cx="408.5" cy="-90" rx="68.79" ry="18"/>
<text text-anchor="middle" x="408.5" y="-86.3" font-family="Times,serif" font-size="14.00">finalize_action()</text>
</g>
<!-- finalize&#45;&gt;0x7a52a0 -->
<g id="edge5" class="edge">
<title>finalize:c&#45;&gt;0x7a52a0:c</title>
<path fill="none" stroke="black" stroke-width="1.5" d="M404.74,-143.7C405.34,-135.3 406.07,-125.07 406.72,-115.86"/>
<polygon fill="black" stroke="black" stroke-width="1.5" points="409.36,-115.77 407.28,-108.1 404.13,-115.4 409.36,-115.77"/>
</g>
<!-- reduce_y_task -->
<g id="node9" class="node">
<title>reduce_y_task</title>
<polygon fill="#f0fff0" stroke="black" points="460.5,-36 356.5,-36 356.5,0 460.5,0 460.5,-36"/>
<text text-anchor="middle" x="408.5" y="-14.3" font-family="Times,serif" font-size="14.00">reduce_y_task()</text>
</g>
<!-- 0x7a52a0&#45;&gt;reduce_y_task -->
<g id="edge8" class="edge">
<title>0x7a52a0:c&#45;&gt;reduce_y_task:c</title>
<path fill="none" stroke="orange" stroke-width="1.5" d="M408.5,-71.7C408.5,-63.3 408.5,-53.07 408.5,-43.86"/>
<polygon fill="orange" stroke="orange" stroke-width="1.5" points="411.13,-43.6 408.5,-36.1 405.88,-43.6 411.13,-43.6"/>
</g>
</g>
</svg>
